<svg xmlns="http://www.w3.org/2000/svg" xmlns:xlink="http://www.w3.org/1999/xlink" width="200" height="70" fill="none" xmlns:v="https://vecta.io/nano"><g clip-path="url(#A)"><g fill="color(display-p3 0.8824 0.6863 0.0000)"><path d="M5.576 62.041c-1.905 0-2.9 1.06-2.9 2.729s1.005 2.742 3.044 2.742c.582 0 1.192-.082 2-.305v1.987c-.597.145-1.418.29-2.502.29-3.323 0-4.992-1.892-4.992-4.687 0-3.403 2.489-4.713 4.978-4.713.887 0 1.655.105 2.358.29v2.011c-.595-.184-1.245-.342-1.987-.342zm13.303 1.163c0-.689-.424-.9-1.166-.9h-1.087v1.921h1.047c.779 0 1.203-.329 1.203-1.018m.453 6.066l-1.642-3.1h-1.06v3.1h-2.315V60.31h3.415c2.463 0 3.494.94 3.494 2.7 0 .9-.542 1.763-1.416 2.329l2.171 3.934h-2.647zm8.802-8.967v8.963h5.984v-2.026h-3.652v-1.55h3.123V63.67h-3.123v-1.34h3.6v-2.024h-5.931zm16.187 2.237h.04l.926 3.137h-1.868l.9-3.137h.003zm-1.258-2.237l-2.926 8.966h2.329l.453-1.616h2.886l.463 1.616h2.437l-2.913-8.966H43.06zm10.378 0v2.024h2.5v6.939h2.344V62.33h2.489v-2.024h-7.333zm15.883 0h-2.318v8.966h2.318v-8.966zm12.456 0v4.647h-.026l-2.913-4.647H76.27v8.963h2.302v-5.018h.013l3.139 5.018h2.358v-8.963h-2.305zm14.083 1.722c-1.629 0-2.794.768-2.794 2.766 0 1.655.821 2.742 2.316 2.742a6.35 6.35 0 0 0 .953-.053v-3.179h2.318v4.489c-1.031.476-2.276.689-3.536.689-2.489 0-4.463-1.392-4.463-4.568s2.066-4.832 4.939-4.832c1.045 0 1.921.2 2.594.529v2.026a5.02 5.02 0 0 0-2.329-.608"/><use xlink:href="#B"/><path d="M130.392 69.48c-2.37 0-3.786-1.179-3.786-3.813v-5.363h2.305v5.6c0 1.137.637 1.616 1.563 1.616s1.534-.479 1.534-1.589v-5.626h2.305v5.403c0 2.437-1.484 3.774-3.918 3.774m15.801-7.441c-1.905 0-2.9 1.06-2.9 2.729s1.005 2.742 3.044 2.742c.582 0 1.192-.082 2-.305v1.987c-.597.145-1.418.29-2.502.29-3.323 0-4.992-1.892-4.992-4.687 0-3.403 2.49-4.713 4.979-4.713.886 0 1.655.105 2.357.29v2.011c-.594-.184-1.244-.342-1.986-.342zm13.724 0c-1.905 0-2.899 1.06-2.899 2.729s1.005 2.742 3.044 2.742c.582 0 1.192-.082 2-.305v1.987c-.597.145-1.418.29-2.502.29-3.324 0-4.992-1.892-4.992-4.687 0-3.403 2.489-4.713 4.978-4.713a9.18 9.18 0 0 1 2.358.29v2.011c-.595-.184-1.245-.342-1.987-.342zm8.736-1.734v8.963h5.986v-2.026h-3.654v-1.55h3.123V63.67h-3.123v-1.34h3.599v-2.024h-5.931zm18.095 2.249c-.702-.276-1.628-.529-2.328-.529-.584 0-1.021.184-1.021.66 0 1.403 3.786.782 3.786 3.866 0 2.105-1.694 2.926-3.507 2.926-.903 0-1.816-.197-2.568-.529v-2.118c.768.397 1.799.703 2.581.703.663 0 1.139-.213 1.139-.768 0-1.508-3.773-.821-3.773-3.905 0-2.066 1.616-2.782 3.336-2.782a7.13 7.13 0 0 1 2.358.411v2.066h-.003zm12.162 0c-.702-.276-1.629-.529-2.329-.529-.584 0-1.02.184-1.02.66 0 1.403 3.786.782 3.786 3.866 0 2.105-1.695 2.926-3.508 2.926-.902 0-1.815-.197-2.568-.529v-2.118c.769.397 1.8.703 2.582.703.663 0 1.139-.213 1.139-.768 0-1.508-3.773-.821-3.773-3.905 0-2.066 1.615-2.782 3.336-2.782a7.14 7.14 0 0 1 2.358.411v2.066h-.003z"/></g><g fill="#fff"><path d="M17.269 1.159v26.61h-.129L7.41 1.159H0v46.524h7.215V18.617h.129l10.18 29.066h6.96V1.159h-7.215zm31.06 15.529V13.08c0-3.932-1.802-5.61-3.865-5.61-3.223 0-4.255 1.679-4.255 5.153V36.21c0 3.481 1.031 5.158 4.255 5.158 2.9 0 3.865-1.679 3.865-4.705v-5.605h7.989v5.353c0 6.568-3.865 11.921-11.854 11.921-8.381 0-12.243-5.353-12.243-11.921V12.438C32.22 5.862 36.085.517 44.463.517s11.854 5.795 11.854 12.755v3.416h-7.989zm58.992-15.673l-3.212 12.189h-.053l-3.215-12.189h-4.963v18.571h3.034V4.972h.053l3.781 14.613h2.678L109.2 4.972h.053v14.613h3.034V1.015h-4.966zm20.022 0l-3.213 12.189h-.05l-3.221-12.189h-4.962v18.571h3.036V4.972h.053l3.778 14.613h2.676l3.781-14.613h.056v14.613h3.031V1.015h-4.965zm33.175 0v11.011h-.056l-4.936-11.011h-3.884v18.571h3.242V7.599h.053l5.425 11.987h3.395V1.015h-3.239zm10.398-.003h-3.552v18.574h3.552V1.012zm2.313 0v3.139h4.145v15.432h3.547V4.151h4.144V1.012h-11.836zm22.566.003l-3.007 7.482-3.116-7.482h-3.784l5.071 11.058v7.513h3.552v-7.513l5.065-11.058h-3.781zM70.297 14.083c0 2.058.897 2.621 2.318 2.621s2.313-.563 2.313-2.621v-1.237h3.55v.774c0 4.582-2.418 6.226-5.865 6.226s-5.868-1.647-5.868-6.226V6.983c0-4.576 2.418-6.224 5.868-6.224s5.865 1.65 5.865 6.224v.05h-3.55V6.52c0-2.061-.902-2.626-2.313-2.626s-2.318.566-2.318 2.626v7.563zM81.056 6.98c0-4.576 2.415-6.224 5.865-6.224s5.862 1.645 5.862 6.224v6.639c0 4.579-2.415 6.226-5.862 6.226s-5.865-1.647-5.865-6.226V6.98zm3.549 7.103c0 2.058.9 2.616 2.316 2.616s2.316-.558 2.316-2.616V6.517c0-2.058-.903-2.626-2.316-2.626s-2.315.568-2.315 2.626v7.566zM139.47 1.012v12.992c0 1.771.771 2.7 2.492 2.7s2.523-.929 2.523-2.7V1.012h3.547v13.016c0 4.092-2.418 5.816-6.073 5.816s-6.041-1.724-6.041-5.816V1.012h3.55.002zm-35.559 22.297v23.655h11.796v-3.997h-7.275V23.309h-4.521zm14.541 0v23.655h11.796v-3.997h-7.276V23.309h-4.52zm14.543 0v23.655h12.711v-3.997h-8.188v-6.218h5.991v-4.003h-5.991v-5.437h7.857v-4h-12.38zm34.582 0v23.655h12.715v-3.997h-8.191v-6.218h5.996v-4.003h-5.996v-5.437h7.862v-4h-12.386zM71.62 39.954c0 2.624 1.147 3.345 2.947 3.345s2.95-.721 2.95-3.345v-1.571h4.523v.982c0 5.834-3.084 7.929-7.473 7.929s-7.467-2.095-7.467-7.93v-8.455c0-5.829 3.078-7.929 7.468-7.929s7.473 2.1 7.473 7.929v.068h-4.523v-.655c0-2.624-1.15-3.342-2.95-3.342s-2.947.718-2.947 3.342v9.632zm13.691-9.039c0-5.834 3.079-7.929 7.468-7.929s7.468 2.095 7.468 7.929v8.45c0 5.834-3.076 7.929-7.468 7.929s-7.468-2.095-7.468-7.929v-8.45zm4.52 9.045c0 2.616 1.147 3.339 2.947 3.339s2.95-.724 2.95-3.339v-9.634c0-2.624-1.147-3.345-2.95-3.345s-2.947.721-2.947 3.345v9.634zm104.117-10.064c-.753-2.229-1.737-3.179-3.31-3.179s-2.489.982-2.489 2.59c0 3.566 10.091 3.834 10.091 11.237 0 4.066-2.787 6.75-7.534 6.75-3.668 0-6.523-2-7.728-6.65l4.455-.953c.518 2.853 2.16 3.868 3.499 3.868 1.577 0 2.79-1.047 2.79-2.816 0-4.455-10.091-4.524-10.091-11.142 0-4.058 2.426-6.616 7.107-6.616 4.028 0 6.483 2.392 7.273 5.734l-4.063 1.179v-.003zm-33.275 15.103c-1.21 1.376-2.523 2.295-4.223 2.295-4.392 0-7.473-2.097-7.473-7.929V30.91c0-5.829 3.079-7.926 7.473-7.926 4.615 0 7.107 2.655 7.267 8.026h-4.518c0-3.045-1.113-4.029-2.749-4.029-1.805 0-2.953.718-2.953 3.342v9.634c0 2.618 1.145 3.345 2.953 3.345 1.7 0 2.749-1.245 2.749-3.276v-1.442h-3.178v-3.737h7.696v12.121h-2.357l-.69-1.966.003-.003z"/></g><path d="M199.576 53.538H0v1.337h199.576v-1.337z" fill="color(display-p3 0.8824 0.6863 0.0000)"/></g><defs><clipPath id="A"><path fill="#fff" transform="translate(0 .517)" d="M0 0h200v68.966H0z" fill-opacity="1"/></clipPath><path id="B" d="M119.709 62.556c-.702-.276-1.628-.529-2.328-.529-.584 0-1.021.184-1.021.66 0 1.403 3.786.782 3.786 3.866 0 2.105-1.694 2.926-3.507 2.926-.903 0-1.816-.197-2.568-.529v-2.118c.768.397 1.799.703 2.581.703.663 0 1.139-.213 1.139-.768 0-1.508-3.773-.821-3.773-3.905 0-2.066 1.616-2.782 3.336-2.782.821 0 1.656.158 2.358.411v2.066h-.003z"/></defs></svg>