<svg viewBox="0 0 145 36" fill="none" xmlns="http://www.w3.org/2000/svg">
  <g clip-path="url(#clip0_1479_54755)">
    <path
      d="M12.52 0.965576V20.2581H12.4265L5.37199 0.965576H0V34.6951H5.23082V13.6225H5.3243L12.7051 34.6951H17.7508V0.965576H12.52Z"
      fill="#14435B" style="fill:#14435B;fill:color(display-p3 0.0784 0.2627 0.3569);fill-opacity:1;" />
    <path
      d="M35.0381 12.224V9.60825C35.0381 6.75787 33.7314 5.54064 32.2357 5.54064C29.8989 5.54064 29.1511 6.75787 29.1511 9.27628V26.3767C29.1511 28.9008 29.8989 30.1161 32.2357 30.1161C34.338 30.1161 35.0381 28.8989 35.0381 26.7048V22.641H40.8298V26.5217C40.8298 31.2838 38.0274 35.1644 32.2357 35.1644C26.1598 35.1644 23.3594 31.2838 23.3594 26.5217V9.14273C23.3594 4.37492 26.1617 0.5 32.2357 0.5C38.3098 0.5 40.8298 4.70117 40.8298 9.74753V12.224H35.0381Z"
      fill="#14435B" style="fill:#14435B;fill:color(display-p3 0.0784 0.2627 0.3569);fill-opacity:1;" />
    <path
      d="M77.8077 0.860596L75.4784 9.69793H75.4403L73.1091 0.860596H69.5112V14.3246H71.7108V3.73006H71.7489L74.4902 14.3246H76.4322L79.1698 3.73006H79.2079V14.3246H81.4074V0.860596H77.8077Z"
      fill="#14435B" style="fill:#14435B;fill:color(display-p3 0.0784 0.2627 0.3569);fill-opacity:1;" />
    <path
      d="M92.3233 0.860596L89.994 9.69793H89.9577L87.6228 0.860596H84.0249V14.3246H86.2264V3.73006H86.2645L89.0039 14.3246H90.944L93.6853 3.73006H93.7254V14.3246H95.923V0.860596H92.3233Z"
      fill="#14435B" style="fill:#14435B;fill:color(display-p3 0.0784 0.2627 0.3569);fill-opacity:1;" />
    <path
      d="M116.375 0.860596V8.8432H116.335L112.756 0.860596H109.94V14.3246H112.291V5.63413H112.329L116.262 14.3246H118.723V0.860596H116.375Z"
      fill="#14435B" style="fill:#14435B;fill:color(display-p3 0.0784 0.2627 0.3569);fill-opacity:1;" />
    <path d="M123.914 0.858643H121.339V14.3245H123.914V0.858643Z" fill="#14435B"
      style="fill:#14435B;fill:color(display-p3 0.0784 0.2627 0.3569);fill-opacity:1;" />
    <path d="M125.591 0.858643V3.13475H128.595V14.3226H131.167V3.13475H134.172V0.858643H125.591Z" fill="#14435B"
      style="fill:#14435B;fill:color(display-p3 0.0784 0.2627 0.3569);fill-opacity:1;" />
    <path
      d="M141.951 0.860596L139.77 6.28472L137.512 0.860596H134.769L138.445 8.87754V14.3246H141.02V8.87754L144.692 0.860596H141.951Z"
      fill="#14435B" style="fill:#14435B;fill:color(display-p3 0.0784 0.2627 0.3569);fill-opacity:1;" />
    <path
      d="M50.965 10.3352C50.965 11.8271 51.6155 12.2354 52.6457 12.2354C53.6758 12.2354 54.3225 11.8271 54.3225 10.3352V9.43846H56.8959V9.99938C56.8959 13.321 55.1428 14.5134 52.6437 14.5134C50.1447 14.5134 48.3896 13.3191 48.3896 9.99938V5.18769C48.3896 1.86987 50.1428 0.675537 52.6437 0.675537C55.1447 0.675537 56.8959 1.87178 56.8959 5.18769V5.22394H54.3225V4.8519C54.3225 3.35803 53.6682 2.94783 52.6457 2.94783C51.6231 2.94783 50.965 3.35803 50.965 4.8519V10.3352Z"
      fill="#14435B" style="fill:#14435B;fill:color(display-p3 0.0784 0.2627 0.3569);fill-opacity:1;" />
    <path
      d="M58.7656 5.18574C58.7656 1.86792 60.5169 0.673584 63.0178 0.673584C65.5188 0.673584 67.2681 1.86601 67.2681 5.18574V9.99934C67.2681 13.3191 65.5169 14.5134 63.0178 14.5134C60.5188 14.5134 58.7656 13.3191 58.7656 9.99934V5.18574ZM61.3391 10.3351C61.3391 11.8271 61.9915 12.2316 63.0178 12.2316C64.0441 12.2316 64.6966 11.8271 64.6966 10.3351V4.84995C64.6966 3.35798 64.0422 2.94588 63.0178 2.94588C61.9934 2.94588 61.3391 3.35798 61.3391 4.84995V10.3351Z"
      fill="#14435B" style="fill:#14435B;fill:color(display-p3 0.0784 0.2627 0.3569);fill-opacity:1;" />
    <path
      d="M101.115 0.858643V10.2779C101.115 11.5619 101.674 12.2354 102.922 12.2354C104.17 12.2354 104.751 11.5619 104.751 10.2779V0.858643H107.323V10.2951C107.323 13.2618 105.57 14.5115 102.92 14.5115C100.27 14.5115 98.54 13.2618 98.54 10.2951V0.858643H101.113H101.115Z"
      fill="#14435B" style="fill:#14435B;fill:color(display-p3 0.0784 0.2627 0.3569);fill-opacity:1;" />
    <path d="M75.3354 17.0242V34.1742H83.8875V31.2761H78.6128V17.0242H75.3354Z" fill="#14435B"
      style="fill:#14435B;fill:color(display-p3 0.0784 0.2627 0.3569);fill-opacity:1;" />
    <path d="M85.877 17.0242V34.1742H94.429V31.2761H89.1543V17.0242H85.877Z" fill="#14435B"
      style="fill:#14435B;fill:color(display-p3 0.0784 0.2627 0.3569);fill-opacity:1;" />
    <path
      d="M96.4209 17.0242V34.1742H105.637V31.2761H99.7002V26.7677H104.044V23.8659H99.7002V19.9242H105.396V17.0242H96.4209Z"
      fill="#14435B" style="fill:#14435B;fill:color(display-p3 0.0784 0.2627 0.3569);fill-opacity:1;" />
    <path
      d="M121.493 17.0242V34.1742H130.711V31.2761H124.772V26.7677H129.12V23.8659H124.772V19.9242H130.473V17.0242H121.493Z"
      fill="#14435B" style="fill:#14435B;fill:color(display-p3 0.0784 0.2627 0.3569);fill-opacity:1;" />
    <path
      d="M51.9243 29.0915C51.9243 30.9937 52.7561 31.5164 54.0609 31.5164C55.3658 31.5164 56.1994 30.9937 56.1994 29.0915V27.9525H59.4787V28.6641C59.4787 32.8939 57.2429 34.4126 54.0609 34.4126C50.8789 34.4126 48.647 32.8939 48.647 28.6641V22.5341C48.647 18.3081 50.8789 16.7856 54.0609 16.7856C57.2429 16.7856 59.4787 18.3081 59.4787 22.5341V22.5837H56.1994V22.1086C56.1994 20.2065 55.3658 19.6856 54.0609 19.6856C52.7561 19.6856 51.9243 20.2065 51.9243 22.1086V29.0915Z"
      fill="#14435B" style="fill:#14435B;fill:color(display-p3 0.0784 0.2627 0.3569);fill-opacity:1;" />
    <path
      d="M61.8501 22.538C61.8501 18.3082 64.0821 16.7896 67.2641 16.7896C70.446 16.7896 72.678 18.3082 72.678 22.538V28.6642C72.678 32.894 70.448 34.4127 67.2641 34.4127C64.0802 34.4127 61.8501 32.894 61.8501 28.6642V22.538ZM65.1275 29.0954C65.1275 30.9919 65.9592 31.5165 67.2641 31.5165C68.5689 31.5165 69.4026 30.9919 69.4026 29.0954V22.1106C69.4026 20.2085 68.5708 19.6857 67.2641 19.6857C65.9573 19.6857 65.1275 20.2085 65.1275 22.1106V29.0954Z"
      fill="#14435B" style="fill:#14435B;fill:color(display-p3 0.0784 0.2627 0.3569);fill-opacity:1;" />
    <path
      d="M140.612 21.7997C140.066 20.1837 139.353 19.4949 138.212 19.4949C137.071 19.4949 136.407 20.2066 136.407 21.3723C136.407 23.9575 143.723 24.1521 143.723 29.519C143.723 32.4667 141.703 34.4127 138.262 34.4127C135.602 34.4127 133.532 32.9627 132.659 29.5915L135.888 28.9008C136.264 30.969 137.455 31.7054 138.426 31.7054C139.568 31.7054 140.448 30.9461 140.448 29.664C140.448 26.4339 133.132 26.3843 133.132 21.586C133.132 18.644 134.891 16.7896 138.284 16.7896C141.205 16.7896 142.985 18.5238 143.557 20.9468L140.612 21.8016V21.7997Z"
      fill="#14435B" style="fill:#14435B;fill:color(display-p3 0.0784 0.2627 0.3569);fill-opacity:1;" />
    <path
      d="M116.487 32.749C115.61 33.7468 114.658 34.4127 113.426 34.4127C110.242 34.4127 108.008 32.8921 108.008 28.6642V22.5342C108.008 18.3082 110.24 16.7876 113.426 16.7876C116.772 16.7876 118.578 18.7127 118.695 22.6067H115.419C115.419 20.3992 114.612 19.6857 113.426 19.6857C112.117 19.6857 111.285 20.2065 111.285 22.1087V29.0935C111.285 30.9918 112.115 31.5184 113.426 31.5184C114.658 31.5184 115.419 30.616 115.419 29.1431V28.0976H113.115V25.3884H118.695V34.1761H116.985L116.485 32.7509L116.487 32.749Z"
      fill="#14435B" style="fill:#14435B;fill:color(display-p3 0.0784 0.2627 0.3569);fill-opacity:1;" />
  </g>
  <defs>
    <clipPath id="clip0_1479_54755">
      <rect width="145" height="35" fill="white" style="fill:white;fill:white;fill-opacity:1;"
        transform="translate(0 0.5)" />
    </clipPath>
  </defs>
</svg>