<svg fill="none" viewBox="0 0 27 21" xmlns="http://www.w3.org/2000/svg">
  <path
    d="m7.82591.463998c-4.34 3.100002-7.067996 7.502002-7.067996 12.586002 0 4.526 2.975996 7.192 6.323996 7.192 3.09999 0 5.70399-2.604 5.70399-5.766 0-3.038-2.17-5.084-4.77399-5.084-.62 0-1.178.124-1.426.186.62-2.232 3.224-4.898 5.20799-5.89zm13.94999 0c-4.34 3.100002-7.068 7.502002-7.068 12.586002 0 4.526 3.038 7.192 6.386 7.192 3.038 0 5.642-2.604 5.642-5.766 0-3.038-2.108-5.084-4.774-5.084-.62 0-1.178.124-1.426.186.682-2.232 3.224-4.898 5.208-5.89z"
    fill="currentColor" />
</svg>