<svg width="30" height="25" viewBox="0 0 30 25" fill="none" xmlns="http://www.w3.org/2000/svg">
<path d="M28.7046 0.602325L29.7606 2.09833C27.2966 4.38632 23.2486 8.08232 23.2486 11.2503C23.2486 12.6583 24.0406 13.0983 25.2726 13.7143C27.5606 14.7703 29.0566 16.3543 29.0566 19.1703C29.0566 22.2503 26.5926 24.6263 23.6006 24.6263C19.1126 24.6263 17.0886 20.3143 17.0886 16.3543C17.0886 9.49033 23.4246 3.94632 28.7046 0.602325ZM12.6006 0.602325L13.6566 2.09833C11.1926 4.38632 7.14463 8.08232 7.14463 11.2503C7.14463 12.6583 7.93663 13.0983 9.08063 13.7143C11.4566 14.7703 12.9526 16.3543 12.9526 19.1703C12.9526 22.2503 10.4886 24.6263 7.49663 24.6263C3.00863 24.6263 0.984625 20.3143 0.984625 16.3543C0.984625 9.49033 7.23263 3.94632 12.6006 0.602325Z" fill="#E1AF00"/>
</svg>
