<svg fill="none" height="9" viewBox="0 0 48 9" width="48" xmlns="http://www.w3.org/2000/svg"><path d="m2.13.8 1.8 4.81c.04667.11333.08667.24333.12.39.04.14667.07667.28667.11.42.03333.16.06667.32.1.48h.1s-.00667-.04333-.02-.13c-.00667-.08667-.02-.2-.04-.34-.01333-.14-.02667-.29667-.04-.47s-.02-.34667-.02-.52v-4.64h1v7.2h-1.36l-1.78-4.82c-.05333-.13333-.1-.27333-.14-.42-.04-.15333-.07667-.29667-.11-.43-.03333-.14667-.06333-.29333-.09-.44h-.1c.02.14.03667.28667.05.44.01333.13333.02333.28667.03.46.01333.17333.02.35667.02.55v4.66h-1v-7.2zm4.55609 3.73c0-.32667.05334-.62.16-.88.10667-.26667.26-.49.46-.67.2-.18667.44334-.33.73-.43.28667-.1.60667-.15.96-.15.35334 0 .67.05.95.15.28671.1.53001.24333.73001.43.2.18.3533.40333.46.67.1067.26.16.55333.16.88v1.01h-3.52001v.39c0 .39333.10667.7.32.92.22.22.52.33.9.33.28 0 .52334-.04333.73-.13.20667-.08667.35671-.21667.45001-.39h1.08c-.06.22-.1567.42-.29.6-.1333.17333-.3.32333-.5.45-.1933.12667-.4167.22333-.67001.29-.24666.06667-.51333.1-.8.1-.35333 0-.67333-.05-.96-.15-.28-.1-.52-.24333-.72-.43s-.35666-.41-.47-.67c-.10666-.26667-.16-.56333-.16-.89zm1.09.21h2.44001v-.21c0-.38-.1067-.67667-.32001-.89-.21333-.21333-.51333-.32-.9-.32-.38666 0-.68666.10667-.9.32-.21333.21333-.32.51-.32.89zm6.58611.43-1.86-2.67h1.28l1.02 1.55c.06.08.1033.16333.13.25.02.04.0333.07667.04.11h.05c.0067-.03333.02-.07.04-.11.02-.06667.0633-.15.13-.25l1.03-1.55h1.26l-1.85 2.66 1.97 2.84h-1.28l-1.11-1.69c-.0333-.04667-.0633-.09333-.09-.14-.02-.04667-.0367-.08667-.05-.12-.02-.04-.0367-.08-.05-.12h-.06c-.0133.04-.03.08333-.05.13-.0133.03333-.03.07333-.05.12-.02.04-.0467.08333-.08.13l-1.13 1.69h-1.27zm4.1461-2.67h1.55v-1.7h1.1v1.7h2.11v.99h-2.11v2.93c0 .18.0533.32333.16.43.1066.1.2566.15.45.15h1.4v1h-1.45c-.5134 0-.92-.14333-1.22-.43-.2934-.28667-.44-.67-.44-1.15v-2.93h-1.55zm5.6761-1.7h.98l.43 5.1c.0133.13333.0233.28333.03.45.0066.16.01.31.01.45.0066.16667.01.33333.01.5h.13c.0066-.16667.0133-.33333.02-.5.0133-.14.0266-.29.04-.45.0133-.16667.0266-.31667.04-.45l.64-5.1h.96l.62 5.1c.0133.13333.0266.28.04.44.0133.16.0233.31333.03.46.0133.16667.0233.33333.03.5h.14c.0066-.16667.0133-.33333.02-.5.0066-.14.0133-.29.02-.45.0066-.16667.0166-.31667.03-.45l.42-5.1h.96l-.73 7.2h-1.37l-.56-5.11c-.02-.17333-.0334-.34-.04-.5-.0067-.16667-.01-.31667-.01-.45-.0067-.16-.0067-.31 0-.45h-.16v.45c0 .13333-.0034.28333-.01.45-.0067.16-.02.32667-.04.5l-.61 5.11h-1.36zm8.7961 7.3c-.3534 0-.6734-.05-.96-.15-.28-.10667-.52-.25333-.72-.44-.2-.19333-.3567-.42333-.47-.69-.1067-.26667-.16-.56333-.16-.89v-1.37c0-.32667.0533-.62333.16-.89.1133-.26667.27-.49333.47-.68.2-.19333.44-.34.72-.44.2866-.10667.6066-.16.96-.16.3533 0 .67.05.95.15.2866.1.53.24667.73.44.2.18667.3533.41333.46.68.1133.26.17.55667.17.89v1.38c0 .32667-.0534.62667-.16.9-.1067.26667-.26.49333-.46.68s-.4434.33333-.73.44c-.2867.1-.6067.15-.96.15zm-1.21-2.17c0 .37333.1066.66667.32.88.2133.21333.51.32.89.32.3733 0 .6666-.10667.88-.32.22-.21333.33-.50667.33-.88v-1.37c0-.37333-.11-.66667-.33-.88-.2134-.21333-.5067-.32-.88-.32-.3734 0-.67.10667-.89.32-.2134.21333-.32.50667-.32.88zm6.2661-3.43v.95h.09c.0733-.33333.2433-.59.51-.77.2733-.18667.6133-.28 1.02-.28.5866 0 1.0466.18333 1.38.55.3333.36.5.86333.5 1.51v.36h-1.13v-.25c0-.38667-.1034-.68667-.31-.9-.2067-.22-.49-.33-.85-.33-.3534 0-.6334.11-.84.33-.2067.22-.31.52-.31.9v3.43h-1.1v-5.5zm4.6261 2.05c0-.33333.0433-.63.13-.89.0933-.26667.22-.49333.38-.68.1666-.18667.3666-.33.6-.43.2333-.1.49-.15.77-.15.4 0 .73.09333.99.28.2666.18.4366.43667.51.77h.09c-.0067-.11333-.0134-.22667-.02-.34-.0134-.1-.0234-.20333-.03-.31 0-.11333 0-.21333 0-.3v-1.7h1.09v7.2h-1.04v-.95h-.09c-.0734.33333-.2434.59333-.51.78-.26.18-.59.27-.99.27-.28 0-.5367-.05-.77-.15-.2334-.1-.4334-.24333-.6-.43-.16-.18667-.2867-.41333-.38-.68-.0867-.27333-.13-.57667-.13-.91zm1.1.02v1.35c0 .37333.1033.67.31.89.2133.22.5033.33.87.33.3466 0 .6233-.11.83-.33.2066-.22.31-.51333.31-.88v-1.36c0-.37333-.1067-.67-.32-.89-.2067-.22-.48-.33-.82-.33-.3667 0-.6567.11-.87.33-.2067.21333-.31.51-.31.89z" fill="#fff"/></svg>