<svg width="17" height="23" viewBox="0 0 17 23" fill="none" xmlns="http://www.w3.org/2000/svg">
  <path
    d="M8.41882 0.441406C4.10583 0.441406 0.606323 3.59131 0.606323 7.47266C0.606323 13.7227 8.41882 22.3164 8.41882 22.3164C8.41882 22.3164 16.2313 13.7227 16.2313 7.47266C16.2313 3.59131 12.7318 0.441406 8.41882 0.441406ZM8.41882 11.3789C7.80076 11.3789 7.19657 11.1956 6.68267 10.8522C6.16876 10.5089 5.76822 10.0208 5.5317 9.44979C5.29518 8.87877 5.23329 8.25044 5.35387 7.64425C5.47445 7.03806 5.77208 6.48124 6.20912 6.0442C6.64615 5.60716 7.20298 5.30953 7.80917 5.18895C8.41536 5.06837 9.04369 5.13026 9.61471 5.36678C10.1857 5.60331 10.6738 6.00385 11.0172 6.51775C11.3605 7.03165 11.5438 7.63584 11.5438 8.25391C11.5429 9.08243 11.2134 9.87676 10.6275 10.4626C10.0417 11.0485 9.24735 11.378 8.41882 11.3789Z"
    fill="#14435B" style="fill:#14435B;fill:color(display-p3 0.0784 0.2627 0.3569);fill-opacity:1;" />
</svg>