<svg fill="none" height="17" viewBox="0 0 18 17" width="18" xmlns="http://www.w3.org/2000/svg"><g fill="#888"><path d="m4.07254 7.01612-2.058 2.058c-.84398.84399-1.318129 1.98868-1.318129 3.18228 0 1.1935.474149 2.3382 1.318129 3.1822.84399.844 1.98868 1.3182 3.18225 1.3182 1.19358 0 2.33827-.4742 3.18225-1.3182l2.74196-2.7435c.509-.509.8884-1.1327 1.1064-1.8187.2181-.6859.2684-1.41423.1467-2.12367-.1217-.70945-.4118-1.37936-.8459-1.9535-.4342-.57414-.9997-1.03576-1.64916-1.34611l-.879.879c-.08924.0894-.16685.18969-.231.2985.50179.14426.95725.41697 1.32136.79119.3641.37422.6242.83698.7546 1.34254.1305.50555.1267 1.0364-.0109 1.54005-.1375.5037-.4042.9627-.7736 1.3317l-2.74046 2.742c-.56292.5629-1.32641.8792-2.1225.8792s-1.55958-.3163-2.1225-.8792-.87917-1.3264-.87917-2.1225.31625-1.5596.87917-2.1225l1.1895-1.18798c-.16783-.6289-.23266-1.27935-.192-1.929z"/><path d="m6.87907 4.20857c-.50894.50901-.88835 1.13269-1.10638 1.81868-.21804.68599-.26833 1.41427-.14666 2.12372.12167.70944.41175 1.37935.8459 1.95353.43414.5741.99968 1.0357 1.64914 1.3461l1.1625-1.164c-.50858-.1364-.97229-.40432-1.34454-.77673-.37226-.37241-.63994-.83623-.77614-1.34487-.1362-.50863-.13613-1.04416.0002-1.55276.13634-.5086.40413-.97236.77648-1.34467l2.74053-2.742c.5629-.56292 1.3264-.87917 2.1225-.87917s1.5596.31625 2.1225.87917.8791 1.32641.8791 2.1225-.3162 1.55958-.8791 2.1225l-1.1895 1.188c.168.63.2325 1.2825.192 1.9305l2.058-2.058c.844-.84399 1.3181-1.98868 1.3181-3.18225 0-1.19358-.4741-2.33827-1.3181-3.18225-.844-.843986-1.9887-1.318132-3.1823-1.318132s-2.3382.474146-3.18223 1.318132z"/></g></svg>