<svg width="20" height="21" viewBox="0 0 20 21" fill="none" xmlns="http://www.w3.org/2000/svg">
  <path
    d="M17.3504 1.5H2.74531C1.94727 1.5 1.25 2.07422 1.25 2.86289V17.5004C1.25 18.2934 1.94727 19 2.74531 19H17.3461C18.1484 19 18.75 18.2887 18.75 17.5004V2.86289C18.7547 2.07422 18.1484 1.5 17.3504 1.5ZM6.67461 16.0871H4.16758V8.29219H6.67461V16.0871ZM5.50781 7.10703H5.48984C4.6875 7.10703 4.16797 6.50977 4.16797 5.76211C4.16797 5.00078 4.70117 4.41758 5.52148 4.41758C6.3418 4.41758 6.84375 4.99648 6.86172 5.76211C6.86133 6.50977 6.3418 7.10703 5.50781 7.10703ZM15.8371 16.0871H13.3301V11.825C13.3301 10.8039 12.9652 10.1063 12.0582 10.1063C11.3652 10.1063 10.9551 10.575 10.7727 11.0316C10.7043 11.1957 10.6859 11.4191 10.6859 11.6473V16.0871H8.17891V8.29219H10.6859V9.37695C11.0508 8.85742 11.6207 8.10977 12.9469 8.10977C14.5926 8.10977 15.8375 9.19453 15.8375 11.5332L15.8371 16.0871Z"
    fill="currentColor" />
</svg>