<svg width="20" height="21" viewBox="0 0 20 21" fill="none" xmlns="http://www.w3.org/2000/svg">
  <g clip-path="url(#clip0_1674_50945)">
    <path
      d="M19.8687 6.06211C19.8687 4.3043 18.5758 2.89023 16.9781 2.89023C14.8141 2.78906 12.607 2.75 10.3516 2.75H9.64843C7.39843 2.75 5.18749 2.78906 3.02343 2.89062C1.42968 2.89062 0.136712 4.3125 0.136712 6.07031C0.0390559 7.46055 -0.00235035 8.85117 -6.59841e-06 10.2418C-0.00391285 11.6324 0.040358 13.0243 0.132806 14.4176C0.132806 16.1754 1.42577 17.6012 3.01953 17.6012C5.29296 17.7066 7.62499 17.7535 9.99609 17.7496C12.3711 17.7574 14.6966 17.7079 16.9727 17.6012C18.5703 17.6012 19.8633 16.1754 19.8633 14.4176C19.957 13.023 20 11.6324 19.9961 10.2379C20.0049 8.84727 19.9625 7.45534 19.8687 6.06211ZM8.08593 14.0738V6.39805L13.75 10.234L8.08593 14.0738Z"
      fill="currentColor" />
  </g>
  <defs>
    <clipPath id="clip0_1674_50945">
      <rect width="20" height="20" fill="white" transform="translate(0 0.25)" />
    </clipPath>
  </defs>
</svg>