<svg width="20" height="21" viewBox="0 0 20 21" fill="none" xmlns="http://www.w3.org/2000/svg">
  <path
    d="M19.375 4.52735C18.6717 4.83296 17.9275 5.0343 17.166 5.12501C17.9663 4.6564 18.5681 3.91195 18.8586 3.03126C18.102 3.47368 17.2756 3.7841 16.4148 3.94923C16.0524 3.56935 15.6165 3.26716 15.1336 3.061C14.6507 2.85484 14.1309 2.74904 13.6059 2.75001C11.4801 2.75001 9.75977 4.44532 9.75977 6.53516C9.75826 6.82585 9.79157 7.11568 9.85898 7.39844C8.33464 7.32698 6.842 6.93813 5.47656 6.25675C4.11111 5.57537 2.90292 4.61648 1.9293 3.44141C1.58772 4.01724 1.40708 4.67424 1.40625 5.34376C1.40625 6.65626 2.09102 7.81641 3.125 8.4961C2.51239 8.48156 1.91234 8.31942 1.37578 8.02344V8.07032C1.37578 9.90626 2.70391 11.4336 4.46172 11.7813C4.13117 11.8694 3.79053 11.914 3.44844 11.9141C3.20569 11.9145 2.9635 11.8909 2.72539 11.8438C3.21406 13.3477 4.63633 14.4414 6.32109 14.4727C4.9521 15.5277 3.27134 16.098 1.54297 16.0938C1.23618 16.0933 0.929674 16.075 0.625 16.0391C2.38327 17.1618 4.42713 17.7557 6.51328 17.75C13.5977 17.75 17.468 11.9805 17.468 6.97657C17.468 6.81251 17.4637 6.64844 17.4559 6.48829C18.2071 5.95394 18.857 5.28989 19.375 4.52735Z"
    fill="currentColor" />
</svg>