<svg width="20" height="21" viewBox="0 0 20 21" fill="none" xmlns="http://www.w3.org/2000/svg">
  <path
    d="M13.6457 2.9582C14.6118 2.96109 15.5375 3.34616 16.2207 4.02931C16.9038 4.71246 17.2889 5.63818 17.2918 6.6043V13.8957C17.2889 14.8618 16.9038 15.7875 16.2207 16.4707C15.5375 17.1538 14.6118 17.5389 13.6457 17.5418H6.3543C5.38818 17.5389 4.46246 17.1538 3.77931 16.4707C3.09616 15.7875 2.71109 14.8618 2.7082 13.8957V6.6043C2.71109 5.63818 3.09616 4.71246 3.77931 4.02931C4.46246 3.34616 5.38818 2.96109 6.3543 2.9582H13.6457ZM13.6457 1.5H6.3543C3.54687 1.5 1.25 3.79687 1.25 6.6043V13.8957C1.25 16.7031 3.54687 19 6.3543 19H13.6457C16.4531 19 18.75 16.7031 18.75 13.8957V6.6043C18.75 3.79687 16.4531 1.5 13.6457 1.5Z"
    fill="currentColor" />
  <path
    d="M14.7395 6.60449C14.5231 6.60449 14.3117 6.54035 14.1318 6.42016C13.9519 6.29998 13.8117 6.12916 13.729 5.9293C13.6462 5.72945 13.6245 5.50953 13.6667 5.29736C13.7089 5.0852 13.8131 4.89031 13.9661 4.73734C14.119 4.58438 14.3139 4.48021 14.5261 4.43801C14.7382 4.39581 14.9582 4.41747 15.158 4.50025C15.3579 4.58303 15.5287 4.72322 15.6489 4.90309C15.7691 5.08295 15.8332 5.29442 15.8332 5.51074C15.8335 5.65446 15.8054 5.79683 15.7506 5.92967C15.6957 6.06251 15.6152 6.1832 15.5135 6.28483C15.4119 6.38646 15.2912 6.46701 15.1584 6.52186C15.0255 6.57672 14.8832 6.6048 14.7395 6.60449ZM10 7.3334C10.5769 7.3334 11.1408 7.50447 11.6205 7.82497C12.1002 8.14547 12.474 8.60101 12.6948 9.13399C12.9155 9.66696 12.9733 10.2534 12.8608 10.8192C12.7482 11.385 12.4704 11.9048 12.0625 12.3127C11.6546 12.7206 11.1348 12.9984 10.569 13.1109C10.0032 13.2235 9.41677 13.1657 8.88379 12.945C8.35082 12.7242 7.89528 12.3503 7.57477 11.8707C7.25427 11.391 7.0832 10.8271 7.0832 10.2502C7.08403 9.47687 7.3916 8.73545 7.93843 8.18862C8.48525 7.6418 9.22667 7.33423 10 7.3334ZM10 5.8752C9.13471 5.8752 8.28885 6.13178 7.56938 6.61252C6.84992 7.09325 6.28916 7.77653 5.95803 8.57596C5.6269 9.37538 5.54026 10.255 5.70907 11.1037C5.87788 11.9524 6.29456 12.7319 6.90641 13.3438C7.51826 13.9556 8.29781 14.3723 9.14648 14.5411C9.99515 14.7099 10.8748 14.6233 11.6742 14.2922C12.4737 13.961 13.157 13.4003 13.6377 12.6808C14.1184 11.9614 14.375 11.1155 14.375 10.2502C14.375 9.08987 13.9141 7.97708 13.0936 7.1566C12.2731 6.33613 11.1603 5.8752 10 5.8752Z"
    fill="currentColor" />
</svg>