<svg fill="none" height="24" viewBox="0 0 24 24" width="24" xmlns="http://www.w3.org/2000/svg"><path d="m0 1.719c0-.9495.789-1.719 1.7625-1.719h20.475c.9735 0 1.7625.7695 1.7625 1.719v20.562c0 .9495-.789 1.719-1.7625 1.719h-20.475c-.9735 0-1.7625-.7695-1.7625-1.719zm7.4145 18.372v-10.8375h-3.6015v10.8375zm-1.8-12.318c1.2555 0 2.037-.831 2.037-1.872-.0225-1.0635-.78-1.872-2.013-1.872s-2.0385.81-2.0385 1.872c0 1.041.7815 1.872 1.9905 1.872zm7.362 12.318v-6.0525c0-.324.024-.648.12-.879.2595-.6465.852-1.317 1.848-1.317 1.3035 0 1.824.993 1.824 2.451v5.7975h3.6015v-6.216c0-3.33-1.776-4.878-4.146-4.878-1.911 0-2.7675 1.05-3.2475 1.7895v.0375h-.024c.008-.0125.016-.025.024-.0375v-1.533h-3.6c.045 1.017 0 10.8375 0 10.8375z" fill="#888"/></svg>