<svg fill="none" height="25" viewBox="0 0 24 25" width="24" xmlns="http://www.w3.org/2000/svg"><path d="m0 1.92213c0-.949505.789-1.719005 1.7625-1.719005h20.475c.9735 0 1.7625.7695 1.7625 1.719005v20.56197c0 .9495-.789 1.719-1.7625 1.719h-20.475c-.9735 0-1.7625-.7695-1.7625-1.719zm7.4145 18.37197v-10.83748h-3.6015v10.83748zm-1.8-12.31797c1.2555 0 2.037-.83101 2.037-1.872-.0225-1.0635-.78-1.872-2.013-1.872s-2.0385.81-2.0385 1.872c0 1.04099.7815 1.872 1.9905 1.872zm7.362 12.31797v-6.0525c0-.324.024-.648.12-.879.2595-.6465.852-1.317 1.848-1.317 1.3035 0 1.824.993 1.824 2.451v5.7975h3.6015v-6.216c0-3.33-1.776-4.87798-4.146-4.87798-1.911 0-2.7675 1.04998-3.2475 1.78948v.0375h-.024c.008-.0125.016-.025.024-.0375v-1.53298h-3.6c.045 1.01698 0 10.83748 0 10.83748z" fill="#888"/></svg>