<svg viewBox="0 0 22 23" fill="none" xmlns="http://www.w3.org/2000/svg">
  <g id="ion:location-sharp">
    <path id="Vector"
      d="M11 1.875C7.20457 1.875 4.125 4.64691 4.125 8.0625C4.125 13.5625 11 21.125 11 21.125C11 21.125 17.875 13.5625 17.875 8.0625C17.875 4.64691 14.7954 1.875 11 1.875ZM11 11.5C10.4561 11.5 9.92442 11.3387 9.47218 11.0365C9.01995 10.7344 8.66747 10.3049 8.45933 9.80238C8.25119 9.29988 8.19673 8.74695 8.30284 8.2135C8.40895 7.68005 8.67086 7.19005 9.05546 6.80546C9.44005 6.42086 9.93005 6.15895 10.4635 6.05284C10.9969 5.94673 11.5499 6.00119 12.0524 6.20933C12.5549 6.41747 12.9844 6.76995 13.2865 7.22218C13.5887 7.67442 13.75 8.2061 13.75 8.75C13.7492 9.4791 13.4592 10.1781 12.9437 10.6937C12.4281 11.2092 11.7291 11.4992 11 11.5Z"
      fill="currentColor" />
  </g>
</svg>