<svg xmlns="http://www.w3.org/2000/svg" viewBox="0 0 500 15" fill="currentColor" xmlns:v="https://vecta.io/nano">
  <path
    d="M444.997 5.733c-.312-.113-.688-.099-1.042.024-.423.142-.75.17-.565-.131 0 0-.318-.059-.388-.04-1.021.308-2.006.109-2.926-.055-.686-.119-1.26-.5-1.941-.012a.78.78 0 0 1-.27-.025c-.332-.249-.988-.172-1.492-.241-.706-.099-.701.022-.347.217-.239.01-.534.059-.718.029l-2.084-.446c-.696-.187-1.353-.265-2.059-.034-.265.09-.383.082-.609-.044-.564-.313-1.586.014-2.26-.226-.066-.021-.455.114-.699.171-.088.019-.206.01-.309.015.041-.553-.867-.176-1.244-.162-.325.015-.48.026-.587-.091-.197-.233-.559-.198-1.042-.139a8.21 8.21 0 0 1-1.793.031c-1.484-.146-1.504-.126-2.838.089-.034-.001.034.001.102.002-.055.04-.111.086-.199.112-.018.006-.15-.03-.233-.051.087-.026.158-.051.348-.075.006-.054-.049-.177-.135-.178-.51-.008-1.039-.004-1.554.035-.172.017-.389.136-.432.223-.147.261-.318.265-.653.043-.126-.09-.304-.187-.538-.232a2.75 2.75 0 0 0-.781-.026c-.969.14-1.808.18-2.445.082-.034-.001.033.001.101.008-.055.04-.111.086-.199.112-.018.006-.151-.029-.234-.051.088-.026.159-.051.349-.075a2.28 2.28 0 0 0-.631-.321c-.181-.057-.451-.089-.69-.086-.085-.001-.184.132-.209.213-.025.074-.017.162.078.231.22.173-.092.221-.305.144-1.383-.462-3.183-.37-4.745-.585-.135-.016-.27-.025-.407-.02-1.318.059-1.355.079-1.879-.119-.329-.12-.535-.103-.899-.049l-1.913.205c-.706.07-1.655.027-2.932-.15-.051-.001-.08-.049-.112-.069-1.345.471-3.146-.227-4.477.271-1.408-.219-2.825.292-4.191-.008-.634-.139-1.497.293-1.945-.147l-1.183.231c-.139.025-.3.103-.367.089-1.088-.194-1.071-.187-1.874-.173a12.25 12.25 0 0 1-1.221-.054l-2.701-.254c-.718-.133-1.526.09-2.215-.158-.23-.085-.892.046-1.35.032-.426-.007-.827-.081-1.183.068-.193-.111-.368-.236-.596-.334a1.55 1.55 0 0 0-.519-.09c-.532.194-1.097.063-1.603.007-.488-.055-.802.014-1.17.109-.158.045-.506.107-.538.093-1.039-.497-2.261.105-3.347-.102-1.337.235-2.667.078-4.021-.005-1.219-.081-2.363-.39-3.68-.182-.487-.231-1.019-.361-1.724-.13-.433-.264-1.183.231-1.592-.1-.744.109-1.442.267-2.295.111-.385-.067-.826-.088-1.25-.108-.254-.011-.544-.009-.788.034-1.094.198-1.384.207-2.912-.021-.416.23-1.068-.213-1.474.084-.038.033-.329.055-.378.034-.606-.24-1.351-.286-2.093-.203-.551.059-.88-.379-1.509-.065-.504.255-1.31-.028-1.745.059-.766.156-1.36-.036-2.026-.02l-1.939.124c-.666.016-1.361-.022-2.022-.053-.187-.003-.414-.122-.552-.104-.554.086-.471-.379-1.123-.181-.687.212-.657-.241-1.17-.222l-2.172.079c-.068-.001-.102.154-.165.274-.002.013.001-.013.004-.04.1.022.217.044.281.079.017.007-.074.06-.129.093-.064-.035-.129-.063-.19-.138-.92-.326-.888-.305-1.832-.077l-2.575.505c-.121.018-.439-.041-.518-.103-.349-.249-1.064-.254-1.494-.22-1.372.086-2.618-.056-3.864-.199-.994-.111-.038.358-.679.3l-1.672-.149-1.874-.173c-.504-.062-1.091.165-1.59-.114-.129-.07-.986.139-1.518.016-.926.384-1.96.164-2.958.087-.862-.068-1.704-.163-2.307.226-.072.039-.721-.113-1.152-.066-.099-.522-.415-.433-1.064-.092-.127.072-.96-.11-1.375-.05-.692.097-.797-.371-1.582-.195-.401.088-1.056-.004-1.585.001l-1.792.025c-.341.001-.682.002-1.004-.016-1.133-.086-2.255-.274-3.408-.002-.821.196-1.319-.258-2.146-.177-.706.07-1.448.159-2.201.025-.218-.037-.252-.362-.636-.112-.237.152-.362.204-.766.156l-1.047-.092c-.679-.031-1.096.374-1.928.178l-1.823-.327c-.151-.023-.416.068-.733.164.136.002.242-.037.31-.029.185.017.352.053.52.083-.038.033-.113.1-.13.099-.219-.024-.438-.054-.7-.153-.624-.058-1.485.023-2.051-.101a2.75 2.75 0 0 0-1.328-.015c-.435.081-1.057.003-1.585-.006-.004.04-.029.114.005.115.352.06.929.083.177.266-.49.12-.74.069-1.012-.104-.175-.118-.212-.247-.868-.17-.777.095-1.673-.136-2.605-.022-.725.089-1.133-.248-1.717-.373l-.631-.159c-.914.438-1.754-.171-2.501-.041-1.057.172-1.902-.058-2.853-.094-.61-.03-1.163-.12-1.796.065-.616.186-1.252.074-1.842-.152-.328-.127-.956-.313-1.269.074-.02.033-.651.037-.666.016-.288-.343-.771.035-1.187-.06-.732-.167-.71.11-.882.283-.151.146-.814.129-.752.028.23-.415-.823-.284-1.129-.451-.081-.042-.366-.087-.402-.067-.763.292-1.579.102-2.393.062l-2.618-.063-2.62-.043c-.48.033-.913.093-1.383.031-.404-.054-.538.093-.782.136-.625.111-1.373.099-2.076.135l-1.368.052c-.6.031-1.127.015-1.749-.069-.554-.077-1.437.058-2.091.121-.757.069-1.381.004-2.023-.053-.844-.081-1.344.14-1.855.301-.564.18-.916.127-1.307-.048-.44-.19-.864-.379-1.523-.106-.499.208-1.17-.06-1.57.022-1.027.206-2.105.087-3.137.172l-.377.021c-.464-.285-1.164-.114-1.738-.164-1.738-.164-3.291.014-4.929.196-.914.1-1.991-.026-2.931.161a.8.8 0 0 1-.369-.053c-.25-.22-.724-.248-1.222-.216-.583.038-1.315.026-1.704.161-1.451.517-3.132.293-4.696.254-.765-.019-1.467.01-2.187.052-.583.031-.736.191-.557.437.075.096.047.21.018.318-.005.047-.129.093-.185.139-.083-.022-.2-.037-.265-.072-.161-.09-.266-.227-.483-.272-.283-.059-.892-.103-.947-.07-.61.456-.977.214-1.392-.057-.063-.042-.267-.052-.417-.081-.04.053-.148.112-.118.153.147.225.639.565.425.656-.501.228-.247.415-.201.625-.004.034.198.057.758.087.254.011.098.042-.054.026-.135-.009-.349-.087-.331-.1.094-.08.237-.145.364-.217.144.09.288.18.021.291-.927.228-.057.546-.814.777-.106.032.995.097.598.307-.486.249-.501.397.237.511.519.083.181.226.202.348l.314 1.235c.046.21 1.038.179.723.424-.277.205.114.374-.06.573-.173.186.445.142.992.131.173-.024.048.028-.077.08-.047-.035-.162-.077-.144-.09.111-.079.237-.145.364-.217.029.048.075.096-.143.227-.247.239-.834.48-.229.564.369.053 1.104.363 1.524-.076.115-.113.7.153 1.106.018l-.032.31c.272.004.608.051.784-.001.385-.095.645-.3 1.024-.341.276-.029.667.139 1.017.213.35.08 4.396.173 4.795.106.261-.043.489-.114.734-.17.699-.171 1.339-.417 2.28-.287.044-.101 1.342-.127.117-.309-.05-.008-.131-.049-.113-.063.038-.04.13-.099.198-.098.204.003.476.008.607.057.574.219 1.153.391 1.959.174.07-.019.253.024.37.053.682.16 2.173.407 2.281.348.781-.46 1.944-.178 2.888-.236 1.047-.071 2.156.076 3.246.08.852.007.003-.182.11-.235.18-.085.457-.128.702-.191.65.463 2.182-.167 2.792.357l1.853-.118c.811-.095 1.604-.183 2.823-.109.711.045 1.333-.032 1.971-.103.897-.107.985-.133 2.328-.104.102.002.236.031.289.005.759-.244 1.509-.246 2.249.01.082.028.23.078.266.065 1.418-.362 2.909.048 4.372-.084l4.081-.244c.85-.141 1.259.352 1.919.065l1.983.269c.495-.499 1.299-.04 1.919-.097 1.205-.115 2.314.038 3.463.131.085.001.209-.044.297-.069-.099-.035-.197-.078-.314-.1-.25-.045-.557-.05-.167-.192.213-.078.803-.183 1.175-.15.387.04.818.162 1.112.12.467-.067.762-.116 1.049.078.031.021.323.005.445-.02.489-.114.951-.295 1.359.036 0 0 .292-.015.294-.036.052-.175.284-.272.683-.178.15.036.045.224.193.273.247.085.73.188.888.15.629-.152 1-.119 1.367.124.08.049.418.074.608.057 1.272-.108 2.462.081 3.683.142.407.02.914-.1 1.299-.202.632-.172.797-.122.716.16-.002.027.23.092.299.079 1.468-.185 3.099.193 4.537-.203.228-.064.711.045.973-.011.453-.094.848.528 1.243.007.133.036.301.059.398.108.26.119.34.337.909.272.518-.059 1.137-.279 1.523-.063.452.244 1.246-.176 1.481.18-.002.02.302.046.39.02.441-.141 1.265-.033 1.417-.348.394.142.816.345 1.359.211.647-.165 1.266.115 1.791-.018.595-.152 1.089.018 1.615.04l1.875.159c.27.025.619.105.828.068 2.418-.474 5.07.083 7.508-.255.243-.037.535-.066.772-.048a33.19 33.19 0 0 0 4.849.08c.24-.016.628.024.774.094.744.384 1.611.074 2.364.046l2.946-.134c1.085.052 2.206-.079 3.261.108.066.015.366-.082.388-.129.076-.235.294-.367.947-.262l1.729.251c.051.008.113.069.113.069.541-.126.982-.268 1.69-.033.313.106 1.073.004 1.621-.014.154-.004.311-.042.467-.067-.184-.037-.404-.054-.516-.117-.097-.056-.154-.165-.096-.225.056-.046.351-.096.485-.08.302.045.567.124.849.196.249.065.424.514.766.013.151.016.304.025.419.061l1.09.336c.067.015.381-.055.367-.082-.009-.081-.436-.237.089-.208l6.304.185c.895.076 1.916.092 2.794.012.619-.057 1.088.025 1.631.047.424.014.072-.364.738-.218l1.087.2c.689.099 1.349.137 1.969-.083a1.62 1.62 0 0 1 .696.025c.655.254 1.401.293 2.261.22.31-.029.77-.035 1.002.03 1.074.322 2.212.198 3.359.15.393-.014.83.047 1.236.074.339.019.774.101 1.017.05 1.237-.257 2.412-.082 3.63.005.321.026.668-.036.99-.018.916.049 1.991-.292 2.795.167.096.056.758-.082 1.13-.049.49.042 1.046.267 1.357.218.624-.098 1.088.031 1.634.027l1.588-.028c.136.002.27.018.422.034 1.4.145 2.807.046 4.21-.005.189-.01.421-.115.555-.092 1.258.196 2.618.063 3.885.172 1.013.091 1.896.126 2.745-.171.512-.174.848-.128.831.196-.021.202.37.047.545.009.349-.082.509-.14.951.029.607.226 1.838.023 2.411.411.048.035.457.028.564-.011.602-.22 1.264-.189 1.971-.11.388.04.798.027 1.208.02.683-.009 1.588-.197 1.619.324 0 0 .304.025.443.007.499-.053 1.093-.023 1.424-.254.129-.092 2.455-.338 2.691-.314.135.016.321.032.351.067.217.206.466.109.764.033s.795-.278.619.105c-.001.013.234.044.351.067.178-.396.856-.202 1.294-.148 1.666.196 2.874.216 4.468-.035.589-.092.93.4 1.494.058.974.469 1.782.239 2.616-.079.088-.032.456.041.691.072-.424.142-.735.346.163.239.518-.066.648.152.911.082.509-.14.938-.005 1.414.003.392.006.87-.168 1.133.093a2.51 2.51 0 0 0 .548-.025c.12-.336.688-.225 1.107-.158.335.053.642.382.806-.048.092-.228.525-.302 1.056-.321.112-.099.25-.28.301-.279.373.026.83.054 1.075.16s.188.314.398.432c.579.327 1.507.417 2.674.172.628-.132.947-.093 1.497.025.651.139.85.027.45-.229-.048-.028.062-.1.102-.154l.418.074a.6.6 0 0 1 .224.139c.402.392.533.441 1.318.272.488-.107.672-.07 1.121.039.498.123 1.237.23 1.685-.148.169-.146.726-.258 1.177-.001.322.174.294-.042.435-.094.125-.045.314-.062.487-.093-.14-.124-.211-.26-.422-.358-.114-.056-.812.264-.602-.118.146-.254.159-.376-.609-.199-.175.038-1.232-.446-1.173-.526.022-.04.245-.057.334-.096.214-.091.774-.062.462-.337-.203-.179-.22-.342-.816-.351-.625.274-1.386.214-2.198.16-.372-.026-.846.101-1.13.049-.317-.066-.467-.264-.743-.391-.26-.119-.557-.219-.87-.318-.116-.036-.268-.052-.419-.074-.039.053-.15.133-.118.154.524.205-.133.295-.25.442.114.049.314.093.341.154.083.191.096.387.106.623-.002.013.001-.013.004-.04.1.022.217.044.281.079.017.007-.074.06-.129.093-.064-.035-.129-.063-.19-.138-.501-.096-1.169-.066-1.345-.34-.207-.301.906-.188.915-.431-.575-.05-.286-.207-.255-.335.078-.256-.225-.294-.729-.201-.261.05-.458.141-.734.177-.726.096-1.055-.186-1.573-.283-.25-.051-.171-.645.182-.761.282-.097.786-.183 1.106-.144a8.73 8.73 0 0 0 2.391-.055c.399-.061.389.033.587.091.728.208.755-.048.847-.439.041-.067.086-.005.097.056-.006.054-.045.101-.085.154-.114-.049-.313-.1-.324-.154-.011-.061.133-.133.312-.056 1.084-.097 1.717.366 2.579.441.236.024.85.014 1.012-.064.162-.085.291-.178.469-.249.036-.02.187.003.306.005-.506.444 1.324.211 1.095.613-.103.174.324.168.719.133.791-.068-.96-.435.369-.433.733-.001.373-.305.534-.545-.011-.054.053-.019.118.015l-.228.057c-.047-.041-.094-.076-.124-.117.001-.007.105-.025.234.044.144.09.28.099.279.106-.023.216-.22.476.002.629.383.256 1.389.09 2.026.351.327.134 1.32-.404 1.915-.056.609.368 1.285-.067 1.846.105.066.021.448-.047.453-.087.166-.45.481-.371.908-.053.127.097.268.207.465.278.115.042.373.026.559.036-.045-.062-.106-.13-.116-.198.008-.074.067-.148.092-.228.134.029.302.052.399.101.227.105.69.079.68.342-.021.202 1.032.24 1.626.094.315-.076.677-.117.991-.186.541-.126.747.026.971.171l.536-.403c.098.035.249.065.313.106.046.041-.047.121.018.156.353.202.788-.048 1.038.01.383.087.6.294.999.388.349.087.871.149 1.217.101.518-.073.946-.248 1.682-.445.173-.024.048.028-.076.08-.048-.035-.163-.077-.144-.09.11-.079.236-.145.363-.217.029.048.076.096-.143.227.163.401.845.399 1.561.235.419-.101.536-.072.949.049.875.271 1.574-.224 2.476-.216.12.002.205-.328.377-.339.635-.05 1.335-.059 1.98-.028.509.022.962.09 1.11-.191a1.77 1.77 0 0 1 .547-.011c.306.167.578.334 1.161.141.08.049.178.091.241.139.08.055.124.117.187.172.352-.271 1.496.2 1.647-.27.372.026.903.001 1.116.086.359.155.673.085 1.028.111.828.061.794-.426 1.684-.304.555.077 1.299-.033 1.951-.076l1.139-.13c.188-.004.569.097.563.151-.035.337.341.33.885.177.596-.159 1.162-.359 1.847-.064.409-.162.718-.346 1.49-.232.453.068 1.057.004 1.571-.028a1.17 1.17 0 0 0 .53-.174c.091-.059.05-.155.058-.236l-.481.039c-.72.042-1.5.165-2.141.1-1.146-.12-2.279-.037-3.398-.096-.153-.003-.286-.038-.438-.054-.026.25-.416.23-.888.188-1.537-.133-3.049-.347-4.644-.09-.243.043-.809-.081-1.036-.193-.308-.154-.514-.306-1.042-.139-.858-.278-1.392-.219-1.592.231-.003.027-.243.043-.382.061-.035-.149.109-.39-.545-.327-.327.035-.551.221-.852.324-.371.122-.43.04-.381-.101l-2.36-.904c-.693-.059-1.543-.242-2.047-.148-.712.13-1.775-.137-2.199.336-.002.013.001-.013.004-.04.1.022.217.044.281.079.017.007-.074.06-.128.093-.065-.035-.13-.063-.19-.138-.387-.054-.856-.129-1.169-.073-.747.136-1.358-.049-2.019-.087-.085-.001-.099-.191-.14-.293l-.48.033-.798-.027c-.253-.024-.522-.069-.702-.133-.23-.085-.406-.196-.6-.294-.136.153-.271.306-.513.505.136.002.242-.037.31-.029.185.017.352.053.519.083-.037.033-.112.1-.129.099-.219-.024-.438-.054-.7-.153l.166.037zm-32.939 2.251l.194.098-.227.057c-.047-.041-.095-.076-.124-.117 0-.007.105-.025.268.207.003-.027.022-.047.042-.074.1.022.217.044.281.079.016.007-.074.06-.129.092-.064-.035-.13-.063-.322-.343h.017zm-58.427-2.722l.194.098-.228.057c-.046-.041-.094-.076-.124-.117.001-.007.105-.025.078.238.261-.05.35-.089.417-.081.186.017.353.053.52.083-.038.033-.113.1-.13.099-.219-.024-.437-.055-.744-.377h.017zm-55.239 1.838l.544.171c-.189.017-.38.055-.549.038-.236-.024-.452-.082-.686-.126.224-.023.432-.054 1.71-.053l-.247.077-.144-.09.295-.049c.017 0 .064.042-.923.032zm39.232.481c.212.098.426.162.39.182-.094.086-.255.158-.399.23-.163-.064-.413-.122-.44-.19-.028-.055.252-.124 1.348-.174l-.247.077-.144-.09.295-.049c.017 0 .064.042-.786.014h-.017zm-128.86-3.412s.022-.047.042-.074c.1.022.217.044.281.079.017.007-.074.06-.129.093-.064-.035-.129-.063-.169-.172l-.839.034c.133-.295-.086-.319-.666-.153-.949.275-.738-.107-1.062-.436l.194.098-.227.057c-.047-.041-.094-.076-.124-.117.001-.007.105-.025.31.133.782-.149 1.556-.049 2.296.044.118.015.079.224.076.413h.017zm207.803 1.436l.224.139c.226.119.35.242-.036.344-.315.083-.638.233-1.047.077-.05-.014.29-.171.403-.27.092-.073.068-.161.16-.234.037-.026.192-.037.295-.049l.001-.007zM211.313 4.238c.175.118.37.209.334.229-.251.118-.533.214-.818.324-.143-.09-.47-.231-.415-.264.199-.112.53-.181.882-.29h.017zm187.929 1.623c-.268.117-.45.229-.5.222-.336-.053-.925.046-.95-.212.007-.061.24-.179.308-.171.355.026.689.092 1.142.161zm-64.253 1.5l.912.238c-.295.049-.63.159-.883.134s-.441-.183-.653-.274l.641-.098h-.017zm91.632-1.423l-.44.297c-.04-.102-.029-.21-.14-.293-.142-.104-.288-.174.093-.235l.486-.08c-.008.074.017.156.01.23-.003.027-.006.054-.043.08l.034.001zm-214.639 2.02l.005-.054 1.51-.097c.017 0 .127.09.09.116-.2.125-1.127.184-1.493.104-.05-.014-.081-.042-.113-.063l.001-.007zm147.327-3.875c.156.138.319.215.31.296-.004.04-.248.091-.389.136-.146-.07-.327-.134-.403-.216-.031-.034.215-.105.465-.215h.017zm12.206 1.768l-.396.203c.01-.101.004-.209.032-.31.009-.081.069-.168.144-.241.02-.027.192-.037.295-.042.034.001.114.042.112.063-.025.081-.085.161-.17.328h-.017zm2.719 2.031l.41.155-.904.33c.008-.074-.068-.163-.01-.23.112-.093.308-.171.488-.262l.016.007zm28.091 1.427l.418-.257c.144.09.473.211.417.257-.113.1-.442.155-.672.232l-.146-.239-.017.006zm29.202-3.67l.418-.257c.145.083.473.204.417.25-.112.1-.426.162-.672.239-.044-.075-.105-.144-.163-.232zm5.003.393c.207.139.402.23.365.256-.126.072-.32.13-.528.16-.051.006-.329-.107-.307-.154.042-.08.236-.145.47-.263zm4.452.458c.039.109.117.184.064.197-.265.09-.563.166-.86.243-.012-.048-.107-.123-.053-.143.232-.104.513-.188.832-.297h.017zM208.906 3.131c.063-.107.109-.221.187-.321.002-.02.207-.017.31-.029l-.352.602c-.083-.028-.216-.058-.23-.092-.011-.054.046-.107.085-.161zm88.532 3.797l-.418.25c-.144-.09-.472-.21-.399-.263.113-.1.443-.155.689-.225l.145.239h-.017zm129.188 2.728l.325-.177.549.286c-.121.018-.278.056-.362.041-.184-.037-.347-.1-.512-.15zm-52.655-2.188l.464-.364c.062.055.209.118.169.172-.044.101-.19.193-.302.286l-.348-.094h.017zM327.275 8.6l.919.184c-.139.025-.299.083-.433.067-.254-.018-.487-.076-.721-.12l.236-.138-.001.007zm57.795-3.465l.701-.178c.026.075.15.192.08.211-.176.051-.433.06-.656.077-.017 0-.077-.076-.125-.11zm2.882 1.946l-.589.092c-.086.005-.199-.051-.316-.08l.722-.218c.046.048.075.096.166.205h.017zm2.715 1.579c.043.082.102.164.11.252-.003.034-.161.072-.267.11l-.392-.324.549-.032V8.66zm53.537-2.508l.483.271c-.189.01-.5.053-.531.025-.129-.07-.153-.171-.177-.266.001-.007.19-.024.242-.03h-.017zm-31.796 3.871l.435-.256c.027.075.12.157.079.224-.061.094-.24.179-.352.271-.043-.075-.103-.15-.162-.239zM291.827 7.458l-.376-.155.834-.155c.012.048.09.116.037.142-.144.065-.336.109-.494.161l-.001.007zm-15.984-1.323l.436-.256c.026.075.12.157.078.224-.06.094-.24.179-.352.271-.043-.075-.103-.15-.162-.239zm-68.53 1.978l.573-.105c.086-.005.217.051.316.08l-.706.232-.184-.199.001-.007zM420 9.946l.7-.178c.026.075.15.192.08.211-.176.051-.432.06-.655.077-.017 0-.078-.076-.125-.11zm-15.815-2.294l.611.024c.051.001.06.075.107.117-.187-.003-.393.014-.58.004-.051-.001-.077-.076-.138-.144zm-10.841-.144l-.341.163c-.046-.048-.16-.104-.121-.144.058-.067.2-.125.309-.191l.154.165-.001.007zm-1.666-.041l-.395.027c-.029-.048-.108-.11-.053-.143.074-.053.23-.084.336-.123.03.048.041.102.112.238zm-8.427 1.22l.497.137c-.139.025-.28.07-.417.074-.102-.002-.199-.051-.315-.08l.235-.131zm-3.9-1.328l.34-.163c.046.048.16.104.122.144-.059.067-.201.125-.31.191l-.153-.165.001-.007zm-3.31-2.257l.069.157c-.12.012-.277.043-.377.021-.133-.029-.212-.091-.31-.133l.601-.044h.017zm-8.198 4.252l-.395.027c-.029-.048-.09-.11-.053-.143.074-.053.23-.084.337-.123.029.048.04.102.111.238zm-7.327-.336l.32.039c-.008.074-.067.148-.125.214l-.253-.024c.008-.074.032-.148.076-.235l-.018.006zm-2.384-4.263l.31.127c-.188.01-.379.041-.565.031-.102-.002-.181-.071-.279-.106l.517-.052h.017zM343.05 8.832l-.311-.127c.189-.01.379-.041.566-.031.102.002.18.071.278.106l-.516.052h-.017zm-6.428.023l-.395.027c-.029-.048-.107-.11-.053-.143.074-.053.23-.084.337-.123.029.048.04.102.111.238zm-2.397-4.135c.077.076.173.131.152.171-.058.067-.2.125-.31.191-.046-.048-.142-.104-.121-.144.042-.074.167-.132.278-.212l.001-.007zm-2.863 1.298l.497.137c-.139.025-.28.07-.416.074-.102-.002-.2-.051-.316-.08l.235-.131zm-8.726-2.772l.32.039c-.008.074-.067.148-.125.214l-.253-.024c.008-.074.033-.148.076-.235l-.018.006zm-9.809.907l.345-.197c.062.055.176.111.187.165-.004.04-.128.079-.201.125l-.331-.093zm-7.18 3.646l-.32.123c-.026-.075-.103-.15-.079-.224.005-.04.178-.071.268-.111.043.075.104.144.131.205V7.8zm-79.376.577l.069.157c-.121.012-.277.036-.36.021-.134-.029-.212-.091-.31-.133l.601-.044zm-10.079.396c-.125.052-.234.111-.285.11-.185-.023-.35-.067-.518-.096.072-.033.163-.092.214-.091.187.01.353.046.571.084l.018-.006zm-1.938-4.465l.345-.197c.062.055.176.111.187.165-.004.04-.128.079-.201.125l-.331-.093zm201.948.711l.311.127c-.189.01-.379.041-.566.031-.102-.002-.18-.071-.279-.106l.517-.052h.017zm31.9 2.49c.131.049.28.092.277.113-.058.073-.167.139-.243.206-.082-.028-.231-.065-.229-.085.025-.074.117-.14.211-.226l-.016-.007zm-10.588-.937c-.01.094-.018.169-.06.242-.002.02-.19.024-.294.042.008-.074-.035-.156-.01-.23.002-.02.191-.031.364-.055zm-9.42 3.711l.611.024c.051.001.06.075.107.117-.187-.003-.393.014-.58.004-.051-.001-.077-.076-.138-.144zm-5.651-.559c.077.076.174.131.153.171-.059.067-.201.125-.31.191-.046-.048-.143-.104-.121-.144.041-.074.167-.132.277-.212l.001-.007zm-12.045-.86c-.009.094-.017.169-.059.242-.002.02-.19.024-.294.042.008-.074-.035-.156-.01-.23.002-.02.191-.031.363-.055zm29.959-2.921s.114.056.095.069c-.038.04-.126.066-.197.098-.032-.021-.114-.056-.096-.062.038-.04.126-.065.198-.098v-.007zm-.871.506l.175-.044c.03.041.06.082.073.123-.001.013-.105.025-.158.045l-.09-.116v-.007zm-5.034.559l.229.085c-.052.013-.141.045-.157.038-.101-.015-.165-.05-.247-.078l.175-.044zm-.163-1.057l.112.069c-.103.012-.207.03-.31.029-.034-.001-.063-.042-.112-.063l.293-.036h.017zm-1.323-.38l.214-.091c.031.021.113.056.095.062-.038.04-.126.066-.198.098-.031-.021-.08-.042-.111-.069zm-5.477 4.465l.23.085c-.053.013-.141.045-.174.038-.101-.015-.166-.05-.248-.078l.175-.044h.017zm1.536-3.124l-.214.091c-.032-.021-.113-.056-.096-.062.039-.04.126-.066.198-.098.032.021.081.042.112.069zm-.355-1.33l-.112-.069c.103-.012.207-.03.309-.029.034.001.064.042.113.063l-.293.036h-.017zm-3.554 5.152l-.214.091c-.032-.021-.114-.056-.095-.069.038-.04.126-.066.197-.098.032.021.081.042.112.069v.007zm-2.174-.401l.23.085c-.053.013-.141.045-.175.038-.1-.015-.165-.05-.247-.078l.175-.044h.017zm1.355-5.31l-.23-.085c.053-.013.141-.045.157-.038.101.015.166.05.248.078l-.175.044zm-6.33 4.154s.113.056.096.062c-.039.04-.127.066-.198.098-.032-.021-.114-.056-.095-.069.038-.04.126-.065.197-.098v.007zm-.045-1.366l.112.069c-.104.012-.208.03-.31.029-.034-.001-.064-.042-.113-.063l.294-.036h.017zm-.682-2.282l.175-.044c.029.041.059.082.072.123-.001.014-.105.025-.158.045l-.09-.116.001-.007zm-5.122 1.72l-.23-.085c.052-.013.141-.045.174-.038.101.015.166.05.248.078l-.175.044h-.017zm-8.999 2.941l-.214.091c-.032-.021-.113-.056-.095-.069.038-.04.126-.066.198-.098.032.021.081.042.112.07l-.001.007zm-3.631-4.723s.113.056.095.069c-.038.04-.126.065-.198.098-.032-.021-.113-.056-.095-.069.038-.04.126-.066.198-.098zm-.469-.738s.114.056.096.062c-.038.04-.126.066-.198.098-.032-.021-.113-.056-.096-.062.039-.04.127-.066.198-.098zm-7.627 4.335l-.23-.085c.053-.013.141-.045.158-.038.1.015.165.05.247.078l-.175.044zm-1.911-1.119l-.214.091c-.032-.021-.114-.056-.096-.062.038-.04.126-.066.198-.098.032.021.081.042.112.069zm-2.098.993l.23.085c-.052.013-.141.045-.174.038-.101-.015-.166-.05-.248-.078l.175-.044h.017zm-10.332.858l-.214.091c-.032-.021-.113-.056-.095-.062.038-.04.126-.065.197-.098.032.021.081.042.112.069zm-2.823-3.324l.214-.091c.032.021.114.056.095.069-.038.04-.126.066-.197.098l-.113-.069.001-.007zm-2.037.899l-.229-.085c.052-.013.141-.045.157-.038.101.015.165.05.247.078l-.175.044zm.854-2.304l.112.069c-.103.012-.207.03-.309.029-.034-.001-.064-.042-.113-.063l.293-.036h.017zm-12.357.338l-.214.091c-.032-.021-.113-.056-.095-.062.038-.04.126-.066.197-.098.032.021.081.042.112.069zm-5.495 1.707s.114.056.095.069c-.038.04-.126.066-.198.098-.031-.021-.113-.056-.095-.062.038-.04.126-.065.197-.098l.001-.007zm-5.034-1.569s-.141.045-.158.038c-.1-.015-.165-.05-.247-.078.052-.013.141-.045.174-.038.101.015.165.05.248.078h-.017zm-4.008 1.009l.175-.044c.03.041.077.082.072.123-.001.013-.105.025-.158.045l-.09-.116.001-.007zm-1.899 1.05l.175-.044c.03.041.076.082.072.123-.001.013-.105.025-.158.045l-.09-.116.001-.007zm-13.576-3.494l.111.069-.309.029c-.034-.001-.064-.042-.113-.063l.311-.035zm-3.8 2.763s.114.056.096.062c-.038.04-.126.066-.197.098-.032-.021-.114-.056-.096-.062.038-.04.126-.065.197-.098zm-4.636.174l.175-.044c.03.041.077.082.072.123-.001.013-.105.025-.158.045l-.09-.116.001-.007zm-2.912 1.446l.23.085c-.053.013-.141.045-.175.038-.1-.015-.165-.05-.247-.078l.175-.044h.017zm2.019-4.164l.113.069c-.104.012-.208.03-.31.029-.034-.001-.064-.042-.113-.063l.31-.035zm-14.72 3.388l.23.085c-.052.013-.141.045-.157.038-.101-.015-.166-.05-.248-.078l.175-.044zm.054-4.27s-.141.045-.158.038c-.1-.015-.165-.05-.247-.078.052-.013.141-.045.157-.038.101.015.166.05.248.078zm-9.804 5.273l-.112-.069.309-.029c.034.001.064.042.113.063l-.293.036h-.017zm2.718-4.335s-.141.045-.157.038c-.101-.015-.165-.05-.247-.078.052-.013.141-.045.174-.038.101.015.165.05.247.078h-.017zm-3.549 3.307l.176-.044c.029.041.076.082.072.123-.002.014-.105.025-.158.045l-.09-.116v-.007zm1.436-2.166l.112.069-.309.029c-.034-.001-.064-.042-.113-.063l.293-.036h.017zm-2.362-1.857l-.175.044c-.03-.041-.077-.082-.073-.123.002-.013.105-.025.158-.045l.09.116v.007zm-13.856 4.247l.112.069c-.103.012-.207.03-.309.029-.034-.001-.064-.042-.113-.063l.293-.036h.017zm2.647-5.113l.175-.044c.03.041.06.082.072.123-.001.014-.105.025-.158.045l-.09-.116.001-.007zM273.27 4.491s-.141.045-.157.038c-.101-.015-.165-.05-.247-.078.052-.013.141-.045.174-.038.101.015.165.05.247.078h-.017zm-4.766.598l-.214.091c-.032-.021-.113-.056-.095-.062.038-.04.126-.065.197-.098.032.021.081.042.112.069zm-6.715-1.955s-.141.045-.157.038c-.101-.015-.166-.05-.248-.078.053-.013.141-.045.158-.038.1.015.165.05.247.078zm-25.961-.27l.229.085c-.052.013-.141.045-.157.038-.101-.015-.165-.05-.248-.078l.176-.044zm-6.32.457s.113.056.095.069c-.038.04-.126.066-.198.098-.032-.021-.113-.056-.095-.062.038-.04.126-.065.197-.098l.001-.007zm-4.965 5.609l-.112-.069c.103-.012.208-.03.31-.029.034.001.064.042.112.063l-.293.036h-.017zm1.127-2.8l.23.085c-.053.013-.141.045-.157.038-.101-.015-.166-.05-.248-.078l.175-.044zm-.974-3.733l.23.085c-.052.013-.141.045-.174.038-.101-.015-.166-.05-.248-.078l.175-.044h.017zm-4.057 5.887l.113.069c-.104.012-.208.03-.31.029-.034-.001-.064-.042-.113-.063l.293-.036h.017zm-1.81-.293l.176-.044c.029.041.076.082.072.123-.001.013-.105.025-.158.045l-.09-.116V7.99zm.416-2.514l-.175.044c-.03-.041-.06-.082-.072-.123.001-.013.105-.025.158-.045l.09.116-.001.007zm-4.74 3.612l-.229-.085c.052-.013.141-.045.157-.038.101.015.165.05.247.078l-.175.044zm-1.351.052l-.23-.085c.052-.013.141-.045.157-.038.101.015.165.05.248.078l-.175.044zm3.085-5.89l.175-.044c.03.041.06.082.073.123-.002.013-.105.025-.158.045l-.091-.116.001-.007zm-.956-.468l.229.085c-.052.013-.141.045-.174.038-.101-.015-.165-.05-.247-.078l.175-.044h.017zm-2.601 1.89l-.214.091c-.032-.021-.113-.056-.095-.069.039-.04.126-.066.198-.098.032.021.081.042.112.069l-.001.007zm-.256-.322l-.175.044c-.03-.041-.076-.082-.072-.123.001-.013.105-.025.158-.045l.09.116-.001.007zm-3.374 4.081l-.112-.069.31-.029c.034.001.064.042.113.063l-.294.036h-.017zm.996-3.336l.229.085c-.052.013-.141.045-.174.038-.101-.015-.165-.05-.247-.078l.175-.044h.017zM433.836 8.99l.217-.125c.157.131.237.342.473.373.689.092.597.158.074.272-.192.037-.384.082-.526.14-.089.032-.08.107-.102.161l.422.041.986.016c.102.002.175.124.185.192-.005.04-.183.119-.217.118-.808-.094-1.278-.001-1.383.349-.002.02-.359.014-.565.024l.017-.162c.006-.061.063-.114.103-.174-.202-.017-.405-.034-.609-.368-.371-.202-.632-.146-.617-.125.104.144.26.281.416.419.09-.046.265-.09.27-.137.014-.128-.024-.257-.069-.157-.077.58-.417.73-1.116.739.126-.228-.41-.162-.641-.233-.297-.093-.505-.225-.748-.337.312-.056.607-.105.857-.047.019.142.165.212.348.249.067.015.227-.05.35-.082l-.636-.281c-.022.054-.061.1-.062.114-.133-.198-.482-.285-.474-.359.012-.121.217-.287.462-.351.421-.115.479-.181.191-.355-.193-.118-.157-.293-.21-.443.834.014 1.101.065 1.824.327.131.049.388.04.59.057.063.055.142.11.205.159l-.015-.014zm3.842.908c-.104.012-.191.031-.295.049l.144.09c.088-.026.176-.051.039-.047-.333-.073-.383-.25-.567-.28-.302-.046-.701.022-1.057.003-.255-.011-.851-.014-.234-.213.177-.058.208-.193.353-.278.091-.059.253-.138.39-.142.17.003.484.096.465.116-.213.247.156.3.615.314.526.022 1.028.111 1.092.315.074.265.3.39.963.401.068.001.19.145.133.198-.04.053-.266.097-.437.108l-.925.046c-.139.018-.218.125-.327.191-.043-.075-.104-.144-.114-.218-.028-.217-.478-.15-.762-.202.062-.107.125-.221.396-.365.176-.058.129-.092.112-.093l.016.007zm12.146.213c-.01.094-.105.188-.166.281-.161-.084-.41-.155-.469-.244-.187-.328.508-.613 1.299-.519.353.046.643.207.997.239s.774-.068 1.164-.048c.594.03.665.166.239.328-.09.039-.212.064-.317.096.647.335.162.408-.608.436-.034-.001-.124.207-.011.27.128.076.803-.021.505.225-.056.046-.145.085-.218.132l-.892-.278c-.098-.042.017-.155.025-.236.022-.209.342-.339.68-.475.25-.104-.238-.328-.469-.244-.638.24-.753-.127-1.147-.113-.537-.076-.625-.051-.612.152zm-3.931-.551c-.26.205-.587.403-.931.593-.109.066-.35.096-.525.14-.044-.068-.14-.131-.133-.198-.021-.291.655-.564.159-.876.001-.007.195-.071.266-.097.864.055 1.403.273 1.181.445l-.017-.007zm9.687 1.903l.533.11-.441.148c-.539.268-1.013.071-1.479-.038-.2-.044-.381-.101-.58-.158.245-.057.476-.148.733-.164s.558.043.828.068l.422.041-.016-.007zm-15.327-2.725c.345-.035.712.525.426.656a.83.83 0 0 1-.361.028l-1.122-.356c.406-.129.695-.286 1.074-.327h-.017zm7.211 1.936c.03.21-.485.404-.065.627.016.007-.165.112-.25.111-.528-.002-.995-.097-1.076-.301-.095-.238.497-.026.643-.118.128-.086.19-.193.302-.286.056-.046.145-.085.218-.132.082.035.215.064.211.098h.017zm-13.294.174c-.071.033-.111.086-.198.098l-1.088.138c-.138.018-.307.008-.444.013.042-.074.02-.189.141-.207l1.092-.178.514.137h-.017zm32.405-.881c-.273.002-.418.25-.791.061-.064-.035-.318-.053-.406-.027-.175.044-.285.117-.411.183.008-.074-.018-.156-.01-.23.069-.337.617-.193 1.243-.155l.374.175.001-.007zm-48.839.936c-.166-.043-.436-.068-.481-.13-.121-.144-.156-.3-.208-.456l.827.074c1.027.125-.343.184.083.346l-.221.165zm42.476-.554c-.021.04-.182.112-.284.11-.766-.013-.118-.34-.586-.429l.301-.11c.745.053.745.053.569.428zm-28.928.56c-.211.057-.583.031-.891.046l.032-.31 1.352-.052c-.165.112-.266.259-.494.323l.001-.007zm42.185.118s-.005.04-.04.053c-.252.131-1.161.184-1.51.097-.049-.014-.113-.056-.113-.063.056-.04.129-.086.214-.091l1.133-.076.315.086.001-.007zm-2.656.139s-.28.07-.313.056l-.818-.324.719-.191.412.46zm-33.896-.671c-.074.053-.235.131-.187.159.19.138.149.205-.256.165-.152-.016-.348-.094-.359-.155-.058-.258.367-.413.985-.288-.056.04-.127.072-.182.112l-.001.007zm12.973.132s.077.076.107.117l-1.216.054c-.119-.002-.225-.125-.338-.195.139-.025.297-.063.451-.067.119-.005.27.018.405.034l.608.057h-.017zm-13.66.573l-.249.097-.871-.305.745-.123c.156.138.3.228.375.331zm32.771.011l-.782-.013a4.4 4.4 0 0 1-.608-.057c-.067-.008-.094-.076-.107-.117.002-.014.107-.046.158-.045l.828.068.512.157-.001.007zm-26.454-1.921c-.004.04-.248.091-.389.136-.146-.07-.327-.134-.403-.216-.031-.034.215-.105.465-.215.156.138.319.215.31.296h.017zm10.826 1.921l-.791-.256 1.105.032c.068.001.071.136.142.273l-.473-.041.017-.007zm2.362-.421c-.096.107-.276.198-.423.297-.144-.09-.423-.189-.398-.27.007-.068.405-.122.703-.205.044.068.156.138.1.184l.018-.007zm2.869.763c-.186-.017-.306-.167-.45-.257l.821-.034c.119.002.249.065.38.114-.315.076-.582.193-.768.177h.017zm3.147-.921c.16.097.423.189.413.284-.006.061-.388.122-.599.186l-.299-.235.485-.235zm-25.417-1.897l-.708.252c-.08-.049-.244-.112-.207-.139.092-.073.268-.124.34-.163l.575.05zm3.912 1.213l-.392-.331c.12-.005.294-.036.36-.014.165.057.276.133.406.196l-.391.149h.017zm27.667 1.4c.027.075.133.198.064.21-.176.051-.433.061-.672.07-.017 0-.061-.075-.093-.096l.685-.191.016.007zm-19.247.063l-.201.132c-.164-.063-.38-.114-.458-.19-.047-.041.166-.119.276-.191.143.097.288.174.365.256l.018-.006zm8.963-1.786l-.706.232c-.046-.048-.159-.104-.121-.144.076-.08.237-.145.363-.21l.465.116-.001.007zm22.358.833c-.058.067-.2.125-.31.191-.046-.048-.142-.104-.121-.144.042-.074.167-.132.278-.212.077.076.174.131.153.172v-.007zm-13.671 1.006c-.188.01-.379.041-.565.031-.102-.002-.18-.07-.279-.106l.517-.052.31.127h.017zm.216-.76c.026.075.104.15.079.224-.004.04-.178.071-.267.111-.044-.075-.105-.144-.132-.205l.319-.123.001-.007zm-3.223.67c-.121.018-.262.063-.363.048-.168-.023-.315-.079-.481-.123l.415-.061.412.135h.017zm-15.332-1.529c-.121.018-.262.063-.363.048-.168-.023-.315-.08-.481-.123l.415-.061.412.135h.017zm-1.989.603c-.168-.023-.315-.079-.481-.123.121-.018.262-.057.363-.048.186.017.334.066.534.11-.191.031-.331.069-.433.061h.017zm-4.629.924c-.121.012-.277.043-.36.021-.134-.029-.212-.091-.31-.133l.601-.044c-.003.027.041.095.069.157zm-2.83-2.277c-.185-.023-.351-.067-.519-.096.072-.033.163-.092.214-.091.187.01.353.046.571.084-.125.052-.233.111-.284.11l.018-.006zm-8.715.222c-.121.012-.278.043-.36.021-.134-.029-.212-.091-.31-.133l.601-.044c-.003.027.041.095.069.157zm-3.757-1.893c-.12.012-.276.036-.36.021-.133-.029-.212-.091-.31-.133l.602-.044c-.003.027.041.095.068.157zm73.254 4.527s-.141.045-.157.038c-.101-.015-.166-.05-.248-.078l.175-.044.23.085zm-6.088-.451c.03.041.059.082.072.123-.001.014-.105.025-.158.045l-.09-.116.175-.044.001-.007zm-3.081-.361l.309-.029c.034.001.064.042.113.063l-.293.036-.112-.069h-.017zm-2.254-.287a.44.44 0 0 1 .072.123c-.001.014-.104.025-.158.045l-.09-.116.175-.045.001-.007zm-1.973.779s-.141.045-.157.038c-.101-.015-.166-.05-.248-.078l.175-.045.23.085zm-9.737-.599c.1.022.217.044.282.079.016.007-.075.06-.129.093a2.68 2.68 0 0 0-.212-.098c.003-.027.022-.047.042-.074h.017zm.042-.074l-.228.057c-.047-.041-.094-.076-.124-.117.001-.007.105-.025.158-.038l.194.098zm.031-3.568s-.113-.056-.095-.069c.038-.04.126-.066.198-.098.032.021.081.042.112.069l-.214.091-.001.007zm-4.606 3.148l.31-.029c.034.001.064.042.113.063l-.294.036-.112-.069h-.017zm-3.851-.165l.309-.029c.034.001.064.042.113.063l-.293.036-.112-.069h-.017zm-2.714.685c-.1-.015-.165-.05-.247-.078.053-.013.141-.045.157-.038.101.015.166.05.248.078-.053.013-.141.045-.158.038zm-1.88-1.085c.103-.012.207-.03.309-.029.034.001.064.042.113.063l-.293.036-.112-.069h-.017zm-.273.496s-.142.045-.158.038c-.101-.015-.165-.05-.247-.078l.175-.044.23.085zm-1.9 1.05s-.141.045-.157.038c-.101-.015-.165-.05-.247-.078l.175-.044.229.085zm.546-.984l-.227.057c-.047-.041-.095-.076-.124-.117 0-.007.105-.025.157-.038l.194.098zm-2.968-.299c-.038.04-.126.066-.198.098-.032-.021-.113-.056-.095-.062.038-.04.126-.066.197-.098.032.021.114.056.095.069l.001-.007zm-1.195 1.487l-.31.029c-.034-.001-.063-.042-.112-.063l.293-.036.112.069h.017zm-8.707-.508l-.144-.09.295-.049.096.062-.247.077zm-1.439-.909c-.103.012-.207.03-.309.029-.034-.001-.064-.042-.113-.063l.293-.036.112.069h.017zm-1.067-.876l-.144-.09.295-.049c.017 0 .064.042.096.062l-.247.077zm-3.011 1.904s.141-.045.157-.038c.101.015.166.05.248.078l-.175.045-.23-.085zm.517-1.688s-.141.045-.157.038c-.101-.015-.166-.05-.248-.078l.175-.044.23.085zm-1.203.589l-.31.029c-.034-.001-.064-.042-.113-.063l.294-.036.112.069h.017zm-3.063.774l.309-.029c.034.001.064.042.113.063l-.31.035-.112-.069zm-2.918-2.251l-.144-.09.295-.049c.017 0 .063.042.095.062l-.246.077zm-2.873.095l.217-.125c.063.055.142.11.205.159l-.422-.034zm-2.373-.458l-.227.057c-.047-.041-.095-.076-.124-.117 0-.007.105-.025.157-.038l.194.098zm-2.451.467c.103-.012.207-.03.309-.029.034.001.064.042.113.063l-.31.035-.112-.069zm-1.165-.269l-.228.057c-.047-.041-.094-.076-.124-.117l.157-.038.195.098zm-205.35.531c.03.041.077.082.073.123-.002.013-.105.025-.158.045l-.09-.116.175-.044v-.007zm-12.303.474c-.055.04-.111.086-.199.112-.018.006-.15-.029-.233-.051l.247-.084c.068.001.119.009.186.017l-.001.007zm-1.799.099l-.31.029c-.034-.001-.064-.042-.113-.063l.293-.036.113.069h.017z" />
  <path
    d="M54.996 5.199c.314-.113.69-.098 1.042.026.422.143.748.172.568-.13 0 0 .319-.059.388-.039 1.016.31 2.004.114 2.927-.048.688-.118 1.267-.498 1.942-.007.001.013.238-.003.27-.024.336-.248.99-.169 1.495-.237.707-.098.701.024.343.218.239.01.533.06.718.03l2.09-.442c.699-.186 1.356-.262 2.059-.029.264.091.382.082.61-.042.568-.312 1.586.018 2.263-.221.066-.021.453.115.697.173.087.019.205.011.308.016-.033-.554.87-.174 1.246-.16.325.016.48.027.588-.089.201-.233.562-.197 1.044-.136.569.073 1.15.092 1.792.035 1.487-.143 1.505-.123 2.837.095.034 0-.034 0-.102.001.055.04.11.086.197.112.018.007.151-.029.234-.051-.088-.026-.158-.052-.347-.076-.005-.054.052-.176.137-.178l1.554.039c.172.018.387.136.429.224.143.261.314.266.651.045a1.38 1.38 0 0 1 .542-.231c.218-.044.557-.055.782-.025.967.142 1.806.184 2.444.087.034 0-.034 0-.101.008.055.04.11.086.198.112.018.006.151-.029.234-.051-.087-.026-.158-.052-.348-.076a2.32 2.32 0 0 1 .636-.32 2.44 2.44 0 0 1 .691-.084c.085-.001.182.133.207.213.024.074.015.162-.081.231-.223.172.088.222.302.144 1.39-.459 3.188-.363 4.753-.574a2.73 2.73 0 0 1 .407-.019c1.318.062 1.353.082 1.881-.114.33-.12.536-.102.899-.047l1.91.209c.705.071 1.656.031 2.935-.143.051-.001.081-.048.113-.069 1.338.474 3.15-.22 4.473.281 1.411-.216 2.821.298 4.191.001.636-.137 1.492.296 1.947-.142l1.18.233c.138.025.299.104.365.089 1.091-.191 1.074-.184 1.877-.168.409.008.816-.018 1.222-.051l2.704-.248c.721-.132 1.524.093 2.218-.153.231-.084.89.048 1.349.035.426-.006.828-.079 1.182.071.195-.111.371-.235.601-.333.115-.049.45-.108.52-.088.529.195 1.096.066 1.603.011.489-.054.802.016 1.168.112.158.045.504.108.537.094 1.046-.495 2.259.11 3.348-.095 1.334.238 2.666.084 4.022.004 1.219-.078 2.367-.385 3.681-.174.491-.23 1.025-.359 1.727-.126.436-.263 1.18.233 1.593-.097.743.111 1.438.27 2.294.116.385-.066.827-.086 1.251-.106.255-.01.545-.008.787.036 1.092.201 1.382.21 2.912-.014.413.231 1.072-.211 1.474.087a.88.88 0 0 0 .377.035c.609-.238 1.355-.283 2.096-.199.55.06.886-.377 1.51-.062.5.256 1.31-.025 1.744.063.764.158 1.36-.033 2.026-.015l1.937.128c.666.018 1.362-.019 2.023-.049.188-.003.416-.121.554-.102.553.087.477-.378 1.125-.178.684.213.66-.239 1.173-.219l2.171.084c.068-.001.1.154.162.275.001.013-.002-.014-.004-.04-.1.022-.218.044-.283.078-.016.007.074.06.128.093.065-.035.131-.063.192-.138.925-.324.893-.303 1.834-.073l2.567.511c.121.019.44-.04.519-.102.353-.248 1.068-.252 1.497-.217 1.371.089 2.62-.051 3.868-.19.995-.109.032.358.675.301l1.673-.145 1.876-.168c.506-.061 1.089.167 1.592-.11.13-.069.984.141 1.518.019.921.386 1.958.168 2.956.093.863-.066 1.707-.159 2.304.231.072.04.723-.112 1.153-.064.107-.522.422-.432 1.066-.089.126.073.961-.108 1.376-.047.69.098.801-.369 1.584-.191.4.089 1.056-.001 1.585.005l1.792.029 1.004-.014c1.134-.084 2.259-.268 3.408.006.819.198 1.323-.255 2.148-.172.705.071 1.446.162 2.201.03.218-.037.257-.362.638-.11.235.152.359.204.764.158l1.048-.089c.679-.03 1.09.376 1.925.182a19.71 19.71 0 0 1 1.828-.323c.151-.022.415.068.73.165-.136.002-.241-.037-.309-.029-.186.016-.353.052-.521.082.037.033.112.1.129.1.219-.023.438-.054.701-.152.626-.056 1.485.026 2.053-.097a2.75 2.75 0 0 1 1.328-.012c.434.082 1.057.005 1.585-.002.003.04.027.114-.007.115-.352.059-.93.081-.18.266.488.121.739.071 1.013-.102.177-.117.216-.246.871-.168.775.097 1.675-.132 2.605-.017.724.091 1.136-.246 1.722-.369l.633-.158c.909.44 1.757-.167 2.502-.035 1.055.174 1.903-.054 2.854-.088.611-.029 1.165-.118 1.796.069.613.187 1.25.077 1.843-.148.33-.126.961-.311 1.268.077.02.034.651.038.666.018.293-.342.77.036 1.188-.057.735-.166.708.112.877.285.15.147.813.13.753.03-.225-.416.826-.282 1.135-.449.082-.042.367-.086.403-.066.759.293 1.577.106 2.392.067l2.618-.057 2.621-.037c.48.034.912.095 1.383.034.404-.053.537.094.78.138.623.113 1.372.102 2.074.14l1.368.055a8.96 8.96 0 0 0 1.749-.065c.555-.075 1.437.061 2.09.126.756.07 1.381.007 2.023-.049.845-.08 1.342.143 1.851.305.561.181.914.129 1.308-.046.443-.189.869-.377 1.524-.103.496.209 1.17-.057 1.57.025 1.024.208 2.104.092 3.134.179l.377.022c.468-.284 1.165-.111 1.74-.16 1.741-.16 3.291.021 4.926.207.912.102 1.992-.021 2.929.168.087.019.322-.018.37-.053.253-.22.728-.247 1.225-.213.583.039 1.314.029 1.701.165 1.444.52 3.129.3 4.693.265l2.186.057c.582.032.733.192.551.438-.077.096-.05.21-.023.318.004.047.128.093.183.139.083-.021.201-.037.266-.071.162-.09.269-.227.487-.27.284-.058.894-.101.948-.067.603.458.974.216 1.392-.054.065-.041.268-.051.419-.08.039.054.147.113.116.154-.15.225-.648.563-.435.655.498.229.242.415.193.626.003.034-.199.057-.759.085-.255.01-.099.042.053.026.136-.009.35-.086.332-.099-.092-.08-.235-.145-.36-.218-.146.09-.291.18-.025.291.924.23.049.547.802.779.106.032-.996.095-.602.306.482.25.496.398-.244.51-.521.082-.184.226-.207.348l-.332 1.234c-.049.21-1.041.177-.729.422.274.206-.12.373.052.574.17.187-.448.141-.994.129-.172-.025-.048.028.076.08.048-.034.163-.077.145-.09-.11-.08-.235-.145-.361-.218-.029.048-.076.096.14.228.243.24.827.482.221.564-.37.053-1.109.36-1.523-.08-.113-.113-.702.152-1.106.016l.028.31c-.273.004-.609.049-.784-.002-.384-.096-.641-.302-1.02-.344-.275-.03-.669.138-1.02.21-.351.079-4.398.164-4.797.095-.259-.044-.487-.115-.731-.172-.697-.173-1.332-.42-2.275-.292-.043-.101-1.341-.13-.113-.309.05-.007.132-.049.114-.062-.038-.04-.129-.1-.197-.099-.204.003-.476.007-.608.056-.577.218-1.158.388-1.961.17-.07-.019-.254.024-.37.053-.685.158-2.179.402-2.287.343-.774-.462-1.942-.182-2.884-.243-1.046-.073-2.158.071-3.248.073-.851.005.001-.182-.106-.235-.178-.085-.455-.129-.699-.193-.657.462-2.18-.172-2.797.35l-1.851-.122c-.81-.097-1.602-.187-2.822-.115-.712.044-1.332-.035-1.969-.107-.896-.109-.984-.135-2.327-.109-.103.001-.236.03-.29.004-.754-.246-1.505-.249-2.248.005-.083.028-.232.078-.267.065-1.413-.365-2.91.041-4.371-.093l-4.078-.253c-.847-.143-1.263.349-1.919.061l-1.987.265c-.488-.5-1.299-.042-1.918-.101-1.203-.118-2.314.033-3.464.123-.085.001-.209-.044-.296-.07.099-.035.197-.077.314-.099.252-.044.558-.048.171-.192-.212-.078-.801-.185-1.173-.152-.388.039-.82.16-1.114.117-.466-.068-.76-.118-1.049.076-.033.021-.324.005-.445-.021-.488-.115-.947-.297-1.36.033 0 0-.292-.016-.293-.036-.05-.175-.281-.273-.681-.18-.15.036-.048.224-.197.273-.248.085-.733.186-.89.148-.627-.153-.999-.121-1.369.121-.081.048-.419.074-.608.056-1.271-.11-2.464.075-3.686.133-.407.019-.912-.102-1.296-.205-.629-.174-.795-.124-.718.159.002.027-.231.091-.3.079-1.465-.189-3.101.186-4.534-.213-.228-.064-.712.044-.973-.013-.451-.095-.856.526-1.243.004-.133.036-.302.058-.4.107-.262.119-.344.336-.913.27-.516-.06-1.132-.281-1.522-.066-.455.243-1.243-.178-1.484.176.002.02-.302.045-.39.019-.438-.142-1.264-.036-1.411-.352-.397.141-.822.343-1.362.208-.645-.167-1.268.113-1.791-.022-.593-.154-1.089.015-1.615.036l-1.878.155c-.27.024-.621.103-.829.066-2.411-.479-5.071.072-7.504-.272-.242-.037-.534-.067-.771-.05-1.607.138-3.223.167-4.85.069-.24-.017-.629.022-.776.092-.749.382-1.612.07-2.365.04l-2.943-.141c-1.086.049-2.205-.084-3.262.1-.067.014-.366-.083-.387-.13-.072-.235-.288-.368-.944-.264l-1.732.247c-.051.007-.113.069-.113.069-.54-.127-.979-.27-1.691-.037-.314.106-1.073.002-1.62-.018-.154-.005-.31-.043-.466-.068.184-.036.404-.053.518-.115.097-.055.155-.164.099-.224-.055-.047-.35-.096-.485-.081-.302.045-.568.123-.851.194-.25.064-.431.513-.766.011-.152.016-.304.025-.42.06l-1.095.333c-.067.014-.38-.055-.365-.083.01-.081.439-.236-.087-.208-2.105.091-4.226-.001-6.306.17-.896.073-1.918.088-2.794.006-.619-.059-1.088.022-1.632.043-.424.013-.067-.364-.735-.219l-1.09.198c-.69.098-1.351.134-1.967-.087-.124-.046-.565-.033-.697.023-.658.253-1.405.29-2.264.214-.309-.029-.77-.036-1.002.028-1.079.319-2.215.194-3.361.142-.393-.015-.831.046-1.237.072-.34.018-.775.099-1.018.048-1.234-.26-2.411-.087-3.63-.003-.321.025-.668-.038-.99-.02-.916.047-1.986-.296-2.797.161-.097.055-.757-.084-1.129-.052-.491.041-1.05.265-1.361.215-.622-.099-1.088.029-1.634.023-.527.007-1.058-.026-1.587-.032-.136.002-.271.017-.423.033-1.402.141-2.808.04-4.21-.015-.188-.011-.419-.116-.554-.093-1.26.194-2.618.057-3.887.163-1.014.089-1.897.121-2.742-.177-.51-.175-.847-.13-.834.194.018.202-.371.046-.545.008-.348-.083-.507-.141-.952.027-.61.225-1.838.019-2.417.406a1.47 1.47 0 0 1-.563-.012c-.599-.221-1.261-.192-1.97-.114-.388.039-.798.025-1.208.017-.683-.011-1.586-.201-1.624.32 0 0-.304.024-.442.006-.499-.054-1.093-.025-1.421-.257-.127-.093-2.45-.344-2.687-.32-.134.015-.321.032-.352.066-.22.206-.467.108-.763.031s-.792-.279-.622.103c.002.013-.234.044-.351.066-.172-.396-.854-.204-1.292-.151-1.669.193-2.878.21-4.468-.045-.588-.093-.935.398-1.494.055-.98.467-1.785.235-2.615-.085-.088-.033-.457.04-.692.071.422.143.73.348-.166.239-.517-.067-.651.151-.913.08-.507-.141-.938-.007-1.414 0-.391.006-.867-.17-1.134.09-.015.021-.529-.006-.547-.026-.116-.336-.685-.227-1.105-.16-.336.052-.647.381-.805-.049-.089-.228-.521-.303-1.051-.323-.111-.1-.247-.28-.298-.28-.373.026-.83.052-1.076.157s-.193.314-.404.431c-.584.326-1.513.413-2.677.166-.625-.133-.946-.095-1.498.021-.652.138-.85.026-.447-.23.049-.028-.06-.1-.099-.154l-.419.073c-.099.035-.179.09-.226.138-.408.391-.54.44-1.322.269-.487-.108-.671-.072-1.121.036-.5.122-1.24.227-1.684-.152-.166-.146-.722-.26-1.176-.004-.325.174-.294-.043-.434-.095-.123-.046-.312-.063-.486-.095.142-.124.215-.26.428-.357.114-.056.808.266.603-.117-.142-.255-.153-.376.613-.198.174.038 1.238-.443 1.18-.523-.021-.04-.244-.057-.332-.097-.213-.092-.772-.063-.456-.338.206-.179.225-.341.82-.349.621.275 1.383.217 2.196.165.373-.026.844.103 1.129.052.318-.065.47-.263.749-.389a7.93 7.93 0 0 1 .875-.316c.116-.035.268-.051.419-.074.039.054.148.133.116.154-.527.203.129.295.244.442-.115.049-.315.092-.344.154-.085.19-.101.387-.114.623a271.73 271.73 0 0 1-.004-.04c-.1.022-.218.044-.283.078-.016.007.074.06.128.093.065-.035.131-.063.192-.138.503-.095 1.17-.064 1.35-.337.212-.3-.903-.19-.908-.433.575-.049.288-.207.26-.335-.074-.256.229-.294.732-.2.26.05.456.142.732.179.725.098 1.057-.184 1.577-.279.251-.051.18-.644-.171-.761-.281-.097-.783-.185-1.104-.147-.843.1-1.631.057-2.391-.061-.397-.062-.389.033-.588.089-.731.206-.754-.05-.84-.441-.04-.067-.086-.006-.097.055.005.054.043.101.082.154.115-.049.315-.099.327-.153.012-.061-.131-.133-.312-.056-1.082-.1-1.723.362-2.585.435-.237.024-.851.012-1.011-.067-.161-.086-.289-.178-.466-.25-.036-.02-.187.003-.306.004.5.446-1.327.208-1.104.61.101.174-.326.167-.721.132-.79-.07.966-.433-.363-.434-.733-.003-.368-.306-.526-.547.012-.054-.053-.02-.118.015l.227.058c.047-.041.095-.076.126-.117-.001-.007-.105-.026-.235.044-.145.09-.281.099-.28.105.019.216.213.477-.011.629-.386.255-1.389.087-2.031.346-.329.133-1.315-.407-1.914-.061-.615.367-1.284-.07-1.848.101-.066.021-.447-.048-.451-.088-.16-.45-.477-.372-.908-.055-.128.096-.271.207-.469.277-.116.042-.373.026-.559.035.046-.061.108-.13.119-.198-.007-.074-.065-.148-.089-.228-.134.029-.302.052-.4.1-.229.105-.692.077-.685.341.018.202-1.035.238-1.628.091-.314-.077-.675-.119-.988-.189-.54-.127-.748.024-.973.169l-.53-.405c-.099.035-.25.064-.314.106-.047.041.045.121-.02.156-.357.201-.788-.05-1.039.008-.384.087-.604.292-1.005.386-.35.086-.873.147-1.218.098-.518-.074-.943-.25-1.676-.449-.173-.025-.049.028.075.08.048-.034.163-.077.145-.09-.109-.08-.235-.145-.36-.218-.03.048-.077.096.14.228-.168.401-.85.397-1.564.232-.418-.102-.535-.073-.95.047-.879.269-1.571-.228-2.473-.222-.119.002-.2-.328-.371-.339-.635-.052-1.335-.062-1.98-.033-.509.021-.963.088-1.108-.194a1.77 1.77 0 0 0-.547-.013c-.309.167-.583.333-1.163.138-.081.048-.179.09-.243.139-.08.055-.126.117-.189.172-.348-.272-1.499.197-1.643-.274-.373.026-.903-.001-1.117.083-.361.154-.674.084-1.029.109-.83.059-.788-.428-1.68-.307-.556.075-1.298-.036-1.95-.081l-1.137-.133c-.188-.004-.571.096-.566.15.03.337-.345.329-.887.175-.594-.16-1.157-.362-1.846-.068-.407-.163-.713-.348-1.487-.236-.454.067-1.056.001-1.57-.032-.206-.011-.418-.102-.527-.175-.091-.06-.048-.155-.055-.236l.481.04c.72.044 1.498.168 2.139.105 1.148-.118 2.28-.032 3.4-.089.153-.002.286-.038.438-.054.022.25.413.231.886.19 1.539-.13 3.053-.341 4.644-.079.242.044.811-.079 1.039-.19.31-.153.518-.305 1.044-.136.861-.276 1.395-.216 1.589.234.003.027.242.044.38.062.038-.149-.103-.39.55-.325.327.036.548.222.847.326.369.123.43.041.383-.1l2.373-.898c.693-.057 1.546-.238 2.049-.144.71.132 1.777-.133 2.194.341.001.013-.001-.014-.004-.04-.1.022-.217.044-.282.078-.016.007.073.06.127.093.065-.035.131-.063.192-.138.387-.053.858-.127 1.169-.071.745.138 1.359-.046 2.02-.083.085-.001.102-.191.144-.293l.48.034.799-.025a3.28 3.28 0 0 0 .704-.132c.231-.084.408-.195.604-.292.133.154.266.307.506.506-.136.002-.242-.037-.309-.029-.186.016-.353.052-.521.082.037.033.111.1.128.1.219-.023.438-.054.702-.152l-.167.036zm32.907 2.324l-.196.097.227.058c.047-.041.096-.076.126-.117-.001-.007-.105-.026-.271.207-.002-.027-.021-.047-.041-.074-.1.022-.218.044-.283.078-.016.007.074.06.128.093.065-.035.131-.063.327-.342h-.017zm58.465-2.591l-.195.097.226.058c.048-.041.096-.076.126-.117 0-.007-.104-.026-.081.238-.26-.05-.349-.09-.416-.082-.186.016-.353.052-.521.082.037.033.111.1.128.1a1.04 1.04 0 0 0 .75-.376h-.017zm55.212 1.961l-.547.17c.189.018.38.055.549.04.236-.024.453-.081.687-.125-.223-.024-.43-.055-1.709-.057l.246.078.145-.09-.294-.05c-.017 0-.064.041.923.034zm-39.239.394c-.212.098-.428.161-.392.181.093.087.253.159.395.231.165-.063.416-.121.443-.189.03-.054-.249-.125-1.345-.177l.246.078.145-.09-.294-.05c-.017 0-.064.041.785.016h.017zm128.907-3.123s-.021-.047-.041-.074c-.1.022-.217.044-.282.078-.016.007.073.06.128.093.065-.035.13-.063.172-.171l.838.035c-.129-.295.09-.319.668-.151.945.277.74-.105 1.068-.434l-.196.097.227.058c.047-.041.095-.076.126-.117-.001-.007-.105-.026-.312.133-.78-.151-1.555-.052-2.297.039-.118.015-.082.224-.082.413h-.017zm-207.82.97l-.226.138c-.228.118-.353.241.031.344.314.083.635.234 1.046.08.05-.014-.288-.172-.399-.271-.092-.073-.066-.161-.157-.234-.037-.027-.191-.038-.294-.05l-.001-.007zm205.27-.907c-.177.117-.373.208-.337.228.249.118.53.215.813.326.145-.09.473-.23.419-.263-.197-.112-.527-.182-.878-.292h-.017zM100.749 5.429c.266.118.447.23.497.223.336-.052.925.048.953-.209-.006-.061-.238-.179-.305-.171-.356.025-.691.091-1.145.158zm64.231 1.644l-.916.236c.295.05.628.16.881.136s.444-.182.657-.273l-.639-.099h.017zM73.369 5.445l.436.298c.042-.102.032-.21.144-.293.144-.103.291-.173-.089-.235l-.484-.081c.007.074-.02.156-.013.23.002.027.005.054.041.08h-.034zm214.608 2.501l-.005-.054-1.509-.1c-.017 0-.128.09-.091.116.198.126 1.124.187 1.492.107.05-.014.081-.042.113-.062v-.007zm-147.27-4.205c-.158.137-.322.214-.315.295.004.04.247.091.388.136.147-.07.328-.133.406-.215.031-.034-.214-.105-.462-.216h-.017zm-12.231 1.741l.393.204c-.009-.101-.002-.209-.028-.31-.007-.081-.066-.168-.141-.241-.019-.027-.191-.038-.293-.043-.034 0-.116.042-.114.062.025.081.083.161.166.329h.017zm-2.748 2.025l-.412.155.899.332c-.007-.074.07-.163.013-.23-.111-.093-.305-.171-.484-.263l-.016.007zM97.617 8.872l-.415-.258c-.145.09-.475.209-.42.256.111.1.44.156.668.234l.149-.239.018.007zM68.468 5.136l-.415-.258c-.146.083-.476.203-.421.249.111.1.424.163.669.241.044-.075.106-.143.166-.232zm-5.009.382c-.209.138-.405.229-.369.255.126.073.319.131.526.161.052.006.331-.106.31-.153-.041-.08-.235-.145-.467-.264zm-4.458.448c-.041.109-.12.184-.067.197.264.091.56.168.857.245.013-.047.108-.123.055-.143-.231-.105-.511-.189-.828-.299h-.017zm232.12-2.841c-.061-.107-.106-.221-.183-.322-.002-.02-.206-.017-.309-.029l.344.603c.083-.028.216-.057.23-.091.012-.054-.044-.108-.082-.161zm-88.585 3.599l.415.251c.145-.09.475-.209.402-.262-.111-.1-.44-.156-.685-.227l-.149.239h.017zM73.312 9.162l-.323-.178-.554.285c.121.019.278.057.362.042.184-.036.349-.1.515-.149zm52.685-2.07l-.459-.365c-.063.055-.211.118-.172.171.043.101.188.193.299.286l.349-.093h-.017zm46.679 1.238l-.921.182c.138.025.297.084.432.068.254-.017.487-.074.722-.118l-.234-.139.001.007zm-57.745-3.594l-.698-.179c-.027.075-.153.191-.083.211.175.052.432.061.655.079.017 0 .078-.075.126-.11zm-2.909 1.94l.587.093c.086.006.2-.05.317-.079l-.718-.22c-.047.048-.077.096-.169.205h-.017zm-2.738 1.573c-.044.082-.105.164-.114.252.003.034.16.072.266.111l.397-.323-.549-.033v-.007zm-53.5-2.627l-.487.27c.188.011.499.054.53.026.13-.069.155-.171.181-.266-.001-.007-.19-.024-.241-.03h.017zm31.74 3.942l-.432-.257c-.027.075-.122.157-.082.224.06.094.238.179.348.272.044-.075.106-.15.166-.239zM208.14 7.266l.378-.154-.832-.157c-.013.047-.092.116-.038.142.142.066.333.11.491.162l.001.007zm16.003-1.287l-.433-.257c-.027.075-.122.157-.082.224.06.094.238.179.349.272.044-.075.105-.15.166-.239zm68.5 2.131l-.572-.107c-.086-.006-.217.05-.317.079l.703.233.187-.199-.001-.007zM79.934 9.467l-.697-.179c-.027.075-.153.191-.083.211.175.052.431.061.655.079.017 0 .078-.075.126-.11zm15.847-2.258l-.611.022c-.051.001-.061.075-.109.116l.58.005c.051-.001.078-.075.14-.144zm10.843-.12l.338.164c.047-.048.161-.104.124-.144-.058-.067-.199-.126-.307-.192l-.156.164.001.007zm1.666-.037l.394.028c.03-.048.11-.11.056-.143-.073-.053-.229-.085-.335-.124-.03.048-.042.102-.115.238zm8.41 1.239l-.499.135c.138.025.279.07.415.075.103-.001.2-.05.317-.079l-.233-.132zm3.919-1.319l-.338-.164c-.047.048-.161.104-.124.144.057.067.199.126.307.192l.156-.164-.001-.007zm3.342-2.25l-.072.156c.121.012.277.043.377.022.134-.029.214-.091.312-.133l-.6-.046h-.017zm8.137 4.27l.394.028c.03-.048.092-.109.055-.143-.073-.053-.229-.085-.334-.124-.03.048-.042.102-.115.238zm7.332-.32l-.321.038c.007.074.065.148.122.214l.253-.024c-.006-.074-.03-.148-.072-.235l.018.007zm2.445-4.258l-.313.126c.189.011.379.042.565.033.102-.001.182-.07.281-.105l-.516-.053h-.017zm15.023 4.111l.313-.126c-.189-.011-.379-.042-.566-.033-.102.001-.181.07-.28.105l.516.054h.017zm6.427.037l.395.028c.03-.048.109-.11.055-.143-.073-.053-.229-.085-.335-.124-.03.048-.042.102-.115.238zm2.457-4.129c-.079.075-.176.131-.155.171.057.067.199.126.307.192.047-.048.144-.103.123-.144-.041-.074-.165-.133-.275-.212v-.007zm2.843 1.304l-.498.135c.138.025.278.07.415.075.102-.001.2-.05.317-.079l-.234-.132zm8.766-2.752l-.32.038c.007.074.064.148.121.214l.254-.024c-.007-.074-.031-.148-.073-.235l.018.007zm9.796.929l-.342-.198c-.063.055-.177.111-.189.165.003.04.126.079.198.126l.333-.093zm7.128 3.662l.318.124c.027-.075.106-.15.082-.224-.003-.04-.177-.072-.265-.111-.045.075-.107.143-.135.205v.007zm79.367.754l-.071.156c.12.012.276.037.359.022.134-.029.214-.091.312-.133l-.6-.046zm10.073.418c.124.052.232.112.283.111.185-.023.352-.066.519-.095-.071-.033-.161-.092-.212-.092-.187.009-.354.046-.572.082l-.018-.007zm2.001-4.461l-.342-.198c-.063.055-.177.111-.189.165.003.04.126.079.199.126l.332-.093zm-201.955.259l-.312.126c.188.011.379.042.565.033.102-.001.181-.07.28-.105l-.516-.054h-.017zM51.867 6.966c-.132.049-.281.092-.279.112.058.074.166.14.24.206.083-.028.233-.064.231-.084-.024-.074-.115-.14-.208-.227l.016-.007zm10.601-.914c.008.094.015.169.056.242.002.02.19.024.294.043-.007-.074.037-.156.013-.23-.002-.02-.19-.031-.363-.056zm9.367 3.732l-.611.022c-.051.001-.061.075-.109.116l.58.005c.051-.001.079-.075.141-.144zm5.659-.546c-.078.075-.176.131-.155.171.057.067.199.126.307.192.047-.048.144-.103.123-.144-.041-.074-.165-.133-.275-.212v-.007zm12.057-.833c.008.094.015.169.056.242.002.02.189.024.293.043-.007-.074.037-.156.013-.23-.002-.02-.19-.031-.363-.056zM59.633 5.417s-.114.056-.096.069c.038.04.125.066.196.099.032-.021.114-.056.096-.062-.038-.04-.125-.066-.196-.099l-.001-.007zm.864.508l-.174-.045c-.03.041-.061.082-.074.123.001.014.105.026.158.045l.092-.116-.001-.007zm5.027.571l-.231.084c.052.013.14.045.157.038.101-.015.166-.05.249-.078l-.174-.045zm.178-1.057l-.113.069c.103.012.207.031.309.029.034 0 .064-.041.114-.062l-.293-.036h-.017zm1.329-.377l-.213-.092c-.032.021-.114.056-.096.062.038.04.125.066.196.099.032-.021.081-.042.113-.069zm5.413 4.477l-.231.084c.052.013.14.045.174.038.101-.015.166-.05.249-.078l-.174-.045h-.017zm-1.492-3.127l.213.092c.032-.021.114-.056.097-.062-.038-.04-.125-.066-.196-.099-.032.021-.082.042-.113.069zm.374-1.33l.113-.069c-.103-.012-.207-.031-.309-.029-.034 0-.064.041-.114.062l.293.036h.017zm3.481 5.16l.213.092c.032-.021.114-.056.096-.069-.038-.04-.125-.066-.196-.099-.032.021-.081.042-.113.069l.001.007zm2.179-.396l-.231.084c.052.013.14.045.174.038.101-.015.166-.05.249-.078l-.175-.045h-.017zm-1.279-5.313l.231-.084c-.052-.013-.14-.045-.157-.038-.101.015-.166.05-.249.078l.174.045zm6.271 4.168s-.114.056-.097.062c.038.04.125.066.196.099.032-.021.114-.056.096-.069-.038-.04-.125-.066-.196-.099l.001.007zm.064-1.366l-.113.069c.103.012.207.031.309.029.034 0 .064-.041.114-.062l-.293-.036h-.017zm.715-2.28l-.174-.045c-.03.041-.061.082-.074.123.001.013.105.026.157.045l.092-.116v-.007zm5.097 1.732l.231-.084c-.052-.013-.14-.045-.174-.038-.101.015-.166.05-.249.078l.174.045h.017zm8.956 2.961l.213.092c.032-.021.114-.056.096-.069-.038-.04-.125-.066-.196-.099-.032.021-.082.042-.113.069v.007zm3.699-4.714s-.114.056-.096.069c.038.04.125.066.196.099.033-.021.115-.056.096-.069-.037-.04-.125-.066-.196-.099zm.479-.737s-.114.056-.097.062c.038.04.126.066.197.099.032-.021.114-.056.096-.062-.037-.04-.125-.066-.196-.099zm7.565 4.352l.231-.084c-.052-.013-.14-.045-.157-.038-.101.015-.165.05-.248.078l.174.045zm1.927-1.115l.213.092c.032-.021.115-.056.097-.062-.038-.04-.125-.066-.196-.099-.033.021-.082.042-.114.069zm2.084.997l-.231.084c.052.013.14.045.174.038.101-.015.166-.05.248-.078l-.174-.045h-.017zm10.32.881l.212.092c.032-.021.114-.056.097-.062-.038-.04-.125-.066-.196-.099-.033.021-.082.042-.113.069zm2.87-3.318l-.213-.092c-.032.021-.114.056-.096.069.038.04.125.066.196.099l.114-.069-.001-.007zm2.024.904l.231-.084c-.052-.013-.141-.045-.157-.038-.101.015-.166.05-.249.078l.175.045zm-.821-2.306l-.113.069c.103.012.207.031.309.029.034 0 .064-.041.114-.062l-.293-.036h-.017zm12.352.366l.212.092c.033-.021.115-.056.097-.062-.038-.04-.125-.066-.196-.099-.033.021-.082.042-.113.069zm5.471 1.72s-.115.056-.096.069c.037.04.125.066.196.099.032-.021.114-.056.097-.062-.038-.04-.126-.066-.197-.099v-.007zm5.056-1.558s.141.045.157.038c.101-.015.166-.05.249-.078-.053-.013-.141-.045-.174-.038-.101.015-.166.05-.249.078h.017zm3.994 1.018l-.175-.045c-.03.041-.078.082-.074.123.001.014.105.026.158.045l.091-.116v-.007zm1.884 1.054l-.175-.045c-.03.041-.077.082-.074.123.001.013.105.026.158.045l.091-.116v-.007zm13.626-3.463l-.113.069.309.029c.034 0 .064-.041.114-.062l-.31-.036zm3.759 2.771s-.114.056-.097.062c.038.04.126.066.197.099.032-.021.114-.056.096-.062-.037-.04-.125-.066-.196-.099zm4.634.184l-.174-.045c-.031.041-.078.082-.074.123.001.014.104.026.157.045l.092-.116-.001-.007zm2.891 1.452l-.231.084c.053.013.141.045.174.038.101-.015.166-.05.249-.078l-.175-.045h-.017zm-1.96-4.168l-.113.069c.104.012.208.031.31.029.034 0 .064-.041.113-.062l-.31-.036zm14.672 3.421l-.231.084c.052.013.141.045.157.038.101-.015.166-.05.248-.078l-.174-.045zm.007-4.27s.141.045.157.038c.101-.015.166-.05.249-.078-.053-.013-.141-.045-.157-.038-.101.015-.166.05-.249.078zm9.729 5.295l.113-.069-.309-.029c-.034 0-.064.041-.114.062l.293.036h.017zm-2.657-4.341s.141.045.157.038c.101-.015.166-.05.249-.078-.053-.013-.141-.045-.174-.038-.101.015-.166.05-.249.078h.017zm3.502 3.315l-.174-.045c-.031.041-.078.082-.074.123.001.014.104.026.157.045l.092-.116-.001-.007zm-1.405-2.169l-.113.069.309.029c.034 0 .065-.041.114-.062l-.293-.036h-.017zm2.389-1.851l.174.045c.031-.041.078-.082.075-.123-.002-.014-.105-.026-.158-.045l-.092.116.001.007zm13.795 4.278l-.113.069c.103.012.207.031.309.029.034 0 .065-.041.114-.062l-.293-.036h-.017zm-2.574-5.119l-.174-.045a.48.48 0 0 0-.075.123c.002.014.105.026.158.045l.092-.116-.001-.007zm10.616 1.714s.141.045.157.038c.101-.015.166-.05.249-.078-.053-.013-.141-.045-.174-.038-.101.015-.166.05-.249.078h.017zm4.758.608l.212.092c.033-.021.115-.056.097-.062-.037-.04-.125-.066-.196-.099-.032.021-.082.042-.113.069zm6.743-1.94s.14.045.157.038c.101-.015.166-.05.248-.078-.052-.013-.14-.045-.157-.038-.101.015-.166.05-.248.078zm25.965-.212l-.231.084c.052.013.14.045.157.038.101-.015.166-.05.248-.078l-.174-.045zm6.313.471s-.115.056-.096.069c.037.04.125.066.196.099.032-.021.114-.056.096-.062-.037-.04-.125-.066-.196-.099v-.007zm4.885 5.62l.113-.069c-.104-.012-.208-.031-.31-.029-.034 0-.064.041-.113.062l.293.036h.017zm-1.088-2.802l-.23.084c.052.013.14.045.156.038.101-.015.166-.05.249-.078l-.175-.045zm1.028-3.731l-.231.084c.052.013.14.045.173.038.101-.015.166-.05.249-.078l-.174-.045h-.017zm3.972 5.896l-.113.069c.104.012.208.031.31.029.034 0 .064-.041.113-.062l-.293-.036h-.017zm1.815-.289l-.175-.045c-.03.041-.078.082-.074.123.001.014.105.026.157.045l.092-.116v-.007zm-.38-2.515l.174.045c.03-.041.061-.082.074-.123-.001-.013-.104-.026-.157-.045l-.092.116.001.007zm4.688 3.623l.231-.084c-.052-.013-.141-.045-.157-.038-.101.015-.166.05-.249.078l.175.045zm1.351.055l.231-.084c-.052-.013-.14-.045-.157-.038-.101.015-.166.05-.248.078l.174.045zm-3.002-5.897l-.174-.045c-.03.041-.061.082-.074.123.001.013.104.026.157.045l.092-.116-.001-.007zm.964-.466l-.231.084c.052.013.14.045.173.038.101-.015.166-.05.249-.078l-.174-.045h-.017zm2.573 1.896l.213.092c.032-.021.114-.056.095-.069-.037-.04-.125-.066-.196-.099-.032.021-.081.042-.113.069l.001.007zm.26-.321l.175.045c.03-.041.078-.082.074-.123-.001-.013-.104-.026-.157-.045l-.092.116v.007zm3.316 4.088l.113-.069-.309-.029c-.034 0-.064.041-.114.062l.293.036h.017zm-.948-3.338l-.231.084c.053.013.141.045.174.038.101-.015.166-.05.249-.078l-.175-.045h-.017zM66.112 8.48l-.216-.125c-.159.131-.242.341-.478.372-.69.091-.599.157-.078.271.191.038.382.082.524.141.088.033.078.107.1.161l-.422.04c-.323.005-.665-.011-.987.014-.102.001-.176.124-.187.192.004.04.181.119.215.119.81-.093 1.278.002 1.378.352.002.02.359.015.565.026l-.015-.162c-.005-.061-.061-.114-.101-.174.203-.016.406-.033.615-.367.374-.201.634-.144.619-.124-.106.143-.264.281-.422.418-.089-.046-.264-.091-.268-.138-.012-.128.028-.257.071-.156.069.58.406.731 1.106.741-.123-.228.411-.161.644-.232.298-.092.508-.223.754-.335-.312-.056-.606-.106-.856-.049-.021.142-.168.212-.352.248-.067.014-.226-.051-.348-.083l.639-.279c.022.054.06.1.061.114.136-.198.486-.284.479-.358-.011-.121-.213-.287-.458-.352-.419-.116-.476-.182-.185-.355.194-.118.161-.293.216-.442-.834.012-1.102.063-1.828.323-.132.049-.388.039-.591.056-.063.055-.143.11-.207.158l.016-.014zm-3.855.899c.103.012.19.031.294.05l-.145.09c-.087-.026-.175-.052-.038-.047.334-.072.386-.249.571-.278.303-.045.701.024 1.057.005.255-.01.851-.012.237-.213-.176-.058-.205-.193-.349-.279-.09-.06-.251-.138-.388-.143-.17.002-.485.095-.467.115.21.247-.16.3-.619.313-.526.021-1.03.109-1.096.313-.078.265-.306.389-.969.399-.068.001-.191.145-.136.198.039.053.264.098.436.109l.925.048c.138.018.216.125.324.191.044-.075.106-.143.117-.218.032-.217.481-.149.766-.2-.061-.107-.122-.221-.391-.366-.176-.058-.128-.093-.111-.093l-.016.007zm-12.149.186c.009.094.102.188.162.281.163-.083.412-.154.472-.243.192-.327-.499-.615-1.291-.522-.354.046-.646.205-1.001.237s-.773-.07-1.163-.051c-.594.029-.667.165-.243.328.089.039.21.065.316.097-.651.334-.168.408.602.437.034-.001.121.208.007.27-.13.076-.803-.022-.508.223.055.046.144.086.216.132l.895-.276c.099-.042-.014-.155-.021-.236-.019-.209-.337-.34-.673-.477-.248-.105.243-.328.472-.243.635.241.755-.126 1.148-.111.538-.075.626-.049.61.154zm3.938-.542c.257.206.582.404.923.595.108.066.349.096.524.141.045-.068.142-.13.136-.198.025-.291-.647-.565-.147-.876-.001-.007-.194-.072-.264-.098-.864.053-1.407.27-1.187.442l.017-.007zm-9.713 1.881l-.535.109.439.149c.535.269 1.012.074 1.479-.034.201-.043.383-.1.582-.157-.244-.057-.474-.149-.731-.165s-.559.042-.829.066l-.422.04.017-.007zm15.365-2.691c-.344-.036-.72.524-.435.655.071.033.294.05.361.029l1.127-.354c-.404-.129-.69-.287-1.069-.329h.017zm-7.239 1.92c-.032.21.48.405.057.628-.017.007.163.113.249.111.528-.001.996-.095 1.08-.299.098-.238-.496-.027-.641-.119-.127-.086-.188-.193-.298-.286-.055-.046-.144-.086-.216-.132-.082.035-.216.064-.213.098h-.017zm13.291.204c.071.033.11.086.197.099l1.086.14c.138.018.307.009.444.014-.041-.074-.017-.189-.138-.207l-1.09-.181-.516.136h.017zm-32.391-.953c.273.003.414.251.789.063a.91.91 0 0 1 .407-.026c.174.045.283.118.408.183-.007-.074.02-.156.013-.23-.064-.337-.614-.194-1.241-.158l-.376.174-.001-.007zm48.825 1.045c.167-.043.437-.067.483-.129.123-.144.16-.3.215-.456l-.828.073c-1.028.123.34.184-.088.346l.219.166zM39.716 9.78c.021.04.181.112.283.111.766-.011.123-.34.592-.427l-.3-.111c-.745.051-.745.051-.575.427zm28.92.624c.21.058.582.032.89.048l-.028-.31-1.351-.055c.163.112.262.26.489.324l-.001-.007zm-42.186.023s.004.04.039.054c.25.132 1.158.186 1.508.1.05-.014.114-.056.114-.062-.055-.04-.127-.086-.213-.092l-1.132-.079-.316.085-.001-.007zm2.654.145s.279.07.312.056l.823-.322-.716-.193-.419.459zm33.905-.595c.073.053.233.132.185.16-.192.138-.152.205.254.165.152-.016.349-.093.361-.154.062-.258-.361-.414-.98-.29.055.04.126.073.18.112l.001.007zm-12.974.103s-.078.075-.109.116l1.215.057c.119-.002.227-.125.34-.194-.139-.025-.295-.063-.449-.068-.12-.005-.271.017-.406.033l-.608.056h.017zm13.651.604l.247.098.876-.303-.744-.125c-.158.137-.303.227-.379.33zm-32.771-.063l.783-.011a4.38 4.38 0 0 0 .609-.056c.067-.008.095-.076.109-.116-.001-.014-.106-.046-.157-.045l-.829.066-.514.156.001.007zm26.481-1.861c.004.04.247.091.387.136.147-.07.329-.133.407-.215.031-.034-.214-.105-.463-.216-.158.137-.321.214-.314.295h-.017zm-10.853 1.897l.795-.254-1.105.029c-.068.001-.073.136-.146.272l.474-.04-.018-.007zm-2.356-.426c.095.107.273.199.419.298.145-.09.426-.188.402-.269-.006-.068-.403-.123-.7-.206-.045.068-.158.137-.103.184l-.018-.006zm-2.88.757c.186-.016.309-.167.454-.256l-.821-.036c-.119.002-.25.064-.382.113.314.077.58.195.766.178h-.017zm-3.133-.928c-.162.097-.426.188-.418.283.005.061.386.123.596.188l.303-.234-.481-.236zm25.444-1.84l.704.254c.081-.048.245-.112.209-.138-.092-.073-.267-.125-.338-.164l-.575.049zm-3.93 1.204l.396-.33c-.12-.005-.293-.036-.359-.015-.165.056-.278.132-.408.195l.388.15h-.017zm-27.687 1.338c-.027.075-.136.198-.066.21.175.052.432.061.671.072.017 0 .062-.075.094-.096l-.682-.193-.016.007zm19.246.106l.199.132c.165-.063.382-.113.46-.189.047-.041-.164-.119-.273-.192-.145.097-.291.173-.369.255l-.018-.006zm-8.938-1.806l.703.233c.047-.048.161-.104.123-.144-.075-.08-.235-.145-.36-.211l-.467.115v.007zm-22.37.783c.057.067.199.126.307.192.047-.048.144-.103.123-.144-.041-.074-.165-.133-.274-.212-.078.075-.176.131-.155.171v-.007zm13.656 1.036c.188.011.379.042.565.033.102-.002.181-.07.28-.105l-.516-.053-.312.126h-.017zm-.205-.761c-.027.075-.106.15-.082.224.004.04.177.072.266.111.044-.075.106-.143.135-.205l-.318-.124-.001-.007zm3.213.677c.121.019.261.064.362.049.168-.023.316-.079.483-.122l-.414-.062-.414.134h-.017zm15.354-1.494c.121.019.261.064.362.049.168-.023.317-.079.483-.122l-.414-.062-.414.134h-.017zm1.98.607c.168-.023.316-.079.483-.122-.121-.019-.261-.057-.362-.049-.186.016-.335.066-.535.109.19.031.33.07.431.061h-.017zm4.616.935c.12.012.277.043.36.022.134-.029.213-.091.312-.133l-.6-.046c.002.027-.043.095-.071.156zm2.862-2.27c.185-.023.352-.066.52-.095-.071-.033-.162-.092-.213-.092-.187.009-.354.046-.572.082.124.052.232.112.283.111l-.018-.007zm8.712.242c.12.012.277.043.36.022.134-.029.213-.091.312-.133l-.6-.046c.002.027-.043.095-.071.156zm3.783-1.885c.12.012.276.037.36.022.134-.029.213-.091.312-.133l-.6-.046c.002.027-.042.095-.071.156zM.595 11.293s.14.045.157.038c.101-.015.166-.05.249-.078l-.174-.045-.231.084zm6.095-.438c-.03.041-.061.082-.074.123.001.013.105.025.158.045l.092-.116-.174-.045v-.007zm3.086-.355l-.309-.029c-.034.001-.065.041-.114.062l.293.036.113-.069h.017zm2.258-.282c-.03.041-.061.082-.074.123.001.014.104.026.157.045l.092-.116-.174-.045v-.007zm1.962.783s.14.045.157.038c.101-.015.166-.05.249-.078l-.174-.045-.231.084zm9.745-.577c-.1.022-.218.044-.283.078-.016.007.074.06.128.093.065-.035.131-.063.213-.098-.002-.027-.021-.047-.041-.074h-.017zm-.041-.074l.227.058c.047-.041.095-.076.126-.117-.001-.007-.104-.025-.157-.038l-.196.097zm.019-3.568s.114-.056.096-.069c-.038-.04-.125-.066-.196-.099-.032.021-.081.042-.113.069l.213.092v.007zm4.561 3.158l-.309-.029c-.034 0-.064.041-.114.062l.293.036.113-.069h.017zm3.854-.156l-.309-.029c-.034 0-.064.041-.114.062l.293.036.113-.069h.017zm2.703.691c.101-.015.166-.05.248-.078-.052-.013-.14-.045-.157-.038-.101.015-.166.05-.249.078.052.013.141.045.157.038zm1.896-1.081c-.103-.012-.207-.031-.309-.029-.034 0-.065.041-.114.062l.293.036.113-.069h.017zm.266.496s.141.045.157.038c.101-.015.166-.05.248-.078l-.174-.045-.231.084zm1.884 1.054a.81.81 0 0 0 .157.038c.101-.015.166-.05.249-.078l-.174-.045-.231.084zm-.532-.986l.227.058c.047-.041.095-.076.126-.117-.001-.007-.105-.026-.157-.038l-.196.097zm2.973-.292c.038.04.125.066.196.099.032-.021.114-.056.097-.062-.038-.04-.125-.066-.196-.099-.032.021-.114.056-.096.069l-.001-.007zm1.173 1.49l.309.029c.034-.001.064-.042.114-.062l-.293-.036-.113.069h-.017zm8.714-.488l.145-.09-.294-.05-.097.062.246.078zm1.452-.906c.103.012.207.031.309.029.034 0 .065-.041.114-.062l-.293-.036-.113.069h-.017zm1.08-.873l.145-.09-.294-.05c-.017 0-.064.041-.097.062l.245.078zm2.983 1.91s-.14-.045-.157-.038c-.101.015-.166.05-.249.078l.174.045.231-.084zm-.493-1.689s.14.045.157.038c.101-.015.166-.05.249-.078l-.175-.045-.231.084zm1.195.591l.309.029c.034 0 .064-.041.114-.062l-.293-.036-.113.069h-.017zm3.052.781l-.309-.029c-.034 0-.065.041-.114.062l.31.036.113-.069zm2.95-2.244l.145-.09-.294-.05c-.017 0-.064.041-.096.062l.245.078zm2.872.101l-.216-.125c-.063.055-.144.11-.207.158l.423-.033zm2.379-.453l.227.058c.047-.041.095-.076.126-.117-.001-.007-.105-.026-.157-.038l-.196.097zm2.445.472c-.103-.012-.207-.031-.309-.029-.034 0-.064.041-.114.062l.31.036.113-.069zm1.169-.267l.227.058c.047-.041.095-.076.126-.117l-.157-.038-.196.097zm205.339.991c-.031.041-.078.082-.075.123.002.013.105.026.158.045l.092-.116-.175-.045v-.007zm12.296.502c.054.04.11.086.197.112.018.006.151-.029.234-.051l-.246-.084c-.068.001-.118.008-.186.016l.001.007zm1.798.103l.309.029c.034 0 .065-.041.114-.062l-.293-.036-.113.069h-.017z" />
</svg>