<svg viewBox="0 0 18 19" fill="none" xmlns="http://www.w3.org/2000/svg">
  <g id="ion:call-sharp">
    <path id="Vector"
      d="M16.4648 13.3217C16.2901 13.1356 15.673 12.5851 14.5386 11.8569C13.3958 11.1222 12.553 10.6642 12.3113 10.5574C12.29 10.5479 12.2665 10.5445 12.2434 10.5474C12.2202 10.5502 12.1983 10.5594 12.18 10.5738C11.7906 10.8775 11.135 11.4353 11.0999 11.4654C10.8728 11.66 10.8728 11.66 10.687 11.5994C10.3602 11.4922 9.34502 10.9531 8.4604 10.0665C7.57578 9.17989 7.00891 8.13957 6.90176 7.81311C6.84049 7.62694 6.84049 7.62694 7.03569 7.39993C7.06583 7.36477 7.62399 6.70917 7.92768 6.3201C7.94208 6.30178 7.95122 6.27988 7.95411 6.25675C7.957 6.23363 7.95354 6.21015 7.94409 6.18885C7.83728 5.94676 7.37923 5.10433 6.64461 3.96155C5.91535 2.82748 5.36556 2.21039 5.17939 2.03561C5.16231 2.01949 5.1412 2.00827 5.11827 2.00315C5.09535 1.99802 5.07147 1.99917 5.04915 2.00648C4.39839 2.23011 3.77052 2.51546 3.1741 2.85862C2.59833 3.19333 2.05323 3.5782 1.54515 4.00877C1.52741 4.02384 1.51411 4.04347 1.50668 4.06553C1.49925 4.08759 1.49796 4.11126 1.50296 4.13399C1.57294 4.46012 1.90743 5.82154 2.94541 7.7073C4.00447 9.63191 4.73842 10.618 6.29371 12.1679C7.849 13.7178 8.86621 14.496 10.7928 15.5551C12.6786 16.593 14.0407 16.9279 14.3661 16.9972C14.3889 17.0021 14.4126 17.0008 14.4347 16.9934C14.4568 16.986 14.4765 16.9727 14.4917 16.955C14.9222 16.4469 15.3069 15.9018 15.6415 15.326C15.9846 14.7296 16.2699 14.1017 16.4936 13.451C16.5008 13.4288 16.5019 13.4052 16.4968 13.3824C16.4918 13.3597 16.4807 13.3388 16.4648 13.3217Z"
      fill="currentColor" />
  </g>
</svg>