<svg xmlns="http://www.w3.org/2000/svg" viewBox="0 0 97 10" fill="currentColor" xmlns:v="https://vecta.io/nano">
  <path
    d="M86.33 3.738c-.06-.081-.133-.071-.202.017-.082.101-.146.122-.11-.094 0 0-.062-.042-.075-.029-.198.22-.389.078-.568-.039-.133-.085-.244-.357-.377-.008 0 .01-.046-.003-.052-.018-.064-.178-.192-.123-.289-.172-.137-.071-.136.016-.067.155-.047.007-.104.042-.139.021a3.06 3.06 0 0 1-.404-.319c-.135-.134-.263-.19-.399-.024-.051.064-.074.058-.118-.031-.109-.224-.308.01-.438-.162-.013-.015-.088.082-.136.122-.017.013-.04.007-.06.011.008-.395-.168-.126-.241-.116-.063.011-.093.019-.114-.065-.038-.166-.108-.142-.202-.099a.45.45 0 0 1-.348.022c-.288-.104-.292-.09-.551.063.009.03-.002.063-.019.081-.003.005-.029-.021-.045-.037.017-.018.031-.037.068-.054.001-.039-.01-.126-.026-.127-.099-.006-.202-.003-.302.025-.033.012-.075.097-.084.159-.028.187-.062.189-.127.031-.025-.064-.059-.134-.104-.166s-.108-.04-.152-.019c-.188.1-.351.128-.474.058-.007 0 .007 0 .02.006-.011.028-.022.061-.039.08-.003.005-.029-.021-.045-.037.017-.018.031-.037.068-.054-.028-.074-.068-.163-.122-.229-.035-.041-.087-.063-.134-.061-.016-.001-.036.094-.041.152s-.003.116.015.165c.043.123-.018.158-.059.103-.268-.33-.617-.264-.921-.418-.026-.011-.052-.018-.079-.014-.256.042-.263.057-.365-.085-.064-.086-.104-.074-.174-.035-.118.065-.248.101-.371.147-.137.05-.321.019-.569-.107-.01-.001-.015-.035-.022-.05-.261.337-.61-.162-.868.194-.273-.157-.548.208-.813-.006-.123-.099-.29.209-.377-.105l-.23.165c-.027.018-.058.074-.071.063-.211-.138-.208-.133-.364-.123-.079.005-.158-.014-.237-.038-.177-.054-.362-.075-.524-.181-.139-.095-.296.064-.43-.113-.045-.061-.173.033-.262.023-.082-.005-.16-.058-.229.049-.037-.079-.071-.168-.116-.239-.022-.035-.087-.078-.101-.064-.103.139-.213.045-.311.005s-.156.01-.227.078c-.031.032-.098.076-.104.066-.201-.355-.438.075-.649-.073-.259.168-.517.056-.78-.004-.236-.058-.458-.279-.714-.13-.094-.165-.198-.258-.335-.093-.084-.189-.229.165-.309-.072-.144.078-.28.191-.445.079-.075-.048-.16-.063-.243-.077-.049-.008-.106-.006-.153.025-.212.142-.269.148-.565-.015-.081.164-.207-.152-.286.06-.007.024-.064.04-.073.025-.118-.171-.262-.204-.406-.145-.107.042-.171-.271-.293-.047-.098.182-.254-.02-.338.042-.149.112-.264-.026-.393-.014s-.25.081-.376.088-.264-.016-.392-.038c-.036-.002-.08-.087-.107-.074-.108.061-.091-.271-.218-.129-.133.151-.127-.172-.227-.159l-.421.057c-.013-.001-.02.11-.032.196 0 .01 0-.01.001-.029.019.016.042.031.055.056.003.005-.014.043-.025.066-.012-.025-.025-.045-.037-.099-.179-.233-.172-.218-.355-.055-.156.14-.331.25-.5.361-.024.013-.085-.029-.1-.074-.068-.178-.207-.181-.29-.157-.266.061-.508-.04-.75-.142-.193-.079-.007.255-.132.214l-.324-.106c-.121-.041-.246-.068-.364-.123-.098-.045-.212.118-.308-.081-.025-.05-.191.099-.295.011-.18.274-.38.117-.574.062-.167-.049-.331-.117-.448.161-.014.028-.14-.081-.224-.047-.019-.373-.081-.309-.206-.066-.025.052-.186-.079-.267-.035-.134.069-.155-.265-.307-.139-.078.063-.205-.003-.307.001l-.348.018c-.066.001-.132.002-.195-.012-.22-.062-.437-.195-.661-.001-.159.14-.256-.184-.416-.127-.137.05-.281.113-.427.018-.042-.027-.049-.259-.123-.08-.046.108-.07.145-.149.112-.065-.028-.134-.052-.203-.065-.132-.022-.213.267-.374.127-.11-.094-.23-.173-.354-.234-.029-.016-.081.048-.142.117.026.002.047-.026.06-.021.036.012.068.038.101.059l-.025.071c-.043-.017-.085-.039-.136-.11-.121-.041-.288.016-.398-.072s-.157-.077-.258-.011c-.084.058-.205.002-.307-.004-.001.029-.006.082.001.082.068.043.18.059.034.19-.095.086-.144.049-.196-.075-.034-.084-.041-.176-.169-.121-.151.068-.325-.097-.505-.016-.141.064-.22-.177-.333-.266-.045-.037-.119-.118-.122-.114-.178.313-.34-.122-.485-.029-.205.123-.369-.042-.553-.067-.118-.022-.226-.086-.349.047s-.243.053-.357-.108c-.064-.091-.185-.224-.246.053-.004.024-.126.026-.129.011-.056-.245-.149.025-.23-.043-.142-.12-.138.079-.171.202-.029.104-.158.092-.146.02.045-.297-.16-.203-.219-.322-.016-.03-.071-.062-.078-.048-.148.208-.306.073-.464.044-.168-.029-.34-.03-.508-.045s-.345-.069-.508-.031c-.093.023-.177.067-.268.022-.078-.039-.104.066-.151.097-.121.08-.267.071-.403.096l-.266.037a.5.5 0 0 1-.339-.049c-.108-.055-.279.041-.406.087-.147.049-.268.003-.392-.038-.164-.058-.261.1-.36.215-.109.129-.178.091-.254-.035-.085-.135-.168-.271-.295-.076-.097.149-.227-.043-.305.015-.199.147-.408.062-.608.123-.023.008-.067.025-.073.015-.09-.203-.226-.081-.337-.117-.337-.117-.638.01-.956.14-.177.071-.386-.019-.569.115-.017.013-.062-.013-.072-.038-.048-.157-.14-.177-.237-.154-.113.027-.255.018-.331.115-.282.369-.608.21-.911.182-.148-.014-.285.007-.424.037-.113.022-.143.136-.108.312.015.068.009.15.004.227-.001.034-.025.066-.036.099-.016-.015-.039-.026-.051-.051-.031-.065-.052-.162-.094-.194-.055-.042-.173-.073-.184-.05-.118.326-.189.153-.27-.04-.012-.03-.052-.037-.081-.058-.008.038-.029.08-.023.11.029.161.124.403.083.468-.097.163-.048.296-.039.447-.001.024.038.041.147.062.049.008.019.03-.01.019a.13.13 0 0 1-.064-.071c.018-.057.046-.103.071-.155.028.064.056.129.004.208-.18.163-.011.39-.158.555-.02.023.193.07.116.219-.094.178-.097.284.046.365.101.059.035.161.039.249l.061.882c.009.15.201.128.14.303-.054.146.022.267-.012.41-.034.133.086.102.192.094.034-.017.009.02-.015.057-.009-.025-.032-.055-.028-.064.021-.057.046-.103.07-.155.006.034.015.068-.028.162-.048.171-.162.343-.044.403.072.038.214.259.296-.055.022-.081.136.11.214.013l-.006.222c.053.003.118.036.152 0 .075-.068.125-.215.199-.244.053-.021.129.1.197.152s.853.124.93.075c.05-.031.095-.081.142-.122.136-.122.26-.298.442-.205.009-.072.261-.09.023-.221-.01-.005-.025-.035-.022-.045.008-.029.025-.071.038-.07.04.002.092.006.118.041.111.156.224.279.38.124.014-.014.049.017.072.038.132.114.422.291.443.249.151-.329.377-.127.56-.169.203-.05.418.054.63.057.165.005 0-.13.021-.168.035-.061.089-.091.136-.137.126.331.423-.119.542.255.12-.027.246-.033.359-.084.157-.068.311-.131.548-.078.138.032.259-.023.382-.073.174-.076.191-.095.452-.074.02.001.046.022.056.003.147-.175.293-.175.436.007.016.02.045.056.052.047.275-.259.564.034.848-.06.26-.086.553-.029.792-.174.165-.101.244.251.372.047l.385.192c.096-.356.252-.028.372-.069.234-.082.449.027.672.094.017.001.041-.031.058-.05-.019-.025-.038-.055-.061-.071-.049-.032-.108-.035-.032-.137.041-.055.156-.131.228-.107.075.029.159.116.216.085.091-.048.148-.083.204.056.006.015.063.004.086-.014.095-.081.184-.211.264.026 0 0 .056-.011.057-.026.01-.125.055-.195.133-.127.029.026.009.16.037.195.048.061.142.134.172.107.122-.108.194-.085.265.088.016.035.081.053.118.041.247-.077.478.058.715.101.079.014.177-.071.252-.144.123-.123.155-.087.139.115 0 .019.044.065.058.057.285-.132.601.138.88-.145.044-.046.138.032.189-.008.088-.067.165.377.241.005.026.026.058.042.077.077.05.085.066.241.176.194.1-.042.221-.199.296-.045.088.174.242-.125.287.128 0 .014.058.033.076.014.085-.101.245-.024.275-.249.076.101.158.246.264.151.126-.118.246.082.348-.013.115-.109.211.013.313.029.122.022.243.073.364.114.052.018.12.075.161.048.469-.339.984.059 1.457-.182.047-.026.104-.047.15-.034.311.101.625.125.941.057.047-.012.122.017.15.067.144.274.313.053.459.033.153-.02.44-.118.571-.096.211.037.428-.056.633.077.013.01.071-.058.075-.092.015-.168.057-.262.184-.187l.335.18c.01.005.022.05.022.05.105-.09.191-.191.328-.024.061.076.208.003.314-.01.03-.003.06-.03.091-.048-.036-.026-.078-.039-.1-.083-.019-.04-.03-.118-.019-.16.011-.033.068-.068.094-.057.059.033.11.089.165.14.048.046.082.367.148.009.029.011.059.018.082.044l.211.24c.013.01.074-.039.071-.058-.002-.058-.085-.169.017-.149.408.068.82.006 1.223.132.174.054.372.066.542.009.12-.041.211.018.316.034.082.01.014-.26.143-.155a1.21 1.21 0 0 0 .211.143c.134.071.262.098.382-.059.024-.032.11-.022.135.018a.35.35 0 0 0 .439.157c.06-.021.15-.025.194.021.208.23.429.142.652.107.076-.01.161.034.24.053.066.014.15.072.197.036.24-.183.468-.059.704.004.062.018.13-.026.192-.013.178.035.386-.208.542.12.019.04.147-.059.219-.035.095.03.203.191.263.156.121-.07.211.022.317.019.102.006.205-.017.308-.02.026.002.053.013.082.024.272.103.545.033.817-.004.037-.007.082-.082.108-.066.244.14.508.045.754.123.197.065.368.09.532-.122.099-.124.165-.091.161.14-.004.145.072.033.106.006.068-.059.099-.1.184.021.118.162.357.017.468.294.009.025.089.02.109-.008.117-.157.245-.135.382-.078.075.029.155.019.234.014.132-.006.308-.141.314.231 0 0 .059.018.086.005.097-.038.212-.016.276-.181.025-.066.476-.242.522-.224.026.011.062.023.068.048.042.147.09.078.148.023s.154-.198.12.075c0 .01.045.032.068.048.034-.283.166-.144.251-.106.323.14.558.154.867-.025.114-.066.18.286.29.042.189.335.346.171.507-.056.017-.023.088.029.134.052-.082.101-.143.247.031.171.1-.047.126.109.177.059.099-.1.182-.003.274.002.076.005.169-.12.22.066.003.015.103-.003.106-.018.023-.24.133-.161.215-.113.065.038.124.273.156-.034.018-.163.102-.216.205-.229l.058-.199c.072.019.161.039.208.114s.037.224.077.309c.112.234.292.298.519.123.122-.094.184-.066.29.018.126.099.165.02.087-.164-.009-.02.012-.072.02-.11.026.016.059.028.081.053s.035.065.044.099c.078.28.103.315.256.194.095-.076.13-.05.217.028.097.088.24.164.327-.106.033-.104.141-.185.228-.001.063.124.057-.03.085-.067s.061-.045.094-.067c-.027-.089-.041-.186-.082-.256-.022-.04-.157.188-.117-.084.028-.182.031-.268-.118-.142-.034.027-.239-.319-.227-.376.004-.029.047-.041.065-.068.042-.065.15-.044.09-.241-.039-.128-.043-.244-.158-.251-.121.195-.269.153-.426.114-.072-.019-.164.072-.219.035-.061-.047-.091-.189-.144-.279a1.62 1.62 0 0 0-.169-.227c-.022-.025-.052-.037-.081-.053-.008.038-.029.095-.023.11.102.146-.026.211-.049.316.022.035.061.066.066.11.016.136.019.276.02.445 0 .01 0-.01.001-.029.019.016.042.032.055.056.003.005-.014.043-.025.066-.013-.025-.025-.045-.037-.099-.097-.069-.227-.047-.261-.243-.04-.215.176-.134.177-.308-.111-.036-.055-.148-.049-.24.015-.183-.044-.21-.141-.144-.051.036-.089.101-.142.127-.141.069-.205-.133-.305-.202a.89.89 0 0 1 .035-.543c.055-.069.153-.131.215-.103.163.073.316.043.464-.04.077-.044.075.024.114.065.141.149.146-.035.164-.313.008-.048.017-.004.019.04-.001.039-.009.072-.016.11-.022-.035-.061-.071-.063-.11s.026-.095.061-.04c.21-.069.333.261.5.315.046.017.165.01.196-.046s.056-.127.091-.178c.007-.014.036.002.059.004-.098.317.257.151.212.438-.02.124.063.12.139.095.154-.049-.186-.311.072-.309.142-.001.072-.218.104-.39-.002-.039.01-.014.023.011l-.044.041-.024-.084c0-.005.02-.018.045.032.028.064.054.071.054.076-.004.154-.043.34 0 .449.074.183.269.065.393.251.063.096.256-.289.371-.04.118.263.249-.048.358.075.013.015.087-.033.088-.062.032-.321.094-.265.176-.038.025.069.052.148.09.199.022.03.072.019.108.026-.009-.044-.021-.093-.022-.141s.013-.105.018-.163c.026.021.058.037.077.072.044.075.134.056.132.245-.004.145.2.171.316.067.061-.054.131-.084.192-.133.105-.09.145.018.188.122l.104-.288c.019.025.048.046.061.076s-.009.086.004.111c.069.144.153-.034.201.007.074.062.116.21.194.277.068.062.169.107.236.072.101-.052.184-.177.326-.318.034-.017.009.02-.015.057-.009-.025-.031-.055-.028-.064.022-.057.046-.103.071-.155.006.034.015.068-.028.162.032.287.164.285.303.168.081-.072.104-.052.184.035.17.194.305-.16.48-.154.023.001.04-.234.073-.242a.86.86 0 0 1 .384-.02c.099.016.187.064.216-.137 0-.014.093-.033.106-.008.059.119.112.238.225.1l.047.099c.015.04.024.084.036.123.068-.194.29.143.319-.193.072.019.175.001.217.061.07.11.13.061.199.08.161.044.154-.304.327-.217.108.055.252-.023.378-.054.077-.02.148-.083.221-.093.036-.003.11.069.109.108-.007.241.066.236.172.126.116-.114.225-.257.358-.046.079-.116.139-.247.289-.166.088.049.205.003.305-.02.04-.007.081-.072.103-.124.018-.042.01-.11.011-.168l-.093.028c-.14.03-.291.118-.415.071-.222-.086-.442-.027-.659-.069-.03-.002-.055-.027-.085-.039-.005.178-.081.164-.172.134-.298-.095-.591-.248-.901-.064-.047.031-.157-.058-.201-.138-.06-.11-.1-.218-.202-.099-.166-.198-.27-.156-.309.165-.001.019-.047.031-.074.044-.007-.107.021-.279-.106-.233-.063.025-.107.158-.165.231-.072.087-.084.029-.074-.072l-.458-.646c-.134-.042-.299-.173-.397-.106-.138.093-.344-.098-.427.24 0 .01 0-.01.001-.029.019.016.042.031.055.056.003.005-.014.043-.025.066-.013-.025-.025-.045-.037-.099-.075-.038-.166-.092-.227-.052-.145.097-.263-.035-.392-.062-.016-.001-.019-.136-.027-.209-.03.008-.063.02-.093.023-.053-.003-.106-.002-.155-.019s-.101-.05-.136-.095c-.045-.061-.079-.14-.116-.21l-.099.361c.026.002.047-.026.06-.021.036.012.068.038.101.059l-.025.071c-.043-.017-.085-.039-.136-.11l.032.026zm-6.39 1.608l.038.07-.044.041-.024-.084c0-.005.02-.018.052.148 0-.019.004-.034.008-.053.019.016.042.032.055.056.003.005-.014.043-.025.066-.013-.025-.025-.045-.062-.245h.003zM68.604 3.401l.038.07-.044.041-.024-.084c0-.005.02-.018.015.17.051-.036.068-.063.081-.058.036.012.068.038.101.059l-.025.071c-.042-.017-.085-.039-.144-.269h.003zM57.888 4.714l.106.122c-.037.012-.074.039-.107.027-.046-.017-.088-.058-.133-.09.044-.017.084-.038.332-.038l-.048.055-.028-.064c.02-.013.037-.027.057-.035.003 0 .012.03-.179.023zm7.611.344c.041.07.083.116.076.13-.018.062-.049.113-.077.164-.032-.045-.08-.087-.085-.135-.006-.039.049-.089.261-.124l-.048.055-.028-.064c.02-.013.037-.027.057-.035.003 0 .012.03-.152.01h-.003zM40.5 2.621l.008-.053c.019.016.042.031.055.056.003.005-.014.043-.025.066-.012-.025-.025-.045-.033-.123l-.163.024c.026-.211-.017-.228-.129-.109-.184.196-.143-.076-.206-.312l.038.07-.044.041-.024-.084c0-.005.02-.018.06.095.152-.107.302-.035.445.032.023.011.015.16.015.295h.003zm40.314 1.025l.044.099c.044.085.068.173-.007.246-.061.059-.124.166-.203.055-.01-.01.056-.122.078-.193.018-.052.013-.115.031-.167.007-.019.037-.027.057-.035v-.005zM40.995 2.67c.034.084.072.149.065.163-.049.084-.104.153-.159.232-.028-.064-.091-.165-.081-.188.039-.08.103-.129.171-.207h.003zm36.458 1.159c-.052.084-.087.164-.097.158-.065-.038-.179.033-.184-.151.001-.043.046-.128.06-.122.069.019.134.066.222.115zM64.988 4.901l.177.17c-.057.035-.122.113-.171.096s-.086-.131-.127-.196l.124-.07h-.003zm17.777-1.016l-.085.212c-.008-.073-.006-.15-.027-.209-.028-.074-.056-.124.018-.168.033-.017.064-.04.094-.057l.002.164c-.001.019-.001.039-.008.057h.007zm-41.64 1.443l.001-.039.293-.069c.003 0 .025.064.017.083a.23.23 0 0 1-.29.074c-.01-.01-.016-.03-.022-.045v-.005zM69.706 2.56c.03.098.062.153.06.211-.001.029-.048.065-.075.097-.028-.05-.063-.096-.078-.154-.006-.024.042-.075.09-.154h.003zm2.368 1.263l-.077.145.006-.222c.002-.058.013-.12.028-.172.004-.019.037-.027.057-.03.007 0 .022.03.022.045-.005.058-.016.115-.033.235h-.003zm.528 1.451l.079.111-.175.236c.001-.053-.013-.117-.002-.164.022-.066.06-.122.095-.187l.003.005zm5.45 1.019l.081-.183c.028.064.092.15.081.184-.022.071-.086.111-.13.166l-.028-.171-.004.005zm5.665-2.622l.081-.183c.028.06.092.146.081.179-.022.071-.083.116-.13.171l-.032-.166zm.971.281c.04.099.078.164.071.183-.025.052-.062.093-.102.114-.01.004-.064-.076-.06-.11.008-.057.046-.103.091-.188zm.864.327c.008.078.023.132.013.141-.051.064-.109.119-.167.173-.002-.034-.021-.088-.01-.102.045-.075.1-.134.161-.212h.003zM40.528 1.879l.036-.23c0-.014.04-.012.06-.02l-.068.43c-.016-.02-.042-.041-.044-.065-.002-.039.009-.077.017-.115zm17.175 2.712l-.081.179c-.028-.064-.092-.15-.077-.188.022-.071.086-.111.133-.161l.028.171h-.003zM82.765 6.54l.063-.127.107.204c-.023.013-.054.04-.07.03-.036-.026-.067-.072-.099-.107zM72.55 4.977l.09-.26c.012.039.041.085.033.123-.009.072-.037.138-.059.204-.029-.026-.055-.052-.067-.067h.003zm-9.059.809l.178.131c-.027.018-.058.059-.084.048-.049-.013-.094-.054-.14-.086l.046-.099v.005zm11.212-2.475l.136-.127c.005.053.029.137.016.151-.034.037-.084.043-.127.055-.003 0-.015-.054-.024-.079zm.559 1.39c-.037.022-.074.053-.114.066-.017.004-.039-.036-.061-.057l.14-.156.032.147h.003zm.527 1.128l.021.18c-.001.024-.031.051-.052.079l-.076-.231c.023-.003.05-.011.106-.023v-.005zm10.386-1.791l.094.194c-.037.007-.097.038-.103.018-.025-.05-.03-.122-.034-.19 0-.005.037-.017.047-.021h-.003zm-6.169 2.765l.085-.183c.005.053.023.112.015.16-.012.067-.047.128-.068.194l-.032-.171zM56.615 4.97l-.073-.111.162-.111c.002.034.017.083.007.102-.028.047-.065.078-.096.115v.005zm-3.101-.945l.085-.183c.005.053.023.112.015.16-.012.067-.047.128-.068.194l-.032-.171zM40.219 5.437c.037-.027.071-.058.111-.075.017-.004.042.036.061.057l-.137.165-.036-.142v-.005zm41.261 1.31l.136-.127c.005.053.029.137.016.151-.034.037-.084.043-.127.055-.003 0-.015-.054-.024-.079zm-3.068-1.638c.046.003.082.005.119.017.01.001.012.054.021.083-.036-.002-.076.01-.112.003-.01-.001-.015-.054-.027-.103zm-2.103-.103l-.066.117c-.009-.034-.031-.074-.023-.103.011-.048.039-.089.06-.136l.03.118v.005zm-.323-.029l-.077.02c-.006-.034-.021-.079-.01-.102.014-.038.045-.06.065-.088l.022.17zm-1.635.872l.096.098c-.027.018-.054.05-.081.053-.02-.001-.039-.036-.061-.057l.046-.094zm-.757-.948l.066-.117c.009.034.031.074.023.103-.011.048-.039.089-.06.136l-.03-.118V4.9zm-.642-1.612l.013.112c-.023.008-.054.031-.073.015-.026-.021-.041-.065-.06-.095.023-.008.05-.011.117-.032h.003zm-1.59 3.037l-.077.019c-.006-.034-.018-.078-.01-.102.014-.038.045-.06.065-.088l.022.17zm-1.422-.24c.026.011.062.023.062.028a.76.76 0 0 1-.024.153s-.049-.013-.049-.017a1.56 1.56 0 0 1 .015-.168l-.004.005zm-.463-3.045l.06.091c-.037.007-.074.029-.11.022-.02-.001-.035-.05-.054-.076l.1-.037h.003zm-2.926 2.913l-.06-.091c.037-.007.074-.029.11-.022.02.001.035.05.054.076l-.1.037h-.003zm-1.247.016l-.077.02c-.006-.034-.021-.079-.01-.102.014-.038.045-.06.065-.088l.022.17zm-.465-2.953c.015.054.034.094.03.122-.011.048-.039.089-.06.136-.009-.034-.028-.074-.023-.103.008-.053.032-.095.054-.151v-.005zm-.555.927l.096.098c-.027.018-.054.05-.081.053-.02-.001-.039-.036-.061-.057l.046-.094zm-1.693-1.98c.026.011.062.023.062.028a.76.76 0 0 1-.024.153s-.049-.013-.049-.017a1.56 1.56 0 0 1 .015-.168l-.003.005zm-1.903.648l.067-.141c.012.039.034.079.036.118-.001.029-.025.056-.039.089l-.064-.067zm-1.393 2.605l-.062.088c-.005-.053-.02-.107-.015-.16.001-.029.035-.051.052-.079l.026.146v.005zm-15.399.412l.013.112c-.023.008-.054.026-.07.015-.026-.021-.041-.065-.06-.095.023-.008.05-.011.117-.032zm-1.955.283c-.024.037-.045.079-.055.079-.036-.017-.068-.048-.1-.069.014-.023.032-.066.041-.065.036.007.069.033.111.06l.003-.005zm-.376-3.189l.067-.141c.012.039.034.079.036.118-.001.029-.025.056-.039.089l-.064-.067zm39.178.508l.06.091c-.037.007-.074.029-.11.022-.02-.001-.035-.05-.054-.076l.1-.037h.003zm6.188 1.779c.025.035.054.066.054.08-.011.052-.032.099-.047.147-.016-.02-.045-.046-.044-.061.005-.053.023-.1.041-.162l-.003-.005zm-2.054-.67l-.011.173c0 .014-.037.017-.057.03l-.002-.164c0-.014.037-.022.071-.039zM83.05 6.987a.46.46 0 0 1 .119.017c.01.001.012.054.021.083-.036-.002-.076.01-.112.003-.01-.001-.015-.054-.027-.103zm-1.096-.399c.015.054.034.094.03.122-.011.048-.039.089-.06.136-.009-.034-.028-.074-.023-.103.008-.053.032-.095.054-.151v-.005zm-2.337-.614l-.011.173c0 .014-.037.017-.057.03l-.002-.164c0-.014.037-.022.07-.039zm5.812-2.087s.022.04.019.049c-.008.029-.025.047-.038.07-.006-.015-.022-.04-.019-.045.007-.029.024-.047.038-.07v-.005zm-.169.361l.034-.032.014.088c0 .01-.02.018-.031.032l-.017-.083v-.005zm-.977.4l.044.061c-.01.009-.027.032-.03.027-.02-.011-.032-.036-.048-.056.01-.009.02-.023.034-.032zm-.032-.755l.022.05c-.02.008-.04.022-.06.021-.007 0-.012-.03-.022-.045l.057-.026h.003zm-.257-.271l.042-.065c.006.015.022.04.019.045-.007.029-.024.047-.038.07-.006-.015-.016-.03-.022-.05zm-1.062 3.189l.045.061c-.01.009-.027.032-.034.027-.02-.011-.032-.036-.048-.056.01-.009.02-.023.034-.032h.003zm.298-2.231l-.041.065c-.006-.015-.022-.04-.019-.045.007-.029.025-.047.038-.07.006.015.016.03.022.05zm-.069-.95l-.022-.05c.02-.008.04-.022.06-.02.007 0 .012.03.022.045l-.057.026h-.003zm-.69 3.68l-.042.065c-.006-.015-.022-.04-.018-.049.007-.029.025-.047.038-.07.006.015.016.03.022.05v.005zm-.422-.286l.044.061c-.01.009-.027.032-.034.027-.019-.011-.032-.036-.048-.056.01-.009.021-.023.034-.032h.003zm.263-3.793l-.044-.061c.01-.009.027-.032.031-.027.02.011.032.036.048.056-.01.009-.02.023-.034.032zm-1.228 2.967s.022.04.019.045c-.008.029-.025.047-.038.07-.006-.015-.022-.04-.018-.049.007-.029.024-.047.038-.07v.005zm-.009-.976l.022.05c-.02.008-.04.022-.06.02-.007 0-.012-.03-.022-.045l.057-.026h.003zm-.132-1.63l.034-.032.014.088c0 .01-.02.018-.031.032l-.017-.083v-.005zm-.994 1.229l-.045-.061c.01-.009.027-.032.034-.027.02.011.032.036.048.056-.01.009-.021.023-.034.032h-.003zm-1.746 2.101l-.041.065c-.006-.015-.022-.04-.019-.049.007-.029.025-.047.038-.07.006.015.016.03.022.05v.005zm-.705-3.373s.022.04.018.049c-.007.029-.024.047-.038.07-.006-.015-.022-.04-.018-.049.007-.029.025-.047.038-.07zm-.091-.527s.022.04.019.045c-.007.029-.025.047-.038.07-.006-.015-.022-.04-.019-.045.007-.029.025-.047.038-.07zm-1.48 3.097l-.045-.061c.01-.009.027-.032.031-.027.019.011.032.036.048.056-.01.009-.02.023-.034.032zm-.371-.8l-.041.065c-.006-.015-.022-.04-.019-.045.007-.029.025-.047.038-.07.006.015.016.03.022.05zm-.407.709l.045.061c-.01.009-.027.032-.034.027-.02-.011-.032-.036-.048-.056.01-.009.02-.023.034-.032h.003zm-2.004.613l-.041.065c-.006-.015-.022-.04-.019-.045.007-.029.024-.047.038-.07.006.015.016.03.022.05zM72.6 4.265l.041-.065c.006.015.022.04.019.049-.007.029-.025.047-.038.07l-.022-.05v-.005zm-.395.642l-.045-.061c.01-.009.027-.032.031-.027.02.011.032.036.048.056-.01.009-.02.023-.034.032zm.166-1.646l.022.05c-.02.008-.04.022-.06.021-.007 0-.012-.03-.022-.045l.057-.026h.003zm-2.397.241l-.041.065c-.006-.015-.022-.04-.019-.045.007-.029.025-.047.038-.07.006.015.016.03.022.05zm-1.066 1.22s.022.04.018.049c-.007.029-.024.047-.038.07-.006-.015-.022-.04-.019-.045.007-.029.025-.047.038-.07v-.005zm-.977-1.121s-.027.032-.031.027c-.02-.011-.032-.036-.048-.056.01-.009.027-.032.034-.027.019.011.032.036.048.056h-.003zm-.778.721l.034-.032c.006.029.015.059.014.088 0 .01-.02.018-.031.032l-.017-.083v-.005zm-.368.75l.034-.032c.006.029.015.059.014.088 0 .01-.02.018-.031.032l-.017-.083v-.005zm-2.634-2.495l.022.05c-.02.008-.04.017-.06.021-.007 0-.012-.03-.022-.045l.06-.025zm-.737 1.973s.022.04.019.045c-.007.029-.024.047-.038.07-.006-.015-.022-.04-.019-.045.008-.029.024-.047.038-.07zm-.899.124l.034-.032c.006.029.015.059.014.088 0 .01-.02.018-.031.032l-.017-.083v-.005zm-.565 1.033l.045.061c-.01.009-.027.032-.034.027-.02-.011-.032-.036-.048-.056.01-.009.02-.023.034-.032h.003zm.392-2.974l.022.05c-.02.008-.04.022-.06.02-.007 0-.012-.03-.022-.045l.06-.025zm-2.856 2.42l.045.061c-.01.009-.027.032-.03.027-.02-.011-.032-.036-.048-.056.01-.009.02-.023.034-.032zm.01-3.05s-.027.032-.03.027c-.02-.011-.032-.036-.048-.056.01-.009.027-.032.03-.027.02.011.032.036.048.056zm-1.902 3.766l-.022-.05c.02-.008.04-.017.06-.021.007 0 .012.03.022.045l-.057.026h-.003zm.528-3.096s-.027.032-.031.027c-.02-.011-.032-.036-.048-.056.01-.009.027-.032.034-.027.02.011.032.036.048.056h-.003zm-.689 2.362l.034-.032c.006.029.015.059.014.088 0 .01-.02.018-.031.032l-.018-.083v-.005zm.279-1.547l.022.05c-.02.008-.04.017-.06.021-.007 0-.012-.03-.022-.045l.057-.026h.003zm-.458-1.326l-.034.032c-.006-.029-.015-.059-.014-.088 0-.01.02-.018.031-.032l.017.083v.005zm-2.688 3.033l.022.05c-.02.008-.04.022-.06.02-.007 0-.012-.03-.022-.045l.057-.026h.003zm.514-3.652l.034-.032.014.088c0 .01-.02.018-.031.032l-.017-.083v-.005zm-2.064 1.208s-.027.032-.03.027c-.02-.011-.032-.036-.048-.056.01-.009.027-.032.034-.027.02.011.032.036.048.056h-.003zm-.925.427l-.041.065c-.006-.015-.022-.04-.019-.045.007-.029.024-.047.038-.07.006.015.016.03.022.05zm-1.303-1.397s-.027.032-.031.027c-.02-.011-.032-.036-.048-.056.01-.009.027-.032.031-.027.02.011.032.036.048.056zm-5.037-.193l.045.061c-.01.009-.027.032-.031.027-.02-.011-.032-.036-.048-.056.01-.009.02-.023.034-.032zm-1.226.327s.022.04.019.049c-.008.029-.025.047-.038.07-.006-.015-.022-.04-.019-.045.007-.029.024-.047.038-.07v-.005zm-.963 4.006l-.022-.05c.02-.008.04-.022.06-.021.007 0 .012.03.022.045l-.057.026h-.003zm.219-2l.044.061c-.01.009-.027.032-.03.027-.02-.011-.032-.036-.048-.056.01-.009.02-.023.034-.032zm-.189-2.666l.045.061c-.01.009-.027.032-.034.027-.02-.011-.032-.036-.048-.056.01-.009.02-.023.034-.032h.003zm-.787 4.205l.022.05c-.02.008-.04.022-.06.021-.007 0-.012-.03-.022-.045l.057-.026h.003zm-.351-.209l.034-.032c.006.029.015.059.014.088 0 .01-.02.018-.031.032l-.017-.083V5.35zm.081-1.796l-.034.032-.014-.088c0-.01.02-.018.031-.032l.017.083v.005zm-.919 2.58l-.044-.061c.01-.009.027-.032.03-.027.02.011.032.036.048.056-.01.009-.02.023-.034.032zm-.262.037l-.045-.061c.01-.009.027-.032.031-.027.02.011.032.036.048.056-.01.009-.021.023-.034.032zm.599-4.207l.034-.032.014.088c0 .01-.02.018-.031.032l-.017-.083v-.005zm-.186-.335l.045.061c-.01.009-.027.032-.034.027-.02-.011-.032-.036-.048-.056.01-.009.02-.023.034-.032h.003zm-.505 1.35l-.041.065c-.006-.015-.022-.04-.018-.049.007-.029.025-.047.038-.07.006.015.016.03.022.05v.005zm-.05-.23l-.034.032c-.006-.029-.015-.059-.014-.088 0-.01.02-.018.031-.032l.018.083v.005zm-.655 2.915l-.022-.05c.02-.008.04-.017.06-.021.007 0 .012.03.022.045l-.057.026h-.003zm.193-2.383l.045.061c-.01.009-.027.032-.034.027-.02-.011-.032-.036-.048-.056.01-.009.02-.023.034-.032h.003zm43.415 2.782l.042-.089c.03.094.046.244.092.266.134.066.116.113.014.194-.037.027-.074.058-.102.1-.017.023-.015.076-.02.115.026.011.055.027.082.029.063.004.129-.007.191.012.02.001.034.089.036.137-.001.029-.035.085-.042.084-.157-.067-.248 0-.268.249 0 .014-.07.01-.11.018l.003-.116c.001-.043.012-.081.02-.124-.039-.012-.079-.024-.118-.263-.072-.144-.123-.104-.12-.089a2.98 2.98 0 0 0 .081.299c.017-.033.051-.064.052-.098.003-.092-.005-.184-.013-.112-.015.414-.081.521-.217.528.024-.163-.079-.116-.124-.167-.058-.066-.098-.16-.145-.24.061-.04.118-.075.166-.033.004.102.032.152.068.178.013.01.044-.036.068-.059l-.123-.201-.012.081c-.026-.142-.094-.204-.092-.257.003-.087.042-.205.09-.25.082-.082.093-.13.037-.254-.037-.084-.03-.209-.041-.316.162.01.214.047.354.234.025.035.075.029.114.041l.04.113-.003-.01zm.745.648c-.02.008-.037.022-.057.035l.028.064c.017-.018.034-.037.008-.033-.065-.052-.074-.178-.11-.2-.059-.033-.136.016-.205.002-.049-.008-.165-.01-.045-.152.034-.041.04-.138.069-.199.018-.042.049-.098.076-.102.033.002.094.068.09.083-.041.176.03.214.119.224.102.016.199.08.212.225.014.189.058.279.187.286.013.001.037.104.026.142s-.051.069-.085.077c-.06.021-.122.007-.179.033-.027.013-.042.089-.063.136-.008-.054-.02-.103-.022-.156-.005-.155-.093-.107-.148-.144.012-.077.024-.158.077-.261.034-.041.025-.066.022-.066l.003.005zm2.356.152c-.002.067-.02.134-.032.201-.031-.06-.079-.111-.091-.174-.036-.234.098-.438.252-.371.069.033.125.148.194.171s.15-.049.226-.035c.115.021.129.119.046.234-.017.028-.041.046-.061.069.126.239.031.292-.118.311-.007 0-.024.148-.002.193.025.055.156-.015.098.16-.011.033-.028.061-.042.094-.058-.066-.122-.118-.173-.199-.019-.03.003-.111.005-.169.004-.149.066-.242.132-.34.048-.074-.046-.235-.091-.174-.124.171-.146-.091-.223-.081-.104-.055-.121-.036-.119.109zm-.763-.394a3.71 3.71 0 0 1-.181.424c-.021.047-.068.068-.102.1-.008-.049-.027-.093-.026-.142-.004-.208.127-.403.031-.626 0-.005.038-.051.052-.069.167.039.272.195.229.318l-.003-.005zm1.879 1.359c.036.021.068.052.104.079-.027.037-.061.064-.086.106-.105.192-.197.051-.287-.027-.039-.031-.074-.072-.112-.113.047-.041.092-.105.142-.117s.108.031.161.048c.026.006.056.013.082.029l-.003-.005zm-2.973-1.946c.067-.025.138.375.083.468-.014.023-.057.035-.07.02-.074-.077-.144-.168-.218-.255.079-.092.135-.204.208-.234h-.003zm1.399 1.383c.006.15-.094.289-.013.448.003.005-.032.08-.049.079-.102-.001-.193-.07-.209-.215-.018-.17.096-.018.125-.084s.037-.138.059-.204c.011-.033.028-.061.042-.094.016.025.042.046.041.07h.003zm-2.579.124c-.014.023-.022.061-.038.07-.071.039-.141.069-.211.098-.027.013-.06.006-.086.009.008-.053.004-.135.027-.148.074-.058.158-.097.212-.127l.1.098h-.003zm6.286-.629c-.053.002-.081.179-.153.044-.013-.025-.062-.038-.079-.019-.034.032-.055.084-.08.13l-.002-.164c.013-.241.12-.138.241-.111l.073.125v-.005zm-9.475.668c-.032-.031-.085-.049-.093-.093-.024-.103-.03-.214-.04-.326l.16.053c.199.089-.067.131.016.247l-.043.118zm8.24-.395c-.004.029-.035.08-.055.079-.149-.009-.023-.243-.114-.306l.058-.079c.144.038.144.038.11.306zm-5.612.4c-.041.041-.113.022-.173.033l.006-.222.262-.037c-.032.08-.052.185-.096.231v-.005zm8.184.084s-.001.029-.008.038c-.049.094-.225.131-.293.069-.01-.01-.022-.04-.022-.045.011-.028.025-.061.041-.065a1.84 1.84 0 0 1 .22-.054l.061.062v-.005zm-.515.099s-.054.05-.061.04c-.054-.071-.105-.151-.159-.232l.139-.136.08.328zm-6.576-.479c-.014.038-.046.094-.036.114.037.099.029.147-.05.118-.029-.011-.067-.067-.07-.11-.011-.184.071-.295.191-.206-.011.028-.025.052-.035.08v.005zm2.517.094l.021.083c-.08.014-.157.044-.236.039-.023-.001-.044-.09-.065-.139.027-.018.058-.045.087-.048.023-.003.052.013.079.024.039.012.079.019.118.041h-.003zm-2.65.41l-.048.069-.169-.218.145-.088.073.236zm6.358.007l-.152-.009c-.04-.002-.082-.019-.118-.041-.013-.006-.018-.054-.021-.083 0-.01.021-.033.031-.032.04.007.079.024.161.048l.099.112v.005zm-5.132-1.372c-.001.029-.048.065-.075.097-.028-.05-.064-.096-.078-.154-.006-.025.042-.075.09-.154.03.098.062.153.06.211h.003zm2.1 1.372c-.055-.056-.102-.122-.153-.183.073.004.145.004.214.023.013.001.014.097.028.195-.046-.012-.072-.014-.092-.03l.004-.005zm.458-.301c-.019.076-.054.142-.082.212-.028-.064-.082-.135-.077-.193.001-.048.079-.087.136-.146.009.049.03.098.019.132l.003-.005zm.557.545c-.036-.012-.059-.119-.087-.184.053-.011.107-.027.159-.024.023.001.048.046.074.082-.061.054-.113.138-.149.126h.003zm.61-.658c.031.069.082.135.08.203-.001.043-.075.087-.116.133l-.058-.168.094-.168zm-4.931-1.355l-.137.18c-.015-.035-.047-.08-.04-.099.018-.052.052-.089.066-.117l.111.036zm.759.866l-.076-.236c.023-.003.057-.026.07-.01.032.041.053.095.079.14l-.076.106h.003zm5.367 1c.005.053.026.142.012.15-.034.037-.084.043-.13.05-.003 0-.012-.054-.018-.069l.133-.137.003.005zm-3.734.045l-.039.094c-.032-.045-.074-.082-.089-.136-.009-.03.032-.085.053-.137.028.069.056.124.071.183l.003-.005zm1.739-1.276l-.137.166c-.009-.034-.031-.074-.023-.103.015-.057.046-.103.07-.15l.09.083v.005zm4.337.595c-.011.048-.039.089-.06.136-.009-.034-.028-.074-.024-.103.008-.053.032-.095.054-.151.015.054.034.094.03.122v-.005zm-2.652.718c-.037.007-.074.029-.11.022-.02-.001-.035-.05-.054-.076l.1-.037.06.091h.003zm.042-.543c.005.053.02.107.015.16-.001.029-.034.051-.052.079l-.026-.146.062-.088v-.005zm-.625.479c-.023.013-.051.045-.07.034-.033-.016-.061-.057-.093-.088l.081-.043a1.1 1.1 0 0 0 .08.097h.003zm-2.974-1.092c-.023.013-.051.045-.07.034-.033-.016-.061-.057-.093-.088l.081-.043c.022.03.051.066.08.097h.003zm-.386.43c-.033-.016-.061-.057-.093-.088.023-.013.051-.04.07-.034.036.012.065.047.104.079-.037.022-.064.049-.084.043h.003zm-.898.66c-.023.008-.054.031-.07.015-.026-.021-.041-.065-.06-.095.023-.008.05-.011.117-.032-.001.019.008.068.013.112zm-.549-1.626c-.036-.017-.068-.048-.101-.069.014-.023.032-.066.041-.065.036.007.069.033.111.06-.024.037-.045.079-.055.079l.004-.005zm-1.691.159c-.023.008-.054.031-.07.015-.026-.021-.041-.065-.06-.095.023-.008.05-.011.117-.032-.001.019.008.068.013.112zm-.729-1.352c-.023.008-.054.026-.07.015-.026-.021-.041-.065-.06-.095.023-.008.05-.011.117-.032-.001.019.008.068.013.112zm14.211 3.233s-.027.032-.031.027c-.02-.011-.032-.036-.048-.056.01-.009.02-.023.034-.032l.045.061zm-1.181-.322l.014.088c0 .01-.02.018-.031.032l-.017-.083.034-.032v-.005zm-.598-.258a.3.3 0 0 1 .06-.021c.007 0 .012.03.022.045l-.057.026-.022-.05h-.003zm-.437-.205l.014.088c0 .01-.02.018-.031.032l-.017-.083.034-.032v-.005zm-.383.556s-.027.032-.031.027c-.019-.011-.032-.036-.048-.056.01-.009.021-.023.034-.032l.044.061zm-1.889-.428c.019.016.042.031.055.056.003.005-.014.043-.025.066a.8.8 0 0 0-.041-.07c.001-.019.004-.034.008-.053h.003zm.008-.053l-.044.041-.024-.084c0-.005.02-.018.031-.027l.038.07zm.006-2.548s-.022-.04-.018-.049c.007-.029.024-.047.038-.07.006.015.016.03.022.05l-.041.065v.005zm-.894 2.249c.02-.008.04-.017.06-.021.007 0 .012.03.022.045l-.057.026-.022-.05h-.003zm-.747-.118c.02-.008.04-.017.06-.021.007 0 .012.03.022.045l-.057.026-.022-.05h-.003zm-.526.49c-.019-.011-.032-.036-.048-.056.01-.009.027-.032.031-.027.019.011.032.036.048.056-.01.009-.027.032-.031.027zm-.365-.775c.02-.008.04-.022.06-.021.007 0 .012.03.022.045l-.057.026-.022-.05h-.003zm-.053.354s-.027.032-.031.027c-.019-.011-.032-.036-.048-.056.01-.009.02-.023.034-.032l.045.061zm-.368.75s-.027.032-.031.027c-.019-.011-.032-.036-.048-.056.01-.009.02-.023.034-.032l.045.061zm.106-.703l-.044.041-.024-.084c0-.005.02-.018.031-.027l.038.07zm-.576-.213c-.007.029-.024.047-.038.07-.006-.015-.022-.04-.019-.045.007-.029.025-.047.038-.07.006.015.022.04.019.049v-.005zm-.232 1.062a.3.3 0 0 1-.06.021c-.007 0-.012-.03-.022-.045l.057-.026.022.05h.003zm-1.689-.363l-.028-.064c.02-.013.037-.027.057-.035l.019.045-.048.055zm-.279-.649c-.02.008-.04.022-.06.021-.007 0-.012-.03-.022-.045l.057-.026.022.05h.003zm-.207-.626l-.028-.064c.02-.013.037-.027.057-.035.003 0 .012.03.019.045l-.048.055zm-.584 1.36s.027-.032.031-.027c.019.011.032.036.048.056-.01.009-.021.023-.034.032l-.044-.061zm.1-1.206s-.027.032-.031.027c-.019-.011-.032-.036-.048-.056.01-.009.02-.023.034-.032l.044.061zm-.233.42a.3.3 0 0 1-.06.021c-.007 0-.012-.03-.022-.045l.057-.026.022.05h.003zm-.594.553c.02-.008.04-.017.06-.02.007 0 .012.03.022.045l-.06.025-.022-.05zm-.566-1.608l-.028-.064c.02-.013.037-.027.057-.035.003 0 .012.03.019.045l-.048.055zm-.557.068l.042-.089.04.113-.082-.024zm-.46-.327l-.044.041-.024-.084c0-.005.02-.018.031-.027l.038.07zm-.476.333c.02-.008.04-.022.06-.021.007 0 .012.03.022.045l-.06.025-.022-.05zm-.226-.192l-.044.041-.024-.084.031-.027.038.07zm-39.838.379c.006.029.015.059.014.088 0 .01-.02.018-.031.032l-.017-.083.034-.032v-.005zm-2.387.339c-.011.028-.022.061-.039.08-.004.005-.029-.021-.045-.037.017-.018.031-.037.048-.06.013.001.023.006.036.012v.005zm-.349.071a.3.3 0 0 1-.06.021c-.007 0-.012-.03-.022-.045l.057-.026.022.05h.003z" />
  <path
    d="M10.669 3.356c.061-.08.134-.07.202.018.082.102.145.123.11-.093 0 0 .062-.042.075-.028.197.221.389.081.568-.034.133-.084.246-.355.377-.005 0 .01.046-.002.052-.017.065-.177.192-.121.29-.17.137-.07.136.017.067.156.046.007.104.043.139.022.14-.094.276-.193.405-.316.136-.133.263-.187.399-.021.051.065.074.059.118-.03.11-.223.308.013.439-.158.013-.015.088.082.135.123.017.014.04.008.06.011-.006-.395.169-.125.242-.114.063.011.093.019.114-.064.039-.166.109-.141.203-.097a.45.45 0 0 0 .348.025c.288-.102.292-.088.55.068-.009.029.002.063.019.081.003.005.029-.021.045-.036-.017-.018-.031-.037-.067-.054-.001-.039.01-.126.027-.127.099-.005.202-.001.301.028.033.013.075.097.083.16.028.187.061.19.126.032.025-.064.059-.133.105-.165s.108-.039.152-.018c.188.101.35.131.474.062.007 0-.007 0-.02.006.011.028.021.062.038.08.003.005.029-.021.045-.036-.017-.018-.031-.037-.068-.054.028-.074.069-.163.123-.228.035-.04.088-.063.134-.06.017-.001.035.095.04.152s.003.116-.016.165c-.043.123.017.158.059.103.27-.328.618-.259.922-.41.026-.011.052-.017.079-.014.256.045.263.059.365-.082.064-.085.104-.073.174-.033.117.066.247.103.37.15.137.051.321.022.569-.102.01-.001.016-.035.022-.049.259.339.611-.157.868.201.274-.154.547.213.813.001.123-.098.289.212.378-.102l.229.167c.027.018.058.074.071.064.212-.137.208-.132.364-.12.079.006.158-.013.237-.036.177-.053.362-.072.524-.177.14-.094.296.067.43-.109.045-.06.173.034.262.025.083-.004.161-.057.229.051.038-.079.072-.168.117-.238.022-.035.087-.077.101-.063.103.139.213.047.311.008s.156.011.227.08c.03.032.098.077.104.067.203-.353.438.079.65-.068.259.17.517.06.78.003.237-.056.459-.275.714-.124.095-.164.199-.256.335-.09.085-.188.229.167.309-.069.144.079.279.193.445.083.075-.047.161-.061.243-.075.049-.007.106-.006.153.026.212.143.268.15.565-.01.08.165.208-.151.286.062.007.024.064.04.073.025.118-.17.263-.202.407-.142.107.043.172-.27.293-.044.097.183.254-.018.338.045.148.113.264-.023.393-.011s.25.084.376.091.264-.014.393-.035c.036-.002.081-.086.107-.073.107.062.093-.27.218-.127.133.152.128-.171.228-.157l.421.06c.013-.001.019.11.031.196 0 .01 0-.01-.001-.029-.019.015-.042.031-.055.056-.003.005.014.043.025.066.013-.025.025-.045.037-.098.179-.231.173-.217.356-.052.156.142.33.253.498.365.023.013.085-.029.101-.073.068-.177.207-.18.29-.155.266.063.508-.036.75-.136.193-.078.006.255.131.215l.325-.104c.121-.04.246-.066.364-.12.098-.044.211.119.309-.079.025-.05.191.101.295.014.179.275.38.12.573.067.168-.047.331-.114.447.165.014.028.14-.08.224-.045.021-.373.082-.308.207-.064.024.052.187-.077.267-.033.134.07.155-.264.307-.137.078.064.205-.001.307.003l.348.02c.066.001.132.003.195-.01.22-.06.438-.192.661.004.159.141.257-.182.417-.123.137.051.281.116.427.021.042-.026.05-.258.124-.079.046.109.07.146.148.113a1.03 1.03 0 0 1 .203-.064c.132-.021.212.269.373.13.11-.093.23-.171.355-.231.029-.016.081.049.142.118-.026.001-.047-.027-.06-.021-.036.012-.069.037-.101.058l.025.071c.043-.017.085-.038.136-.108.121-.04.288.019.398-.069s.157-.076.258-.009c.084.058.205.004.307-.002.001.029.005.082-.001.082-.068.042-.18.058-.035.19.095.087.143.05.197-.073.034-.084.042-.176.169-.12.15.069.325-.094.505-.012.14.065.22-.176.334-.264.045-.036.12-.117.123-.113.176.314.341-.119.485-.025.205.124.369-.039.554-.063.119-.021.226-.084.348.049s.243.055.358-.106c.064-.09.186-.222.246.055.004.024.126.027.129.013.057-.244.149.026.23-.041.143-.118.137.08.17.203.029.105.158.093.146.021-.044-.297.16-.201.22-.32.016-.03.071-.062.078-.047.147.209.306.076.464.048.168-.028.34-.027.508-.041s.346-.066.508-.027c.093.024.177.068.268.025.078-.038.104.067.151.098.121.081.266.073.402.1l.265.039c.116.023.218.013.339-.047.108-.054.279.043.405.09.147.05.268.005.392-.035.164-.057.26.102.359.218.109.129.178.092.254-.033.086-.135.169-.269.296-.073.096.149.227-.041.304.018.199.149.408.066.608.128.023.008.067.025.073.015.091-.203.226-.079.338-.114.338-.114.638.015.956.148.177.073.386-.015.568.12.017.014.063-.013.072-.038.049-.157.141-.176.238-.152.113.028.255.02.33.118.28.371.607.215.91.189.148-.013.285.009.424.041.113.023.142.137.107.313-.015.068-.01.15-.004.227.001.034.025.066.035.1.016-.015.039-.026.052-.051.032-.064.052-.162.095-.193.055-.041.173-.072.184-.048.117.327.189.154.27-.038.012-.03.052-.036.081-.057.008.038.028.081.023.11-.029.161-.126.402-.084.468.096.164.047.297.037.447.001.024-.039.041-.147.061-.049.007-.019.03.01.019s.068-.061.064-.071c-.018-.057-.045-.104-.07-.156-.028.064-.056.128-.005.208.179.164.01.39.156.557.02.023-.193.068-.117.218.094.179.096.285-.047.364-.101.058-.036.161-.04.248l-.064.882c-.01.15-.202.126-.141.302.053.147-.023.267.01.41.033.133-.087.101-.193.092-.033-.018-.009.02.015.057.009-.025.032-.055.028-.064-.021-.057-.045-.104-.07-.156-.006.034-.015.068.027.163.047.171.16.344.043.403-.072.038-.215.257-.296-.057-.022-.081-.136.108-.215.011l.005.222c-.053.003-.118.035-.152-.002-.074-.069-.124-.216-.198-.245-.053-.021-.13.098-.198.15s-.853.117-.931.068c-.05-.031-.095-.082-.142-.123-.135-.123-.258-.3-.441-.209-.008-.072-.26-.093-.022-.221.01-.005.026-.035.022-.045-.007-.029-.025-.071-.038-.07-.04.002-.092.005-.118.04-.112.155-.225.277-.38.121-.014-.014-.049.017-.072.038-.133.113-.423.287-.444.245-.15-.33-.377-.13-.56-.174-.203-.052-.419.051-.63.052-.165.004 0-.13-.021-.168-.035-.061-.088-.092-.136-.138-.127.33-.423-.123-.543.25-.12-.028-.245-.035-.359-.087-.157-.069-.311-.133-.547-.082-.138.031-.258-.025-.382-.077-.174-.078-.191-.096-.451-.078-.02.001-.046.022-.056.003-.147-.176-.292-.178-.436.003-.016.02-.045.055-.052.046-.274-.261-.565.029-.848-.067-.26-.088-.553-.034-.791-.181-.164-.102-.245.249-.373.044l-.385.189c-.095-.357-.252-.03-.372-.072-.233-.084-.449.023-.672.088-.017.001-.04-.032-.057-.05.019-.025.038-.055.061-.071.049-.032.108-.035.033-.137-.041-.056-.155-.132-.227-.109s-.159.114-.216.084c-.09-.048-.148-.084-.204.054-.006.015-.063.003-.086-.015-.094-.082-.184-.212-.264.023 0 0-.057-.012-.057-.026-.01-.125-.054-.195-.132-.128-.029.026-.009.16-.038.195-.048.06-.142.133-.172.106-.122-.109-.194-.086-.266.086-.016.035-.081.053-.118.04-.247-.079-.478.054-.715.095-.079.014-.177-.073-.252-.146-.122-.124-.154-.088-.139.113 0 .019-.045.065-.058.056-.284-.135-.602.133-.88-.152-.044-.046-.138.031-.189-.009-.088-.068-.166.375-.241.003-.026.025-.059.042-.078.076-.051.085-.067.24-.177.193-.1-.043-.22-.201-.295-.047-.088.174-.241-.127-.288.126 0 .014-.059.032-.076.014-.085-.102-.245-.026-.274-.251-.077.101-.159.245-.264.149-.125-.119-.246.08-.348-.016-.115-.11-.211.011-.313.026-.122.021-.243.071-.364.111-.052.017-.12.074-.161.047-.468-.342-.984.051-1.456-.194-.047-.027-.104-.048-.15-.036-.312.098-.625.119-.941.049-.047-.012-.122.016-.151.066-.145.273-.313.05-.459.029-.153-.021-.439-.122-.571-.101-.211.035-.428-.06-.633.072-.013.01-.071-.059-.075-.093-.014-.168-.056-.263-.183-.188l-.336.177c-.01.005-.022.049-.022.049-.105-.091-.19-.193-.328-.026-.061.076-.208.001-.314-.013-.03-.003-.06-.031-.09-.048.036-.026.078-.038.101-.082s.03-.117.019-.16c-.011-.033-.068-.069-.094-.058-.059.032-.11.088-.165.139-.048.046-.084.366-.149.008-.029.011-.059.018-.081.043l-.212.238c-.013.01-.074-.04-.071-.059.002-.058.085-.169-.017-.149-.408.065-.82-.001-1.223.122-.174.053-.372.063-.542.004-.12-.042-.211.016-.316.031-.082.009-.013-.26-.143-.157-.068.057-.14.104-.211.141-.134.07-.262.096-.382-.062-.024-.033-.11-.023-.135.017-.128.18-.273.207-.439.153-.06-.021-.149-.026-.194.02-.209.228-.43.138-.652.102-.076-.01-.161.033-.24.051-.066.013-.15.071-.197.034-.239-.185-.468-.062-.704-.002-.062.018-.13-.027-.192-.014-.178.033-.385-.212-.543.115-.019.04-.147-.06-.219-.037-.095.029-.204.189-.264.154-.121-.071-.211.021-.317.017-.102.005-.205-.018-.308-.023-.026.001-.053.012-.082.024-.272.101-.545.028-.817-.011-.037-.008-.081-.083-.107-.067-.244.138-.508.041-.754.117-.197.063-.368.087-.532-.127-.099-.125-.164-.093-.162.139.004.145-.072.033-.106.006-.068-.059-.098-.101-.185.019-.118.161-.357.014-.469.29-.009.025-.089.019-.109-.009-.116-.158-.245-.137-.382-.081-.075.028-.155.018-.234.012-.132-.008-.308-.143-.315.229 0 0-.059.018-.086.004-.097-.038-.212-.018-.276-.184-.025-.066-.475-.245-.521-.229-.026.011-.062.023-.068.047-.043.147-.091.077-.148.022s-.154-.2-.121.074c0 .01-.045.031-.068.047-.033-.283-.166-.146-.251-.108-.324.138-.558.15-.867-.032-.114-.066-.181.285-.29.039-.19.333-.346.168-.507-.06-.017-.023-.089.029-.134.05.082.102.142.248-.032.171-.1-.048-.126.108-.177.057-.098-.101-.182-.005-.274 0-.076.004-.168-.122-.22.065-.003.015-.102-.004-.106-.019-.022-.24-.133-.162-.214-.114-.065.037-.126.272-.156-.035-.017-.163-.101-.217-.204-.231l-.058-.2c-.072.018-.161.037-.209.112s-.037.224-.078.308c-.113.233-.294.295-.519.119-.121-.095-.183-.068-.29.015-.127.098-.165.018-.087-.164.009-.02-.012-.072-.019-.11-.026.016-.059.027-.081.053s-.035.065-.044.099c-.079.279-.105.314-.256.192-.095-.077-.13-.051-.218.026-.097.087-.241.162-.327-.108-.032-.104-.14-.186-.228-.003-.063.124-.057-.031-.084-.068s-.061-.045-.094-.067c.028-.088.042-.186.083-.255.022-.04.157.19.117-.083-.027-.182-.03-.269.119-.141.034.027.24-.317.229-.374-.004-.029-.047-.041-.064-.069-.041-.065-.15-.045-.089-.242.04-.128.044-.244.159-.25.121.196.268.155.426.118.072-.018.164.074.219.037.062-.047.091-.188.145-.278.051-.085.109-.155.17-.226.022-.025.052-.037.081-.053.008.038.029.095.022.11-.102.145.025.211.047.316-.022.035-.061.066-.067.11-.017.136-.02.276-.022.445 0 .01 0-.01-.001-.029-.019.015-.042.031-.055.056-.003.005.014.043.025.066.013-.025.025-.045.037-.098.098-.068.227-.046.262-.24.041-.214-.175-.136-.176-.309.112-.035.056-.148.05-.239-.014-.183.044-.21.142-.143.05.036.088.102.142.128.141.07.205-.131.306-.199a.89.89 0 0 0-.033-.544c-.055-.07-.152-.132-.214-.105-.163.071-.316.041-.464-.043-.077-.044-.075.023-.114.064-.142.147-.146-.036-.163-.315-.008-.048-.017-.004-.019.04.001.039.008.072.016.11.022-.035.061-.071.063-.109s-.025-.095-.06-.04c-.21-.071-.334.259-.502.311-.046.017-.165.009-.196-.048s-.056-.127-.09-.179c-.007-.014-.036.002-.059.003.097.318-.258.149-.214.436.02.124-.063.119-.14.094-.153-.05.188-.309-.07-.31-.142-.002-.071-.218-.102-.39.002-.039-.01-.014-.023.011l.044.041.024-.083c0-.005-.02-.018-.046.031-.028.064-.054.07-.054.075.004.154.041.34-.002.449-.075.182-.27.062-.394.247-.064.095-.255-.291-.371-.043-.119.262-.249-.05-.358.072-.013.015-.087-.034-.088-.063-.031-.322-.092-.265-.176-.039-.025.069-.053.148-.091.198-.022.03-.072.018-.109.025.009-.044.021-.093.023-.141s-.012-.106-.017-.163c-.026.021-.059.037-.078.072-.044.075-.134.055-.133.243.003.145-.201.17-.316.065-.061-.055-.131-.085-.192-.135-.105-.091-.145.017-.189.121l-.103-.289c-.019.025-.048.046-.061.076s.009.086-.004.111c-.069.144-.153-.035-.201.006-.075.062-.117.209-.195.276-.068.061-.169.105-.236.07-.1-.053-.183-.179-.325-.321-.033-.018-.009.02.015.057.009-.025.032-.055.028-.064-.021-.057-.045-.104-.07-.156-.006.034-.015.068.027.163-.033.286-.165.284-.303.165-.081-.073-.104-.052-.184.034-.17.192-.305-.163-.48-.158-.023.001-.039-.234-.072-.242a.86.86 0 0 0-.384-.023c-.099.015-.187.063-.215-.138 0-.014-.093-.034-.106-.009-.06.119-.113.238-.226.099l-.047.099c-.016.039-.024.083-.037.123-.068-.194-.291.141-.319-.196-.072.018-.175-.001-.217.06-.07.11-.131.06-.2.078-.161.042-.153-.306-.326-.219-.108.054-.252-.025-.378-.058-.077-.02-.148-.084-.22-.095-.036-.003-.111.069-.11.107.006.241-.067.235-.172.125-.115-.115-.224-.259-.358-.049-.079-.117-.138-.249-.288-.168-.088.048-.205.001-.305-.023-.04-.008-.081-.073-.102-.125-.018-.043-.009-.111-.011-.168l.093.029c.14.031.291.12.415.075.223-.084.442-.023.66-.063.03-.002.056-.027.085-.038.004.178.08.165.172.136.299-.093.592-.243.901-.057.047.031.157-.056.202-.136.06-.109.1-.218.203-.097.167-.197.271-.154.308.167 0 .019.047.031.074.044.007-.107-.02-.279.107-.232.063.026.106.159.164.233.072.088.083.029.074-.071l.46-.642c.135-.041.3-.17.397-.103.138.094.345-.095.426.243 0 .01 0-.01-.001-.029-.019.015-.042.031-.055.056-.003.005.014.043.025.066.013-.025.025-.045.037-.098.075-.038.166-.091.227-.05.145.099.264-.033.392-.059.016-.001.02-.136.028-.209.03.008.063.021.093.024.053-.003.106-.001.155-.018a.3.3 0 0 0 .137-.094c.045-.06.079-.139.117-.209l.098.362c-.027.001-.047-.026-.06-.021-.036.012-.069.037-.101.058l.025.071c.043-.017.085-.038.136-.108l-.033.026zm6.384 1.66l-.038.07.044.041.024-.083c0-.005-.02-.018-.053.148 0-.019-.004-.034-.008-.053-.02.015-.042.031-.055.056-.003.005.014.043.025.066.013-.025.025-.045.063-.245h-.003zm11.342-1.851l-.038.07.044.041.024-.083c0-.005-.02-.018-.016.17-.05-.036-.068-.064-.081-.059-.036.012-.069.037-.101.058l.025.071c.043-.017.085-.038.146-.268h-.003zm10.711 1.401L39 4.687c.037.013.074.04.106.028.046-.017.088-.058.133-.089-.043-.017-.084-.039-.331-.041l.048.055.028-.064c-.02-.013-.037-.027-.057-.036-.003 0-.012.03.179.024zm-7.612.281c-.041.07-.083.115-.076.129.018.062.049.113.077.165.032-.045.081-.086.086-.135.006-.039-.049-.089-.261-.126l.048.055.028-.064c-.02-.013-.037-.027-.057-.036-.003 0-.012.03.152.011h.003zm25.008-2.231l-.008-.053c-.02.016-.042.031-.055.056-.003.005.014.043.025.066.013-.025.025-.045.033-.122l.162.025c-.025-.211.018-.228.13-.108.183.198.144-.075.207-.31l-.038.07.044.041.024-.083c0-.005-.02-.018-.06.095-.151-.108-.302-.037-.446.028-.023.011-.016.16-.016.295h-.003zm-40.317.693l-.044.099c-.044.084-.069.172.006.246.061.06.123.167.203.057.01-.01-.056-.123-.078-.194-.018-.052-.013-.115-.03-.167-.007-.019-.037-.027-.057-.036V3.31zm39.822-.648c-.034.084-.072.149-.065.163.048.084.103.154.158.233.028-.064.092-.164.081-.188-.038-.08-.102-.13-.17-.208h-.003zm-36.462.859c.052.084.087.164.096.159.065-.037.179.034.185-.15-.001-.043-.046-.128-.059-.122-.069.018-.134.065-.222.113zm12.461 1.175l-.178.169c.057.036.122.114.171.097s.086-.13.128-.195l-.124-.071h.003zM14.234 3.532l.085.213c.008-.073.006-.15.028-.209.028-.074.056-.124-.017-.168-.034-.018-.064-.04-.094-.058l-.002.164c0 .019.001.039.008.058h-.007zm41.634 1.787l-.001-.039-.293-.072a.17.17 0 0 0-.018.083.23.23 0 0 0 .29.077c.01-.01.016-.03.022-.045v-.005zm-28.57-3.003c-.031.098-.062.153-.061.211.001.029.048.065.075.097.029-.05.064-.095.079-.154.006-.024-.041-.075-.09-.155h-.003zm-2.373 1.243l.076.146-.005-.222c-.002-.058-.013-.12-.027-.172-.004-.019-.037-.027-.057-.031-.007 0-.022.03-.022.045.005.058.016.115.032.235h.003zm-.533 1.447l-.08.11.174.237c-.001-.053.014-.117.003-.164-.021-.066-.059-.122-.094-.188l-.003.005zm-5.453.974l-.081-.184c-.028.064-.092.15-.081.183.022.071.085.111.13.167l.029-.17.003.005zm-5.655-2.668l-.081-.184c-.028.059-.092.145-.082.178.022.071.082.116.13.172l.032-.166zm-.972.273c-.04.099-.079.163-.072.182.024.052.062.093.102.115.01.004.064-.076.06-.109-.008-.057-.046-.104-.091-.188zm-.865.32c-.008.078-.023.131-.013.141.051.065.109.12.166.175.003-.034.021-.088.011-.102-.045-.075-.099-.135-.161-.214h-.003zm45.031-2.03l-.035-.23c0-.014-.04-.012-.06-.021l.067.431c.016-.02.042-.041.045-.065.002-.039-.008-.077-.016-.115zM39.292 4.445l.08.179c.028-.064.092-.15.078-.187-.022-.071-.085-.111-.133-.162l-.029.17h.003zM14.223 6.187l-.063-.127-.107.203c.024.013.054.041.07.03.036-.026.068-.071.1-.107zm10.221-1.479l-.089-.261c-.012.039-.041.084-.033.122.008.072.036.138.058.205a.77.77 0 0 0 .068-.066h-.003zm9.056.884l-.179.13c.027.018.058.06.084.049.049-.012.095-.053.14-.085l-.045-.099v.005zM22.297 3.025l-.135-.128c-.005.053-.03.137-.016.15.034.037.084.044.127.056.003 0 .015-.054.025-.079zm-.564 1.386c.037.022.074.054.114.066.017.004.039-.036.061-.056l-.139-.157-.033.146h-.003zm-.531 1.123c-.009.058-.02.117-.022.18.001.024.031.051.052.079l.077-.231c-.023-.004-.05-.012-.106-.023v-.005zM10.822 3.657l-.094.193c.037.008.097.038.103.019.025-.05.03-.122.035-.19 0-.005-.037-.017-.047-.022h.003zm6.158 2.816l-.084-.184c-.005.053-.024.112-.016.16.012.067.046.128.068.194l.032-.171zm23.399-1.64l.073-.11-.161-.112c-.002.034-.018.083-.008.102.028.047.065.079.095.116v.005zm3.105-.92l-.084-.184c-.005.053-.024.112-.016.16.012.067.046.128.068.194l.032-.171zm13.289 1.522c-.037-.027-.071-.059-.111-.076-.017-.004-.042.036-.061.056l.136.167.036-.142v-.005zm-41.266.969l-.135-.128c-.005.053-.03.137-.016.15.034.037.084.044.127.056.003 0 .015-.054.024-.078zm3.074-1.613a.46.46 0 0 0-.119.016c-.01.001-.012.054-.021.083.036-.002.076.011.113.004.01-.001.015-.054.027-.103zm2.104-.086l.066.117c.009-.034.031-.074.024-.103-.011-.048-.038-.09-.059-.137l-.03.117v.005zm.323-.026l.077.02c.006-.034.021-.078.011-.102-.014-.038-.045-.06-.065-.088l-.022.17zm1.632.885l-.097.097c.027.018.054.05.081.054.02-.001.039-.036.061-.056l-.045-.094zm.76-.942l-.066-.117c-.009.034-.031.074-.024.103.011.048.039.09.06.137l.03-.117v-.005zm.648-1.607l-.014.112c.023.008.054.031.073.015.026-.021.041-.065.06-.095-.023-.008-.05-.012-.116-.033h-.003zm1.579 3.05l.076.02c.006-.034.018-.078.011-.102-.014-.038-.044-.06-.065-.088l-.022.17zm1.422-.229c-.026.011-.062.023-.062.027a.77.77 0 0 0 .024.153s.049-.012.049-.017a1.58 1.58 0 0 0-.014-.168l.003.005zm.474-3.041l-.061.09c.037.008.073.03.11.023.02-.001.035-.05.054-.075l-.1-.038h-.003zm2.915 2.937l.061-.09c-.037-.008-.073-.03-.11-.023-.02.001-.035.05-.054.075l.1.038h.003zm1.247.027l.077.02c.006-.034.021-.078.011-.102-.014-.038-.045-.06-.065-.088l-.022.17zm.477-2.95c-.015.054-.034.093-.03.122.011.048.039.09.06.137.009-.034.028-.074.024-.103-.008-.053-.032-.095-.053-.152V2.81zm.552.932l-.097.097c.027.018.054.05.081.054.02-.001.039-.036.061-.056l-.045-.094zm1.701-1.966c-.026.011-.062.023-.062.027a.77.77 0 0 0 .023.153s.049-.012.049-.017a1.58 1.58 0 0 0-.014-.168l.003.005zm1.9.663l-.066-.141c-.012.039-.034.079-.037.118.001.029.025.057.039.09l.065-.066zm1.383 2.616l.062.088c.005-.053.021-.107.016-.16-.001-.029-.034-.051-.052-.079l-.026.146v.005zm15.397.539l-.014.112c.023.008.053.026.07.016.026-.021.041-.065.061-.095-.023-.008-.05-.012-.117-.033zm1.954.299c.024.037.045.08.055.079.036-.016.068-.047.101-.068-.014-.023-.031-.066-.041-.065-.036.007-.069.033-.111.059l-.003-.005zm.388-3.186l-.066-.141c-.012.039-.034.079-.037.118.001.029.025.057.039.09l.064-.066zm-39.179.185l-.061.09c.037.008.073.03.11.023.02-.001.035-.05.054-.075l-.1-.038h-.003zm-6.195 1.727c-.026.035-.054.066-.054.08.011.052.032.1.047.147.016-.02.045-.046.045-.06-.005-.053-.022-.1-.04-.162l.003-.005zm2.057-.653l.011.173c0 .014.037.017.057.031l.002-.164c0-.014-.037-.022-.07-.04zm1.817 2.666a.46.46 0 0 0-.119.016c-.01.001-.012.054-.021.083.036-.002.076.011.112.004.01-.001.015-.054.027-.103zm1.098-.39c-.015.054-.034.093-.03.122.011.048.039.09.059.137.009-.034.028-.074.024-.103-.008-.053-.032-.095-.053-.152v-.005zm2.339-.595l.011.173c0 .014.037.017.057.031l.003-.164c0-.014-.037-.022-.07-.04zm-5.804-2.135s-.022.04-.019.049c.007.029.024.047.038.07.006-.015.022-.04.019-.044-.007-.029-.024-.047-.038-.07v-.005zm.168.363l-.034-.032-.014.088c0 .01.02.018.031.032l.018-.083v-.005zm.975.408l-.045.06c.01.009.027.032.03.027.019-.011.032-.035.048-.056-.01-.009-.02-.023-.034-.032zm.034-.755l-.022.049c.02.009.04.022.06.021.007 0 .012-.03.022-.045l-.057-.026h-.003zm.258-.269l-.041-.065c-.006.015-.022.04-.019.044.007.029.024.047.038.07.006-.015.016-.03.022-.049zm1.05 3.198l-.045.06c.01.009.027.032.034.027.02-.011.032-.035.048-.056-.01-.009-.02-.023-.034-.032h-.003zm-.289-2.234l.041.065c.006-.015.022-.04.019-.044-.007-.029-.024-.047-.038-.07-.006.015-.016.03-.022.049zm.073-.95l.022-.049c-.02-.009-.04-.022-.06-.021-.007 0-.012.03-.022.045l.057.026h.003zm.675 3.686l.041.065c.006-.015.022-.04.019-.049-.007-.029-.024-.047-.038-.07-.006.015-.016.03-.022.049v.005zm.423-.283l-.045.06c.01.009.027.032.034.027.019-.011.032-.035.048-.056-.01-.009-.02-.023-.034-.032h-.003zm-.248-3.795l.045-.06c-.01-.009-.027-.032-.03-.027-.019.011-.032.035-.048.056.01.009.02.023.034.032zm1.217 2.977s-.022.04-.019.044c.007.029.024.047.038.07.006-.015.022-.04.019-.049-.007-.029-.024-.047-.038-.07v.005zm.012-.976l-.022.049c.02.009.04.022.06.021.007 0 .012-.03.022-.045l-.057-.026h-.003zm.139-1.629l-.034-.032-.014.088c0 .01.02.018.031.032l.018-.083v-.005zm.989 1.237l.045-.06c-.01-.009-.027-.032-.034-.027-.02.011-.032.035-.048.056.01.009.02.023.034.032h.003zm1.737 2.115l.041.065c.006-.015.022-.04.019-.049-.007-.029-.024-.047-.038-.07-.006.015-.016.03-.022.049v.005zm.718-3.367s-.022.04-.019.049c.007.029.024.047.038.07.006-.015.022-.04.019-.049-.007-.029-.024-.047-.038-.07zm.093-.526s-.022.04-.019.044c.007.029.024.047.038.07.006-.015.022-.04.019-.044-.007-.029-.024-.047-.038-.07zm1.468 3.109l.045-.06c-.01-.009-.027-.032-.03-.027-.02.011-.032.035-.048.056.01.009.02.023.034.032zm.374-.796l.041.065c.006-.015.022-.04.019-.044-.007-.029-.024-.047-.038-.07-.006.015-.016.03-.022.049zm.404.712l-.045.06c.01.009.027.032.034.027.02-.011.032-.035.048-.056-.01-.009-.02-.023-.034-.032h-.003zm2.002.629l.041.065c.006-.015.022-.04.019-.044-.007-.029-.024-.047-.038-.07-.006.015-.016.03-.022.049zm.557-2.37l-.041-.065c-.006.015-.022.04-.019.049.007.029.024.047.038.07l.022-.049v-.005zm.393.646l.045-.06c-.01-.009-.027-.032-.03-.027-.02.011-.032.035-.048.056.01.009.02.023.034.032zm-.159-1.647l-.022.049c.02.009.04.022.06.021.007 0 .012-.03.022-.045l-.057-.026h-.003zm2.396.261l.041.065c.006-.015.022-.04.019-.044-.007-.029-.024-.047-.038-.07-.006.015-.016.03-.022.049zm1.061 1.228s-.022.04-.019.049c.007.029.024.047.038.07.006-.015.022-.04.019-.044-.007-.029-.024-.047-.038-.07v-.005zm.981-1.113s.027.032.03.027c.02-.011.032-.035.048-.056-.01-.009-.027-.032-.034-.027-.02.011-.032.035-.048.056h.003zm.775.727l-.034-.032c-.006.029-.015.059-.014.088 0 .01.02.018.03.032l.018-.083v-.005zm.366.753l-.034-.032c-.006.029-.015.059-.014.088 0 .01.02.018.03.032l.018-.083v-.005zm2.643-2.474l-.022.049c.02.009.04.017.06.021.007 0 .013-.03.022-.045l-.06-.026zm.729 1.979s-.022.04-.019.044c.007.029.024.047.038.07.006-.015.022-.04.019-.044-.007-.029-.024-.047-.038-.07zm.899.132l-.034-.032c-.006.029-.015.059-.014.088 0 .01.02.018.031.032l.018-.083v-.005zm.561 1.037l-.045.06c.01.009.027.032.034.027.02-.011.032-.035.048-.056-.01-.009-.02-.023-.034-.032h-.003zm-.38-2.977l-.022.049c.02.009.04.022.06.021.007 0 .012-.03.022-.045l-.06-.026zm2.846 2.443l-.045.06c.01.009.027.032.031.027.02-.011.032-.035.048-.056-.01-.009-.02-.023-.034-.032zm.001-3.05s.027.032.031.027c.02-.011.032-.035.048-.056-.01-.009-.027-.032-.03-.027-.02.011-.032.035-.048.056zm1.888 3.782l.022-.049c-.02-.009-.04-.017-.06-.021-.007 0-.013.03-.022.045l.057.026h.003zm-.516-3.1s.027.032.03.027c.02-.011.032-.035.048-.056-.01-.009-.027-.032-.034-.027-.02.011-.032.035-.048.056h.003zm.679 2.368l-.034-.032c-.006.029-.015.059-.014.088 0 .01.02.018.031.032l.018-.083v-.005zm-.273-1.549l-.022.049c.02.009.04.017.06.021.007 0 .013-.03.022-.045l-.057-.026h-.003zm.464-1.322l.034.032c.006-.029.015-.059.014-.088 0-.01-.02-.018-.031-.032l-.018.083v.005zm2.676 3.055l-.022.049c.02.009.04.022.06.021.007 0 .012-.03.022-.045l-.057-.026h-.003zm-.499-3.656l-.034-.032-.014.088c0 .01.02.018.031.032l.018-.083v-.005zm2.06 1.225s.027.032.03.027c.02-.011.032-.035.048-.056-.01-.009-.027-.032-.034-.027-.02.011-.032.035-.048.056h.003zm.923.434l.041.065c.006-.015.022-.04.019-.044-.007-.029-.024-.047-.038-.07-.006.015-.016.03-.022.049zm1.308-1.386s.027.032.03.027c.02-.011.032-.035.048-.056-.01-.009-.027-.032-.03-.027-.02.011-.032.035-.048.056zm5.037-.152l-.045.06c.01.009.027.032.03.027.019-.011.032-.035.048-.056-.01-.009-.02-.023-.034-.032zm1.225.337s-.022.04-.019.049c.007.029.024.047.038.07.006-.015.022-.04.019-.044-.007-.029-.024-.047-.038-.07v-.005zm.948 4.014l.022-.049c-.02-.009-.04-.022-.06-.021-.007 0-.012.03-.022.045l.057.026h.003zm-.211-2.001l-.045.06c.01.009.027.032.03.027.02-.011.032-.035.048-.056-.01-.009-.02-.023-.034-.032zm.199-2.665l-.045.06c.01.009.027.032.034.027.02-.011.032-.035.048-.056-.01-.009-.02-.023-.034-.032h-.003zm.771 4.212l-.022.049c.02.009.04.022.06.021.007 0 .012-.03.022-.045l-.057-.026h-.003zm.352-.207l-.034-.032c-.006.029-.015.059-.014.088 0 .01.02.018.031.032l.018-.083V5.33zm-.074-1.796l.034.032.014-.088c0-.01-.02-.018-.031-.032l-.018.083v.005zm.909 2.588l.045-.06c-.01-.009-.027-.032-.03-.027-.02.011-.032.035-.048.056.01.009.02.023.034.032zm.262.039l.045-.06c-.01-.009-.027-.032-.03-.027-.02.011-.032.035-.048.056.01.009.02.023.034.032zm-.582-4.212l-.034-.032-.014.088c0 .01.02.018.031.032l.018-.083v-.005zm.187-.333l-.045.06c.01.009.027.032.034.027.02-.011.032-.035.048-.056-.01-.009-.02-.023-.034-.032h-.003zm.499 1.354l.041.065c.006-.015.022-.04.019-.049-.007-.029-.024-.047-.038-.07-.006.015-.016.03-.022.049v.005zm.051-.229l.034.032c.006-.029.015-.059.014-.088 0-.01-.02-.018-.031-.032l-.018.083v.005zm.643 2.92l.022-.049c-.02-.009-.04-.017-.06-.021-.007 0-.012.03-.022.045l.057.026h.003zm-.184-2.384l-.045.06c.01.009.027.032.034.027.02-.011.032-.035.048-.056-.01-.009-.02-.023-.034-.032h-.003zM12.826 5.7l-.042-.09c-.031.093-.047.244-.093.265-.134.065-.116.112-.015.194.037.027.074.059.102.101.017.023.015.076.019.115-.026.011-.056.027-.082.028-.063.003-.129-.008-.191.01-.02.001-.034.089-.036.137.001.029.035.085.042.085.157-.066.248.002.267.252 0 .014.07.011.11.018l-.003-.116c-.001-.043-.012-.081-.02-.124.039-.012.079-.023.119-.262.073-.144.123-.103.12-.088-.021.102-.051.201-.082.299-.017-.033-.051-.065-.052-.099-.002-.092.005-.184.014-.112.014.414.079.522.215.529-.024-.163.08-.115.125-.166.058-.066.098-.16.146-.239-.061-.04-.118-.076-.166-.035-.004.102-.033.151-.068.177-.013.01-.044-.036-.068-.059l.124-.199.012.081c.026-.141.094-.203.093-.256-.002-.087-.041-.205-.089-.251-.081-.083-.092-.13-.036-.254.038-.084.031-.209.042-.316-.162.008-.214.045-.355.231-.026.035-.075.028-.115.04l-.04.113.003-.01zm-.748.642c.02.009.037.022.057.036l-.028.064c-.017-.018-.034-.037-.007-.033.065-.052.075-.178.111-.199.059-.032.136.017.205.004.049-.007.165-.009.046-.152-.034-.042-.04-.138-.068-.199-.018-.043-.049-.099-.075-.102-.033.002-.094.068-.091.082.041.176-.031.214-.12.223-.102.015-.2.078-.213.223-.015.189-.059.278-.188.285-.013.001-.037.103-.026.141s.051.07.085.078c.06.021.123.008.179.034.027.013.042.09.063.137.009-.054.021-.102.023-.156.006-.155.093-.106.149-.143-.012-.077-.024-.158-.076-.261-.034-.042-.025-.066-.021-.066l-.003.005zm-2.357.133c.002.067.02.134.031.201.032-.06.08-.11.092-.174.037-.234-.097-.439-.25-.373-.069.033-.125.146-.194.169s-.15-.05-.226-.036c-.115.02-.129.118-.047.234.017.028.041.046.061.069-.126.238-.033.291.117.312.007 0 .023.148.001.193-.025.054-.156-.016-.099.16.011.033.028.061.042.094.058-.066.123-.117.174-.197.019-.03-.003-.111-.004-.169-.004-.149-.065-.243-.131-.341-.048-.075.047-.234.092-.174.123.172.147-.09.223-.079.104-.054.121-.035.118.11zm.764-.387c.05.147.113.289.179.425.021.047.068.069.102.101.009-.049.027-.093.026-.141.005-.208-.126-.404-.029-.626 0-.005-.038-.051-.051-.07-.168.038-.273.193-.23.316l.003-.005zM8.6 7.431c-.036.021-.068.052-.104.078.027.037.061.064.085.107.104.192.196.052.287-.025.039-.031.074-.071.113-.112-.047-.041-.092-.106-.142-.118s-.108.03-.161.047c-.026.006-.056.013-.082.028l.003-.005zm2.981-1.922c-.067-.025-.14.374-.084.468.014.023.057.036.07.02.074-.076.145-.167.219-.253-.078-.092-.134-.205-.207-.235h.003zm-1.404 1.371c-.006.15.093.29.011.448-.003.005.032.08.048.08.102-.001.193-.068.21-.214.019-.17-.096-.019-.124-.085s-.036-.138-.058-.204c-.011-.033-.028-.061-.042-.094-.016.025-.042.046-.041.07h-.003zm2.579.145c.014.023.021.062.038.07.07.04.141.07.211.1.027.013.06.007.086.01-.008-.053-.003-.135-.027-.148-.074-.059-.158-.098-.211-.129l-.1.097h.003zm-6.284-.681c.053.002.08.179.153.045.013-.025.062-.037.079-.019.034.032.055.084.079.131l.003-.164c-.012-.241-.119-.139-.241-.113l-.073.124v-.005zm9.472.746c.032-.031.085-.048.094-.092.024-.103.031-.214.042-.326l-.161.052c-.2.088.066.132-.017.247l.043.118zm-8.239-.463c.004.029.035.08.055.079.149-.008.024-.243.115-.305l-.058-.079c-.145.036-.145.036-.112.305zm5.61.446c.041.041.113.023.173.034l-.005-.222-.262-.039c.032.08.051.186.095.232v-.005zm-8.184.016s.001.029.008.038c.049.094.225.133.293.072.01-.01.022-.04.022-.045-.011-.028-.025-.061-.041-.065-.073-.025-.146-.041-.22-.056l-.061.061v-.005zm.515.103s.054.05.06.04c.054-.07.105-.15.16-.23l-.139-.138-.081.328zm6.578-.425c.014.038.045.094.036.114-.037.098-.029.146.049.118.029-.011.068-.066.07-.11.012-.184-.07-.296-.19-.207.011.028.024.052.035.08v.005zm-2.517.073l-.021.083c.08.015.156.045.236.041.023-.001.044-.089.066-.139-.027-.018-.057-.045-.087-.049-.023-.004-.053.012-.079.023-.039.012-.079.019-.118.04h.003zm2.648.431l.048.07.17-.216-.144-.089-.074.236zm-6.358-.045l.152-.008c.04-.002.082-.019.118-.04.013-.006.018-.054.021-.083 0-.01-.021-.033-.031-.032-.04.007-.079.023-.161.047l-.1.111v.005zm5.137-1.33c.001.029.048.065.075.097.029-.05.064-.095.079-.154.006-.024-.042-.075-.09-.155-.031.098-.062.153-.061.211h-.003zM9.029 7.254c.055-.056.103-.121.154-.182-.073.004-.145.003-.214.021-.013.001-.014.097-.028.194.046-.012.072-.013.092-.029l-.003-.005zm-.457-.304c.018.076.053.142.081.213.028-.064.083-.135.078-.192-.001-.048-.078-.088-.136-.147-.009.049-.031.098-.02.131l-.003-.005zm-.559.541c.036-.012.06-.119.088-.183-.053-.012-.106-.028-.159-.025-.023.001-.048.046-.074.081.061.055.112.139.149.127h-.003zm-.608-.663c-.031.069-.083.135-.081.202.001.043.075.088.116.134l.059-.167-.093-.169zm4.936-1.314l.137.181c.016-.035.048-.08.041-.099-.018-.052-.052-.089-.066-.117l-.112.035zm-.762.86l.077-.236c-.023-.004-.057-.026-.07-.011-.032.04-.054.095-.079.139l.075.107h-.003zm-5.371.956c-.005.053-.026.141-.013.15.034.037.084.044.13.051.003 0 .012-.054.018-.069l-.132-.138-.003.005zm3.734.076l.039.094c.032-.045.074-.081.089-.135.009-.029-.032-.085-.053-.137-.028.069-.056.124-.072.182l-.003-.005zm-1.734-1.29l.136.167c.009-.034.031-.074.024-.103-.015-.057-.045-.104-.07-.151l-.091.082v.005zm-4.34.559c.011.048.039.09.06.137.009-.034.028-.074.024-.103-.008-.053-.032-.095-.053-.152-.015.054-.034.093-.03.122v-.005zm2.649.74c.037.008.073.03.11.023.02-.001.035-.05.054-.075l-.1-.038-.061.09h-.003zm-.04-.543c-.005.053-.02.107-.016.16.001.029.034.051.052.079l.026-.146-.062-.088v-.005zm.623.484c.023.013.051.046.07.035.033-.016.061-.056.094-.087l-.08-.044c-.022.03-.051.065-.08.096h-.003zm2.979-1.067c.024.013.051.046.07.035.033-.016.061-.056.094-.087l-.08-.044c-.022.03-.051.065-.08.096h-.003zm.384.434c.033-.016.061-.056.094-.087-.024-.013-.051-.041-.07-.035-.036.012-.065.047-.104.078.037.022.064.05.084.044h-.003zm.896.668c.023.008.054.031.07.016.026-.021.041-.065.06-.095-.023-.008-.05-.012-.117-.033 0 .019-.008.068-.014.112zm.555-1.622c.036-.016.068-.047.101-.068-.014-.023-.031-.066-.041-.065-.036.007-.069.033-.111.059.024.037.045.08.055.079l-.003-.005zm1.69.173c.023.008.054.031.07.016.026-.021.041-.065.061-.095-.023-.008-.05-.012-.117-.033 0 .019-.008.068-.014.112zm.734-1.346c.023.008.053.026.07.016.026-.021.041-.065.06-.095-.023-.008-.05-.012-.116-.033 0 .019-.008.068-.014.112zM.115 7.709s.027.032.03.027c.02-.011.032-.035.048-.056-.01-.009-.02-.023-.034-.032l-.045.06zm1.182-.313l-.014.088c0 .01.02.018.031.032l.018-.083-.034-.032v-.005zm.599-.253a.3.3 0 0 0-.06-.021c-.007 0-.013.03-.022.045l.057.026.022-.049h.003zm.438-.201l-.014.088c0 .01.02.018.031.032l.018-.083-.034-.032v-.005zm.381.559s.027.032.03.027c.02-.011.032-.035.048-.056-.01-.009-.02-.023-.034-.032l-.045.06zm1.891-.412c-.019.015-.042.031-.055.056-.003.005.014.043.025.066.013-.025.025-.045.041-.07 0-.019-.004-.034-.008-.053h-.003zm-.008-.053l.044.041.024-.083c0-.005-.02-.018-.03-.027l-.038.07zm.004-2.548s.022-.04.019-.049c-.007-.029-.024-.047-.038-.07-.006.015-.016.03-.022.049l.041.065v.005zm.885 2.256c-.02-.009-.04-.017-.06-.021-.007 0-.013.03-.022.045l.057.026.022-.049h.003zm.748-.111c-.02-.009-.04-.017-.06-.021-.007 0-.012.03-.022.045l.057.026.022-.049h.003zm.524.494c.02-.011.032-.035.048-.056-.01-.009-.027-.032-.03-.027-.02.011-.032.035-.048.056.01.009.027.032.03.027zm.368-.772c-.02-.009-.04-.022-.06-.021-.007 0-.013.03-.022.045l.057.026.022-.049h.003zm.052.354s.027.032.03.027c.02-.011.032-.035.048-.056-.01-.009-.02-.023-.034-.032l-.045.06zm.366.753s.027.032.03.027c.02-.011.032-.035.048-.056-.01-.009-.02-.023-.034-.032l-.045.06zm-.103-.704l.044.041.024-.083c0-.005-.02-.018-.03-.027l-.038.07zm.577-.209c.007.029.024.047.038.07.006-.015.022-.04.019-.044-.007-.029-.024-.047-.038-.07-.006.015-.022.04-.019.049v-.005zm.228 1.064c.02.009.04.017.06.021.007 0 .012-.03.022-.045l-.057-.026-.022.049h-.003zm1.691-.349l.028-.064c-.02-.013-.037-.027-.057-.036l-.019.044.048.055zm.282-.647c.02.009.04.022.06.021.007 0 .013-.03.022-.045l-.057-.026-.022.049h-.003zm.21-.624l.028-.064c-.02-.013-.037-.027-.057-.036-.003 0-.013.03-.019.044l.048.055zm.579 1.365s-.027-.032-.03-.027c-.02.011-.032.035-.048.056.01.009.02.023.034.032l.045-.06zm-.096-1.206s.027.032.03.027c.02-.011.032-.035.048-.056-.01-.009-.021-.023-.034-.032l-.045.06zm.232.422a.3.3 0 0 0 .06.021c.007 0 .013-.03.022-.045l-.057-.026-.022.049h-.003zm.592.558c-.02-.009-.04-.017-.06-.021-.007 0-.013.03-.022.045l.06.026.022-.049zm.572-1.603l.028-.064c-.02-.013-.037-.027-.057-.036-.003 0-.012.03-.019.044l.048.055zm.557.072l-.042-.09-.04.113.082-.024zm.461-.323l.044.041.024-.083c0-.005-.02-.018-.03-.027l-.038.07zm.474.337c-.02-.009-.04-.022-.06-.021-.007 0-.012.03-.022.045l.06.026.022-.049zm.227-.19l.044.041.024-.083-.03-.027-.038.07zm39.836.708c-.006.029-.015.059-.014.088 0 .01.02.018.031.032l.018-.083-.034-.032v-.005zm2.386.358c.011.028.021.062.038.08.003.005.029-.021.045-.036-.017-.018-.031-.037-.048-.06-.013.001-.023.006-.036.012v.005zm.349.074c.02.009.04.017.06.021.007 0 .012-.03.022-.045l-.057-.026-.022.049h-.003z" />
</svg>