<svg fill="none" height="20" viewBox="0 0 24 20" width="24" xmlns="http://www.w3.org/2000/svg"><path d="m7.539 19.7042c9.057 0 14.0115-7.5045 14.0115-14.00104 0-.21 0-.423-.009-.633.9646-.69827 1.7971-1.56277 2.4585-2.553-.901.39728-1.8559.65911-2.8335.777 1.0298-.61554 1.8011-1.58404 2.1705-2.725495-.9675.573185-2.0265.975555-3.1305 1.189495-.7422-.79046-1.7244-1.314119-2.7944-1.489859-1.07-.1757404-2.168.006246-3.1241.51777-.9561.511519-1.7168 1.324039-2.1643 2.311679-.4476.98765-.5569 2.09531-.3112 3.15142-1.95789-.09818-3.87328-.6068-5.62194-1.49289s-3.29153-2.12985-4.52856-3.65062c-.62799 1.08463-.819639 2.36761-.53603 3.5884.28361 1.2208 1.02121 2.2879 2.06303 2.9846-.78069-.02652-1.54422-.23616-2.229-.612v.0675c.001346 1.13623.39496 2.23713 1.11431 3.11664.71935.8795 1.72031 1.4837 2.83369 1.7104-.42261.1164-.85916.1744-1.2975.1725-.30902.0009-.61743-.0277-.921-.0855.31468.9781.92741 1.8332 1.75237 2.4457.82496.6124 1.82083.9515 2.84813.9698-1.74517 1.3707-3.9009 2.1141-6.12 2.1105-.391019.0016-.781765-.0209-1.17-.0675 2.25227 1.4359 4.86795 2.1983 7.539 2.1975z" fill="#888"/></svg>